<?xml version="1.0" encoding="UTF-8" standalone="no"?>
<svg
   xmlns:dc="http://purl.org/dc/elements/1.1/"
   xmlns:cc="http://creativecommons.org/ns#"
   xmlns:rdf="http://www.w3.org/1999/02/22-rdf-syntax-ns#"
   xmlns:svg="http://www.w3.org/2000/svg"
   xmlns="http://www.w3.org/2000/svg"
   xmlns:sodipodi="http://sodipodi.sourceforge.net/DTD/sodipodi-0.dtd"
   xmlns:inkscape="http://www.inkscape.org/namespaces/inkscape"
   sodipodi:docname="face scan.svg"
   inkscape:version="1.0 (4035a4fb49, 2020-05-01)"
   id="svg979"
   version="1.1"
   viewBox="0 0 16.933334 16.933333"
   height="48pt"
   width="48pt">
  <defs
     id="defs973" />
  <sodipodi:namedview
     inkscape:snap-nodes="false"
     inkscape:bbox-nodes="true"
     inkscape:snap-bbox="true"
     inkscape:document-rotation="0"
     inkscape:window-maximized="1"
     inkscape:window-y="-8"
     inkscape:window-x="-8"
     inkscape:window-height="706"
     inkscape:window-width="1366"
     units="pt"
     showgrid="false"
     inkscape:current-layer="layer1"
     inkscape:document-units="pt"
     inkscape:cy="32"
     inkscape:cx="32"
     inkscape:zoom="8.546875"
     inkscape:pageshadow="2"
     inkscape:pageopacity="0.0"
     borderopacity="1.0"
     bordercolor="#666666"
     pagecolor="#ffffff"
     id="base">
    <inkscape:grid
       id="grid1526"
       type="xygrid" />
    <sodipodi:guide
       inkscape:locked="false"
       id="guide1528"
       orientation="56.666615,0"
       position="0.97013909,15.963209" />
    <sodipodi:guide
       inkscape:locked="false"
       id="guide1530"
       orientation="0,56.666667"
       position="0.97013909,0.97016731" />
    <sodipodi:guide
       inkscape:locked="false"
       id="guide1532"
       orientation="-56.666615,0"
       position="15.963195,0.97016731" />
    <sodipodi:guide
       inkscape:locked="false"
       id="guide1534"
       orientation="0,-56.666667"
       position="15.963195,15.963209" />
  </sodipodi:namedview>
  <metadata
     id="metadata976">
    <rdf:RDF>
      <cc:Work
         rdf:about="">
        <dc:format>image/svg+xml</dc:format>
        <dc:type
           rdf:resource="http://purl.org/dc/dcmitype/StillImage" />
        <dc:title></dc:title>
      </cc:Work>
    </rdf:RDF>
  </metadata>
  <g
     transform="translate(0,-280.06668)"
     id="layer1"
     inkscape:groupmode="layer"
     inkscape:label="Layer 1">
    <g
       style="stroke-width:0.734871"
       transform="matrix(1.3607834,0,0,1.3607834,59.70582,309.8608)"
       id="g1092">
      <g
         style="stroke-width:0.734871"
         id="g1145">
        <path
           style="color:#000000;font-style:normal;font-variant:normal;font-weight:normal;font-stretch:normal;font-size:medium;line-height:normal;font-family:sans-serif;font-variant-ligatures:normal;font-variant-position:normal;font-variant-caps:normal;font-variant-numeric:normal;font-variant-alternates:normal;font-variant-east-asian:normal;font-feature-settings:normal;font-variation-settings:normal;text-indent:0;text-align:start;text-decoration:none;text-decoration-line:none;text-decoration-style:solid;text-decoration-color:#000000;letter-spacing:normal;word-spacing:normal;text-transform:none;writing-mode:lr-tb;direction:ltr;text-orientation:mixed;dominant-baseline:auto;baseline-shift:baseline;text-anchor:start;white-space:normal;shape-padding:0;shape-margin:0;inline-size:0;clip-rule:nonzero;display:inline;overflow:visible;visibility:visible;isolation:auto;mix-blend-mode:normal;color-interpolation:sRGB;color-interpolation-filters:linearRGB;solid-color:#000000;solid-opacity:1;vector-effect:none;fill:#5b6571;fill-opacity:1;fill-rule:nonzero;stroke:none;stroke-width:0.388869;stroke-linecap:round;stroke-linejoin:round;stroke-miterlimit:4;stroke-dasharray:none;stroke-dashoffset:0;stroke-opacity:1;color-rendering:auto;image-rendering:auto;shape-rendering:auto;text-rendering:auto;enable-background:accumulate;stop-color:#000000"
           d="m -37.724609,-15.361328 c -1.926377,0.01869 -3.588357,1.14241 -4.382813,2.765625 -0.302289,0.61763 -0.15446,1.2678 0.236328,1.714844 0.390789,0.447043 1.008138,0.723274 1.675782,0.716797 l 5.314453,-0.05274 c 0.591744,-0.0057 1.134161,-0.258329 1.480468,-0.662109 0.346308,-0.403781 0.481611,-0.985532 0.234375,-1.544922 -0.772583,-1.748031 -2.530611,-2.957173 -4.558593,-2.9375 z"
           id="path1062" />
        <path
           id="path1122"
           style="color:#000000;font-style:normal;font-variant:normal;font-weight:normal;font-stretch:normal;font-size:medium;line-height:normal;font-family:sans-serif;font-variant-ligatures:normal;font-variant-position:normal;font-variant-caps:normal;font-variant-numeric:normal;font-variant-alternates:normal;font-variant-east-asian:normal;font-feature-settings:normal;font-variation-settings:normal;text-indent:0;text-align:start;text-decoration:none;text-decoration-line:none;text-decoration-style:solid;text-decoration-color:#000000;letter-spacing:normal;word-spacing:normal;text-transform:none;writing-mode:lr-tb;direction:ltr;text-orientation:mixed;dominant-baseline:auto;baseline-shift:baseline;text-anchor:start;white-space:normal;shape-padding:0;shape-margin:0;inline-size:0;clip-rule:nonzero;display:inline;overflow:visible;visibility:visible;isolation:auto;mix-blend-mode:normal;color-interpolation:sRGB;color-interpolation-filters:linearRGB;solid-color:#000000;solid-opacity:1;vector-effect:none;fill:#3a4d5c;fill-opacity:1;fill-rule:nonzero;stroke:none;stroke-width:0.388869;stroke-linecap:round;stroke-linejoin:round;stroke-miterlimit:4;stroke-dasharray:none;stroke-dashoffset:0;stroke-opacity:1;color-rendering:auto;image-rendering:auto;shape-rendering:auto;text-rendering:auto;enable-background:accumulate;stop-color:#000000"
           d="m -37.724909,-15.361121 c -1.472022,0.01428 -2.7878,0.675397 -3.681946,1.709973 0.84991,-0.726156 1.949719,-1.169134 3.15278,-1.180807 2.027981,-0.01967 3.786311,1.189258 4.558894,2.937289 0.210389,0.476019 0.141813,0.967414 -0.09612,1.352372 0.146581,-0.09525 0.279599,-0.206905 0.390674,-0.336414 0.346308,-0.403781 0.481847,-0.985735 0.234611,-1.545125 -0.772583,-1.748031 -2.530914,-2.956961 -4.558895,-2.937288 z" />
        <path
           id="path1127"
           style="color:#000000;font-style:normal;font-variant:normal;font-weight:normal;font-stretch:normal;font-size:medium;line-height:normal;font-family:sans-serif;font-variant-ligatures:normal;font-variant-position:normal;font-variant-caps:normal;font-variant-numeric:normal;font-variant-alternates:normal;font-variant-east-asian:normal;font-feature-settings:normal;font-variation-settings:normal;text-indent:0;text-align:start;text-decoration:none;text-decoration-line:none;text-decoration-style:solid;text-decoration-color:#000000;letter-spacing:normal;word-spacing:normal;text-transform:none;writing-mode:lr-tb;direction:ltr;text-orientation:mixed;dominant-baseline:auto;baseline-shift:baseline;text-anchor:start;white-space:normal;shape-padding:0;shape-margin:0;inline-size:0;clip-rule:nonzero;display:inline;overflow:visible;visibility:visible;isolation:auto;mix-blend-mode:normal;color-interpolation:sRGB;color-interpolation-filters:linearRGB;solid-color:#000000;solid-opacity:1;vector-effect:none;fill:#3a4d5c;fill-opacity:1;fill-rule:nonzero;stroke:none;stroke-width:1.46974;stroke-linecap:round;stroke-linejoin:round;stroke-miterlimit:4;stroke-dasharray:none;stroke-dashoffset:0;stroke-opacity:1;color-rendering:auto;image-rendering:auto;shape-rendering:auto;text-rendering:auto;enable-background:accumulate;stop-color:#000000"
           d="m -142.58203,-58.058594 c -2.34119,0.02271 -4.57602,0.48266 -6.63477,1.292969 1.78935,1.674196 4.18523,2.707031 6.82032,2.707031 2.63456,0 5.02697,-1.033418 6.81445,-2.707031 -2.16778,-0.853541 -4.52975,-1.316932 -7,-1.292969 z"
           transform="scale(0.26458333)" />
        <path
           style="color:#000000;font-style:normal;font-variant:normal;font-weight:normal;font-stretch:normal;font-size:medium;line-height:normal;font-family:sans-serif;font-variant-ligatures:normal;font-variant-position:normal;font-variant-caps:normal;font-variant-numeric:normal;font-variant-alternates:normal;font-variant-east-asian:normal;font-feature-settings:normal;font-variation-settings:normal;text-indent:0;text-align:start;text-decoration:none;text-decoration-line:none;text-decoration-style:solid;text-decoration-color:#000000;letter-spacing:normal;word-spacing:normal;text-transform:none;writing-mode:lr-tb;direction:ltr;text-orientation:mixed;dominant-baseline:auto;baseline-shift:baseline;text-anchor:start;white-space:normal;shape-padding:0;shape-margin:0;inline-size:0;clip-rule:nonzero;display:inline;overflow:visible;visibility:visible;isolation:auto;mix-blend-mode:normal;color-interpolation:sRGB;color-interpolation-filters:linearRGB;solid-color:#000000;solid-opacity:1;vector-effect:none;fill:#f8c09f;fill-opacity:1;fill-rule:nonzero;stroke:none;stroke-width:0.388869;stroke-linecap:round;stroke-linejoin:round;stroke-miterlimit:4;stroke-dasharray:none;stroke-dashoffset:0;stroke-opacity:1;color-rendering:auto;image-rendering:auto;shape-rendering:auto;text-rendering:auto;enable-background:accumulate;stop-color:#000000"
           d="m -37.675781,-20.125 c -1.45812,0 -2.646484,1.188365 -2.646485,2.646484 10e-7,1.45812 1.188365,2.646485 2.646485,2.646485 1.45812,0 2.644531,-1.188365 2.644531,-2.646485 0,-1.45812 -1.186411,-2.646484 -2.644531,-2.646484 z"
           id="path1046" />
        <path
           id="path1115"
           style="color:#000000;font-style:normal;font-variant:normal;font-weight:normal;font-stretch:normal;font-size:medium;line-height:normal;font-family:sans-serif;font-variant-ligatures:normal;font-variant-position:normal;font-variant-caps:normal;font-variant-numeric:normal;font-variant-alternates:normal;font-variant-east-asian:normal;font-feature-settings:normal;font-variation-settings:normal;text-indent:0;text-align:start;text-decoration:none;text-decoration-line:none;text-decoration-style:solid;text-decoration-color:#000000;letter-spacing:normal;word-spacing:normal;text-transform:none;writing-mode:lr-tb;direction:ltr;text-orientation:mixed;dominant-baseline:auto;baseline-shift:baseline;text-anchor:start;white-space:normal;shape-padding:0;shape-margin:0;inline-size:0;clip-rule:nonzero;display:inline;overflow:visible;visibility:visible;isolation:auto;mix-blend-mode:normal;color-interpolation:sRGB;color-interpolation-filters:linearRGB;solid-color:#000000;solid-opacity:1;vector-effect:none;fill:#ef937e;fill-opacity:1;fill-rule:nonzero;stroke:none;stroke-width:0.388869;stroke-linecap:round;stroke-linejoin:round;stroke-miterlimit:4;stroke-dasharray:none;stroke-dashoffset:0;stroke-opacity:1;color-rendering:auto;image-rendering:auto;shape-rendering:auto;text-rendering:auto;enable-background:accumulate;stop-color:#000000"
           d="m -37.675781,-20.125 c -0.863634,0 -1.630587,0.418524 -2.114084,1.061434 0.44255,-0.332819 0.990428,-0.532268 1.584917,-0.532268 1.458119,0 2.644283,1.18823 2.644283,2.64635 0,0.595005 -0.199826,1.1432 -0.532786,1.58595 0.643287,-0.483422 1.061953,-1.250746 1.061953,-2.115116 0,-1.45812 -1.186164,-2.64635 -2.644283,-2.64635 z" />
      </g>
      <path
         id="path1040"
         style="color:#000000;font-style:normal;font-variant:normal;font-weight:normal;font-stretch:normal;font-size:medium;line-height:normal;font-family:sans-serif;font-variant-ligatures:normal;font-variant-position:normal;font-variant-caps:normal;font-variant-numeric:normal;font-variant-alternates:normal;font-variant-east-asian:normal;font-feature-settings:normal;font-variation-settings:normal;text-indent:0;text-align:start;text-decoration:none;text-decoration-line:none;text-decoration-style:solid;text-decoration-color:#000000;letter-spacing:normal;word-spacing:normal;text-transform:none;writing-mode:lr-tb;direction:ltr;text-orientation:mixed;dominant-baseline:auto;baseline-shift:baseline;text-anchor:start;white-space:normal;shape-padding:0;shape-margin:0;inline-size:0;clip-rule:nonzero;display:inline;overflow:visible;visibility:visible;opacity:1;isolation:auto;mix-blend-mode:normal;color-interpolation:sRGB;color-interpolation-filters:linearRGB;solid-color:#000000;solid-opacity:1;vector-effect:none;fill:#000000;fill-opacity:1;fill-rule:nonzero;stroke:none;stroke-width:0.388869;stroke-linecap:round;stroke-linejoin:round;stroke-miterlimit:4;stroke-dasharray:none;stroke-dashoffset:0;stroke-opacity:1;color-rendering:auto;image-rendering:auto;shape-rendering:auto;text-rendering:auto;enable-background:accumulate;stop-color:#000000;stop-opacity:1"
         d="m -39.535045,-21.1819 c -0.313016,6.1e-4 -0.595374,0.002 -0.831991,0.006 -0.549597,0.008 -0.975436,0.47681 -0.982368,1.01389 -0.0031,0.24038 -0.0062,0.53104 -0.0098,0.85162 a 0.26458349,0.26458349 0 0 0 0.261482,0.26769 0.26458349,0.26458349 0 0 0 0.267684,-0.262 c 0.0036,-0.32021 0.0067,-0.60936 0.0098,-0.84956 0.0033,-0.25308 0.223401,-0.49057 0.460955,-0.49403 0.23319,-0.003 0.514712,-0.004 0.826304,-0.004 a 0.26458349,0.26458349 0 0 0 0.263547,-0.26606 0.26458349,0.26458349 0 0 0 -0.265617,-0.26355 z m 1.337902,0.008 a 0.26458349,0.26458349 0 0 0 -0.267684,0.26355 0.26458349,0.26458349 0 0 0 0.263551,0.26562 l 0.998387,0.006 a 0.26458349,0.26458349 0 0 0 0.267168,-0.262 0.26458349,0.26458349 0 0 0 -0.263548,-0.26561 z m 2.429828,0.0155 a 0.26458349,0.26458349 0 0 0 -0.267685,0.262 0.26458349,0.26458349 0 0 0 0.261483,0.26768 c 0.291383,0.003 0.553913,0.007 0.775663,0.01 0.253082,0.003 0.490569,0.22288 0.494027,0.46044 0.0035,0.23927 0.0052,0.52872 0.0057,0.85007 a 0.26458349,0.26458349 0 0 0 0.263552,0.26562 0.26458349,0.26458349 0 0 0 0.264065,-0.26562 c -5.29e-4,-0.32282 -0.0027,-0.615 -0.0062,-0.85783 -0.008,-0.54959 -0.476295,-0.97543 -1.013373,-0.98237 -0.222144,-0.003 -0.485683,-0.006 -0.777214,-0.01 z m -1.908411,1.03352 c -1.458121,0 -2.646349,1.18824 -2.646352,2.64636 3e-6,0.98151 0.539605,1.83911 1.336353,2.29598 -0.588008,0.1618 -1.132642,0.42771 -1.610755,0.7798 -0.144716,-0.084 -0.25092,-0.23245 -0.253214,-0.39016 -0.0031,-0.215 -0.0029,-0.47127 -0.0036,-0.75396 a 0.26458349,0.26458349 0 0 0 -0.265618,-0.26355 0.26458349,0.26458349 0 0 0 -0.264064,0.26562 c 7.94e-4,0.28414 0.0031,0.54159 0.0062,0.75964 0.0043,0.29748 0.146089,0.55563 0.358118,0.73381 -0.446619,0.41246 -0.818872,0.90416 -1.088821,1.45572 -0.302289,0.61763 -0.154628,1.26758 0.236159,1.71463 0.39079,0.44704 1.008224,0.72322 1.675868,0.71675 l 5.314405,-0.0527 c 0.591744,-0.006 1.134222,-0.2582 1.480529,-0.66198 0.346308,-0.40378 0.481846,-0.98573 0.234612,-1.54512 -0.274125,-0.62023 -0.674503,-1.17047 -1.164789,-1.62419 0.197792,-0.18857 0.322892,-0.45415 0.326597,-0.74104 0.0028,-0.22185 0.0065,-0.48576 0.0098,-0.77722 a 0.26458349,0.26458349 0 0 0 -0.261483,-0.26768 0.26458349,0.26458349 0 0 0 -0.267684,0.262 c -0.0033,0.29107 -0.007,0.55335 -0.0098,0.77515 -0.0021,0.15857 -0.08913,0.31096 -0.212392,0.40359 -0.481015,-0.35636 -1.028784,-0.62607 -1.620573,-0.7891 0.796171,-0.45687 1.334805,-1.31447 1.334805,-2.29598 0,-1.45813 -1.186164,-2.64636 -2.644283,-2.64636 z m 0,0.52917 c 1.172136,0 2.115116,0.94505 2.115116,2.11719 0,1.17213 -0.94298,2.11718 -2.115116,2.11718 -1.172138,0 -2.117185,-0.94505 -2.117185,-2.11718 0,-1.17214 0.945047,-2.11719 2.117185,-2.11719 z m 3.435448,1.28519 a 0.26458349,0.26458349 0 0 0 -0.267684,0.26355 c -0.0018,0.27266 -0.0039,0.8273 -0.0057,1.09554 a 0.26458349,0.26458349 0 0 0 0.263549,0.26562 0.26458349,0.26458349 0 0 0 0.265617,-0.26148 c 0.0018,-0.27075 0.0044,-0.8274 0.0062,-1.09761 a 0.26458349,0.26458349 0 0 0 -0.261998,-0.26562 z m -6.86108,0.0703 a 0.26458349,0.26458349 0 0 0 -0.265617,0.26355 l -0.0062,1.02526 a 0.26458349,0.26458349 0 0 0 0.264064,0.26562 0.26458349,0.26458349 0 0 0 0.265618,-0.26148 l 0.0057,-1.02733 a 0.26458349,0.26458349 0 0 0 -0.26355,-0.26588 z m 3.382741,3.40807 c 0.776366,-0.008 1.506265,0.18768 2.142503,0.53381 -0.09429,4.5e-4 -0.166489,10e-4 -0.267684,0.002 a 0.26458349,0.26458349 0 0 0 -0.263549,0.26355 0.26458349,0.26458349 0 0 0 0.263549,0.26562 c 0.322646,-5.02e-4 0.614603,-0.002 0.857313,-0.006 0.05166,-7.41e-4 0.101142,-0.009 0.150379,-0.0181 0.506179,0.42821 0.915693,0.9673 1.187524,1.58233 0.167923,0.37994 0.08308,0.71009 -0.153996,0.98651 -0.237072,0.27641 -0.642109,0.47216 -1.084172,0.47645 l -5.314405,0.05269 c -0.515996,0.005 -0.993653,-0.21782 -1.271238,-0.53537 -0.277588,-0.31754 -0.372121,-0.69813 -0.158647,-1.13429 0.27523,-0.56235 0.667874,-1.05661 1.144632,-1.45314 0.04081,0.005 0.08117,0.0129 0.122989,0.0134 0.234281,0.003 0.515403,0.006 0.826307,0.01 a 0.26458349,0.26458349 0 0 0 0.267684,-0.261479 0.26458349,0.26458349 0 0 0 -0.262001,-0.267691 c -0.07339,-8.2e-4 -0.125073,-0.001 -0.194818,-0.002 0.599962,-0.316601 1.281711,-0.500941 2.00763,-0.507981 z m -0.527617,0.51779 a 0.26458349,0.26458349 0 0 0 -0.265617,0.26355 0.26458349,0.26458349 0 0 0 0.261998,0.26562 l 1.093475,0.008 a 0.26458349,0.26458349 0 0 0 0.267682,-0.261479 0.26458349,0.26458349 0 0 0 -0.263549,-0.26768 z" />
    </g>
  </g>
</svg>
