<svg xmlns="http://www.w3.org/2000/svg" xmlns:xlink="http://www.w3.org/1999/xlink" viewBox="0 0 500 500"><defs><style>.cls-1,.cls-16,.cls-17,.cls-3,.cls-5,.cls-6,.cls-9{fill:none;}.cls-11,.cls-2{fill:#fff;}.cls-21,.cls-23,.cls-3{stroke:#000;}.cls-11,.cls-16,.cls-17,.cls-21,.cls-23,.cls-3,.cls-5,.cls-6,.cls-9{stroke-miterlimit:10;}.cls-11,.cls-16,.cls-17,.cls-21,.cls-23,.cls-3,.cls-9{stroke-width:0.5px;}.cls-4{fill:#fcefeb;}.cls-5{stroke:#d48787;stroke-width:12px;}.cls-6{stroke:#f0c9bd;stroke-width:8px;}.cls-7{fill:#f0c9bd;}.cls-8{fill:#edbf34;}.cls-9{stroke:#2d2d2d;stroke-linecap:round;}.cls-10{fill:#e6db3e;}.cls-11,.cls-17{stroke:#222221;}.cls-12{fill:#161111;}.cls-13{fill:#2b347b;}.cls-14{clip-path:url(#clip-path);}.cls-15{fill:#80be45;}.cls-16{stroke:#131834;}.cls-18{fill:#a8dca4;}.cls-19{fill:#c05c19;}.cls-20{fill:#e6ad29;}.cls-21{fill:#8cc9de;}.cls-22{clip-path:url(#clip-path-2);}.cls-23,.cls-24{fill:#d47172;}</style><clipPath id="clip-path"><path class="cls-1" d="M311.42,281.44c.34-12.21.6-24-1.33-36.14-.83-5.21-5.13-23.15-11.65-24.13a2.63,2.63,0,0,0-1,0,15,15,0,0,0-2-5.11,21.88,21.88,0,0,0-13.3-9.16c-5.86-1.39-13-.59-15.58,6.17-1.32,3.46-1,7-2.59,10.32-4.44,9.45-5,18.84-6.34,29.24q-2.34,18.45-4.87,36.86-4.8,35-10.28,69.89a59.6,59.6,0,0,0,7.35,1.32,56.39,56.39,0,0,0,12.92-.13q6.3-31.74,13.45-63.28c2.39-10.53,4.4-20.82,6.87-30.8,1.68,16.31,3.13,32.66,4.14,49q.78,12.51,1.18,25.05c.22,6.93,1.52,14.46,1.24,21.25,4.93.87,10.82.07,15.88-.29.58,0,4.9-.61,4.95-1.15,1.33-14.66,1.28-26.44,1.58-41.84C312.26,307,311.11,292.78,311.42,281.44Z"/></clipPath><clipPath id="clip-path-2"><path class="cls-1" d="M445.77,386.39c.55-3.7.43-7.55.69-11.34l-19.87.9c-5.94.27-12,1-17.94,1.27l-2.61.08q3.78-7.56,7.36-15.2a79.53,79.53,0,0,0,5.73-14.88,39,39,0,0,0-.28-20,42.08,42.08,0,0,0-4.05-9.37c-.6-1-1.67-3.57-2.73-4.12s-3.87.24-5.16.43c-10.61,1.55-21.35,3.14-31.24,7.29.43-.18,3.81,3.82,4.41,4.4a52.34,52.34,0,0,1,5.52,7c2.34,3.22,2,6.58,1.71,10.43-.72,10.84-2.82,21.53-4.18,32.29-.46,3.59-.83,7.26,0,10.78,2.65,11.09,14.43,10.17,23.38,10.38,9.59.21,17.62.13,27,.75,3.35.22,7.2.21,10.78.21C444.74,393.88,445.21,390.13,445.77,386.39Z"/></clipPath></defs><g id="BACKGROUND"><rect class="cls-2" width="500" height="500"/></g><g id="OBJECTS"><line class="cls-3" x1="54.48" y1="423.38" x2="191.53" y2="423.38"/><path class="cls-4" d="M289.5,366.53c-7.15,0-14.3-.06-21.43.47-20.21,1.5-39.88,7.55-60.09,9-18.91,1.33-37.92-1.42-56.29-6.07-10.1-2.55-20.26-5.78-28.72-11.88-9.51-6.85-16.24-16.89-21.71-27.26-6.81-12.89-12-26.79-13.63-41.28-2.14-19.4-4.74-42.25,1-61.29,2.17-7.22,5.89-13.88,10-20.17,8.89-13.48,20.55-26,35.82-31.31,22.3-7.7,47.14,1.57,70.3-2.92,9.92-1.92,19.2-6.32,27.92-11.43a176.33,176.33,0,0,0,34.62-26.59c13.74-13.57,25.12-29.28,38.66-43,11.4-11.59,27.53-19.41,43.29-23.68C378.34,61.16,411.74,73.27,429,98c39.14,56-6.78,122.32-29.35,174.84-6.64,15.46-11.29,31.8-19.2,46.65-14.25,26.78-37.95,43.76-68.58,46.47C304.44,366.57,297,366.56,289.5,366.53Z"/><path class="cls-5" d="M453.9,98.77"/><polyline class="cls-6" points="96.69 396.15 129.4 303.45 228.8 300.56 325.83 205.42 411.84 205.42 456.41 113.54"/><polygon class="cls-7" points="460.69 103.15 433.09 119.26 467.26 133.33 460.69 103.15"/><polyline class="cls-3" points="211.79 201.93 210.56 195.97 216.3 196.42 215.65 190.04 221.69 190.72 220.8 184.4 226.98 184.75 226.27 178.43"/><path class="cls-3" d="M226.92,149A8.06,8.06,0,0,1,243,149"/><path d="M234.92,150.93a2,2,0,1,1-2-2A2,2,0,0,1,234.92,150.93Z"/><path class="cls-3" d="M382.86,187.42a6.6,6.6,0,1,1,10,8.64"/><path class="cls-3" d="M90.38,260.13a4.28,4.28,0,0,1-2.89,5.49c-2.23.65-3.67.69-5.43,2.69-1.15,1.31-1.88,3.28-3.35,4.23-1.31.84-3.18,1-4.07-.55a3.49,3.49,0,0,1,.09-3.19,16.75,16.75,0,0,1,1.89-2.72c1.11-1.49,2-3.15,3-4.68a10.39,10.39,0,0,1,4-3.75,5.09,5.09,0,0,1,5.27.41A4.38,4.38,0,0,1,90.38,260.13Z"/><circle cx="84.43" cy="277.08" r="2.37"/><path d="M395.15,157.18a1.78,1.78,0,1,1-.25-2.5A1.78,1.78,0,0,1,395.15,157.18Z"/><path class="cls-3" d="M397.76,163.07c-.14-2.49,1.29-4.84,1.36-7.33a20.59,20.59,0,0,0-.53-4,6.66,6.66,0,0,1,.28-3.93,3,3,0,0,1,3.22-1.77c1.39.37,2.07,1.92,2.32,3.33a12.8,12.8,0,0,1-.05,4.74c-.39,2-1.27,3.91-1.17,5.94.07,1.45.64,2.86.61,4.32,0,1.65-1.46,3.78-3.31,3.2C398.84,167.09,397.85,164.61,397.76,163.07Z"/><path class="cls-8" d="M404.56,260a21.54,21.54,0,0,0,3.41-2.64,3.62,3.62,0,0,1-.33-.2,3.77,3.77,0,0,1-.74-5.23,3.65,3.65,0,0,1,5.16-.69,4.11,4.11,0,0,1,.3.29,21.79,21.79,0,0,0,1.64-4,2.84,2.84,0,0,1-.41,0,3.76,3.76,0,0,1-3.21-4.17,3.67,3.67,0,0,1,4.1-3.22l.46.11a23.41,23.41,0,0,0-.59-4.37c-.13.07-.26.16-.4.22a3.73,3.73,0,0,1-2.88-6.88,2.88,2.88,0,0,1,.5-.15,22.08,22.08,0,0,0-2.69-3.55,3.57,3.57,0,0,1-.27.45,3.64,3.64,0,0,1-5.15.69,3.77,3.77,0,0,1-.73-5.22,5.14,5.14,0,0,1,.38-.42,22.31,22.31,0,0,0-4.09-1.73,3.51,3.51,0,0,1,0,.56,3.67,3.67,0,0,1-4.1,3.22,3.76,3.76,0,0,1-3.2-4.18,3,3,0,0,1,.13-.59,21.51,21.51,0,0,0-4.41.58,2.36,2.36,0,0,1,.28.52,3.67,3.67,0,1,1-6.76,2.86,3.37,3.37,0,0,1-.19-.59,21.81,21.81,0,0,0-3.5,2.74,2.53,2.53,0,0,1,.49.31,3.75,3.75,0,0,1,.73,5.22,3.64,3.64,0,0,1-5.15.69,4.07,4.07,0,0,1-.43-.4,22.76,22.76,0,0,0-1.65,4.14,3.41,3.41,0,0,1,.55,0,3.76,3.76,0,0,1,3.21,4.17,3.67,3.67,0,0,1-4.1,3.22,4.56,4.56,0,0,1-.53-.13A23,23,0,0,0,371,246c.15-.08.28-.17.44-.24a3.73,3.73,0,0,1,2.88,6.88,2.44,2.44,0,0,1-.46.14,22.11,22.11,0,0,0,2.69,3.5,4,4,0,0,1,.23-.39,3.64,3.64,0,0,1,5.15-.69,3.77,3.77,0,0,1,.73,5.22,3.06,3.06,0,0,1-.3.32,21.92,21.92,0,0,0,4,1.67,2.71,2.71,0,0,1,0-.4,3.67,3.67,0,0,1,4.1-3.22,3.76,3.76,0,0,1,3.2,4.18,1.79,1.79,0,0,1-.09.4,22.34,22.34,0,0,0,4.27-.57,3.47,3.47,0,0,1-.18-.33,3.67,3.67,0,1,1,6.76-2.87A2.91,2.91,0,0,1,404.56,260Zm-6-5.17A15.2,15.2,0,1,1,406.46,235,15,15,0,0,1,398.54,254.81Z"/><path class="cls-8" d="M389.8,223.76a17.27,17.27,0,1,0,19.65,14.29A17.09,17.09,0,0,0,389.8,223.76ZM403.94,239a11.44,11.44,0,1,1-13.2-9.6A11.49,11.49,0,0,1,403.94,239Z"/><path class="cls-9" d="M405.94,238.63a13.46,13.46,0,1,1-15.54-11.3A13.52,13.52,0,0,1,405.94,238.63Z"/><path class="cls-8" d="M437.39,278.87a18.53,18.53,0,0,0,2.79-2.16,2.46,2.46,0,0,1-.27-.17,3.08,3.08,0,0,1-.6-4.27,3,3,0,0,1,4.21-.57,2.85,2.85,0,0,1,.26.23,18.25,18.25,0,0,0,1.34-3.3,1.9,1.9,0,0,1-.34,0,3.06,3.06,0,0,1-2.63-3.41,3,3,0,0,1,3.36-2.63,1.54,1.54,0,0,1,.37.09,18.23,18.23,0,0,0-.48-3.58,3.47,3.47,0,0,1-.33.18,3.05,3.05,0,0,1-2.36-5.63,3.24,3.24,0,0,1,.41-.13,18.53,18.53,0,0,0-2.19-2.9,3.73,3.73,0,0,1-.23.37,3,3,0,0,1-4.21.56,3.08,3.08,0,0,1-.6-4.27,3.47,3.47,0,0,1,.32-.34,18.92,18.92,0,0,0-3.35-1.42c0,.15,0,.3,0,.46a3,3,0,0,1-3.36,2.63,3.06,3.06,0,0,1-2.62-3.41,2.68,2.68,0,0,1,.11-.49,17.87,17.87,0,0,0-3.61.47,2.55,2.55,0,0,1,.23.43,3,3,0,1,1-5.54,2.34,2.9,2.9,0,0,1-.14-.48A17.61,17.61,0,0,0,415,249.7a2.5,2.5,0,0,1,.41.25,3.08,3.08,0,0,1,.6,4.27,3,3,0,0,1-4.22.57,2.73,2.73,0,0,1-.35-.33,18.72,18.72,0,0,0-1.35,3.39,3.39,3.39,0,0,1,.45,0,3.06,3.06,0,0,1,2.62,3.41,2.92,2.92,0,0,1-3.78,2.53,18.69,18.69,0,0,0,.51,3.61l.35-.2a3.05,3.05,0,0,1,2.36,5.63,1.68,1.68,0,0,1-.38.12,18.87,18.87,0,0,0,2.2,2.86,3.21,3.21,0,0,1,.19-.31,3,3,0,0,1,4.22-.57,3.08,3.08,0,0,1,.6,4.27,2.06,2.06,0,0,1-.25.26,18.79,18.79,0,0,0,3.28,1.37c0-.11,0-.22,0-.33a3,3,0,0,1,3.35-2.63,3.07,3.07,0,0,1,2.63,3.41,3.18,3.18,0,0,1-.08.33,18.05,18.05,0,0,0,3.49-.46l-.15-.28a3,3,0,1,1,5.54-2.34A2,2,0,0,1,437.39,278.87Zm-4.93-4.24a12.44,12.44,0,1,1,6.48-16.24A12.29,12.29,0,0,1,432.46,274.63Z"/><path class="cls-8" d="M425.31,249.23a14,14,0,0,0-11.41,16.18A14.12,14.12,0,0,0,430,277.11a14.14,14.14,0,0,0-4.67-27.88Zm11.57,12.43a9.36,9.36,0,1,1-10.8-7.86A9.4,9.4,0,0,1,436.88,261.66Z"/><path class="cls-9" d="M438.52,261.39a11,11,0,1,1-12.72-9.25A11.18,11.18,0,0,1,438.52,261.39Z"/><path class="cls-10" d="M111.82,181.09c0-9.59-11.76-17.36-26.25-17.36s-26.25,7.77-26.25,17.36c0,9,10.24,16.33,23.4,17.27a17.69,17.69,0,0,0,1.51,5.16c1.93,4,6.29,7.34,10.89,6.82-3.62-1.53-5.74-5.34-6.2-9.11a17.63,17.63,0,0,1-.11-2.9C101.78,197.27,111.82,190,111.82,181.09Z"/><path class="cls-3" d="M91.17,180.26h-.1a1.22,1.22,0,0,0,1.23-1.2,1.24,1.24,0,0,0-1.22-1.21c-1,0-3,.35-3.9-.07-1.58-.75-.36-3.41-.34-4.66a2.87,2.87,0,0,0-.25-1.36,1.12,1.12,0,0,0-1.16-.61c-.62.14-.85.87-1,1.48a15.23,15.23,0,0,1-2.25,3.93,10.66,10.66,0,0,0-1.76,4.6,22.9,22.9,0,0,0-.13,4.14c.09,1.37.65,2,2,2l2.78.05,2.18,0,2.79.05a1.21,1.21,0,0,0,1.26-1.15A1.19,1.19,0,0,0,90,185h.48A1.23,1.23,0,0,0,91.78,184a1.24,1.24,0,0,0-.66-1.21,1.19,1.19,0,0,0,1.23-1.18v-.09A1.19,1.19,0,0,0,91.17,180.26Z"/><path class="cls-3" d="M79,179.56l-.85-.22a1.38,1.38,0,0,0-.94,0c-1.14.57-.84,3.44-.84,4.47s-.59,3.47,1,3.62a2,2,0,0,0,1.56-.3,1.94,1.94,0,0,0,.45-1.1,27.25,27.25,0,0,0,.35-3.6c0-.56.14-2.21-.26-2.68a.61.61,0,0,0-.29-.14Z"/><line class="cls-3" x1="85.58" y1="397.19" x2="459.5" y2="397.19"/><path class="cls-11" d="M367.69,134.16a5.73,5.73,0,0,1,.92,2.56,8.36,8.36,0,0,1-.13,2.95c-.33,1.47-1.2,2.75-1.42,4.21a62.55,62.55,0,0,1-1.72,6.59,60.78,60.78,0,0,0-1.48,7.22c-.23,1.63-.41,5.38-2.59,5.65-1.62.2-3.44.12-4.63-1a4.51,4.51,0,0,1-1.24-3.45,13,13,0,0,1,.84-3.68c.33-1,.66-2,1-3a6.82,6.82,0,0,0,.38-1.51,7.51,7.51,0,0,0-.16-1.89,20.24,20.24,0,0,1-.33-5.54,8.75,8.75,0,0,1,2.14-5,4.07,4.07,0,0,0,1-1.21,11.48,11.48,0,0,1,1.9-3.08,3.91,3.91,0,0,1,3.24-1.32,3.49,3.49,0,0,1,2.28,1.48Z"/><path class="cls-11" d="M365.54,132.72a20.49,20.49,0,0,1-.17,6.8"/><path class="cls-11" d="M364.16,131.33a30.8,30.8,0,0,1-.66,8"/><path class="cls-11" d="M362.22,131.17a35.51,35.51,0,0,1-.71,8.41"/><path class="cls-3" d="M363,156.49l-.16,1.26"/><path class="cls-11" d="M255.15,377.55a1.8,1.8,0,0,1-.42.81,2.1,2.1,0,0,1-1,.42q-4.58,1.05-9.23,1.65c1.24-9.93.38-20,1.75-29.83a21.85,21.85,0,0,1,2.15-7.55,9.46,9.46,0,0,1,5.9-4.87,6.12,6.12,0,0,1,6.75,2.83,9.55,9.55,0,0,1,.53,5.23A155.61,155.61,0,0,1,255.15,377.55Z"/><path class="cls-12" d="M256,377.41a21.42,21.42,0,0,1-4.57.27,17.35,17.35,0,0,1-6.79-1.46,28.51,28.51,0,0,1-2.44,1.72l-8.91,3.85a31.87,31.87,0,0,0-6.44,3.38,2.57,2.57,0,0,0-1.09,1.33c-.6,2.45,5.42,1.7,6.63,1.69,3.25,0,6.46-.35,9.7-.39,2.73,0,5.48.05,8.2-.1,1.63-.08,4.21.66,5.41-.62.94-1,.88-3,.62-4.23A23.11,23.11,0,0,1,256,377.41Z"/><path class="cls-11" d="M294.28,378.76a1.52,1.52,0,0,0,.26.79,1.65,1.65,0,0,0,.91.4,87.88,87.88,0,0,0,8.95,1.47c.9.1,1.32-33.39,1-36.25a17.12,17.12,0,0,0-.84-4,3.65,3.65,0,0,0-.94-1.51,3.2,3.2,0,0,0-1.71-.69,6.22,6.22,0,0,0-4.66,1.61,12.6,12.6,0,0,0-2.94,4.09,26.78,26.78,0,0,0-2.11,17.15C293.34,367.38,293.6,373,294.28,378.76Z"/><path class="cls-11" d="M292.3,153.14c0,.22-.06.44-.1.65-.54,3.35.75,6.84.08,10.3-.47,2.46-2.56,7.33-5.57,7.65-.77.08-1.53-.93-2-1.45a11.72,11.72,0,0,1-2.76-5.93,17.22,17.22,0,0,1,.07-3.21c.13-1.53.27-3.07.4-4.6a17.32,17.32,0,0,1,.28-2.15,7.5,7.5,0,0,1,1.7-3.47c1.79-2,4.4-2.18,6.93-2.23a1.51,1.51,0,0,1,.84.16c.46.3.46,1,.41,1.51C292.53,151.3,292.43,152.23,292.3,153.14Z"/><path class="cls-12" d="M286.4,156.52c1.6.48,5.77,1.13,5.77,1.13a30.13,30.13,0,0,1-.09-3.15c0-.11.11-.81.2-1.43a5.94,5.94,0,0,1,.2-1,2.73,2.73,0,0,1-1.05-.52c-.17-.16-.29-.37-.47-.53a4.08,4.08,0,0,0-4.24-.72,5,5,0,0,0-2.08,1.61,6.81,6.81,0,0,0-.82,1.37,5.76,5.76,0,0,0-.58,1.74l-.05.4C284.25,155.82,285.32,156.19,286.4,156.52Z"/><path class="cls-11" d="M282.55,139.86c.95.09,2-2.4,2.9-2.16s2.63.24,3.48.43c1.42.32,2.43,3.73,3.43,4.77s1,2.84.88,4.32a33.43,33.43,0,0,1-.69,4.22,6.72,6.72,0,0,1-4,4.95,7.9,7.9,0,0,1-4.82.46c-2.37-.57-3.65-2.54-4.05-5.31-.07-.5-.09-2.11-.1-2.62a36.83,36.83,0,0,1,.49-4.54,12.83,12.83,0,0,1,.87-4,1.12,1.12,0,0,1,.3-.44,1.17,1.17,0,0,1,.79-.14Z"/><path class="cls-12" d="M282.23,137.18c.16,0,.56-.39.71-.48a8,8,0,0,1,.82-.43,9.06,9.06,0,0,1,1.62-.54,10.41,10.41,0,0,1,3.65-.13,7.57,7.57,0,0,1,3.13.73,6.38,6.38,0,0,1,3,4c.56,2.15,0,4.42-.43,6.54-.23,1-.7,2.17-1.86,2.39-1.53.28-1.91-1.59-1.84-2.67a9.4,9.4,0,0,0-.41-4,2.48,2.48,0,0,0-2.89-1.61c-.35.09-.68.26-1,.32a5.78,5.78,0,0,1-2.91-.31,3.49,3.49,0,0,0-1.9-.49,2.07,2.07,0,0,0-1.21.93c-.24.35-.76.77-1,.22-.2-.39.1-1.07.22-1.45a6.19,6.19,0,0,1,2-2.74Z"/><path class="cls-12" d="M279.43,147.44a.81.81,0,0,0,.1.31c.64-.8.55-2.6.73-3.6s.36-3,1.48-3.38a3.53,3.53,0,0,1,1.08-.15,2,2,0,0,0,.82-.11.66.66,0,0,0,.43-.66.91.91,0,0,0-.36-.51c-.29-.24-.59-.43-.9-.64s-.52-.47-.82-.63a.74.74,0,0,0-.69,0,1.12,1.12,0,0,0-.22.16c-1.89,1.72-1.94,4.08-1.79,6.45A23.93,23.93,0,0,0,279.43,147.44Z"/><path class="cls-11" d="M291.41,150.41a2.49,2.49,0,0,0,1.76.09,2.37,2.37,0,0,0,1.08-3.45,2.08,2.08,0,0,0-1.77-.78,2.16,2.16,0,0,0-1.65,1"/><path class="cls-13" d="M311.42,281.44c.34-12.21.6-24-1.33-36.14-.83-5.21-5.13-23.15-11.65-24.13a2.63,2.63,0,0,0-1,0,15,15,0,0,0-2-5.11,21.88,21.88,0,0,0-13.3-9.16c-5.86-1.39-13-.59-15.58,6.17-1.32,3.46-1,7-2.59,10.32-4.44,9.45-5,18.84-6.34,29.24q-2.34,18.45-4.87,36.86-4.8,35-10.28,69.89a59.6,59.6,0,0,0,7.35,1.32,56.39,56.39,0,0,0,12.92-.13q6.3-31.74,13.45-63.28c2.39-10.53,4.4-20.82,6.87-30.8,1.68,16.31,3.13,32.66,4.14,49q.78,12.51,1.18,25.05c.22,6.93,1.52,14.46,1.24,21.25,4.93.87,10.82.07,15.88-.29.58,0,4.9-.61,4.95-1.15,1.33-14.66,1.28-26.44,1.58-41.84C312.26,307,311.11,292.78,311.42,281.44Z"/><g class="cls-14"><path d="M320.78,353.29a27.38,27.38,0,0,0-5,.71c-1.73.28-3.47.53-5.21.75q-4.95.62-9.93,1c-3.32.25-6.64.38-10,.49q-2.49.09-5,.12c-1.78,0-3.57.11-5.34,0-.57,0-.56.86,0,.88,1.78.08,3.55.3,5.34.38s3.32.11,5,.14c3.38,0,6.77-.1,10.15-.3s6.74-.51,10.1-.91c1.62-.2,3.23-.41,4.84-.65a23,23,0,0,0,5.24-1A.84.84,0,0,0,320.78,353.29Z"/><path d="M324.05,350c-1.77-.26-3.75.32-5.51.54s-3.55.42-5.33.6q-5.34.54-10.69.83c-7.26.37-14.53.26-21.79.3-.46,0-.43.64,0,.69a132.16,132.16,0,0,0,22,.67c3.63-.15,7.25-.37,10.87-.73,1.78-.17,3.55-.37,5.32-.59s3.76-.22,5.33-1A.74.74,0,0,0,324.05,350Z"/><path d="M272,355.71a4.29,4.29,0,0,0-2.14-.27h-2.14c-1.49,0-3-.05-4.47-.1-3-.1-6.07-.26-9.1-.5a181.6,181.6,0,0,1-18.31-2.11c-.49-.09-.71.66-.21.76,6,1.1,12.05,2.22,18.17,2.81q4.62.45,9.27.68c1.55.08,3.1.14,4.65.17l2.14,0a4.19,4.19,0,0,0,2.14-.26A.71.71,0,0,0,272,355.71Z"/><path d="M270.76,350.7a17,17,0,0,0-4.15,0c-1.42.05-2.85.08-4.27.08q-4.27,0-8.54-.18c-2.85-.13-5.69-.36-8.52-.61-1.36-.12-2.71-.28-4.06-.41-1.56-.16-3.11-.21-4.65-.47-.49-.09-.71.67-.21.76,1.46.25,2.88.63,4.34.92s2.8.46,4.2.66c2.84.39,5.69.66,8.54.86s5.69.31,8.54.33c1.43,0,2.85,0,4.28,0l2.31-.06a7.65,7.65,0,0,0,2.19-.21A.88.88,0,0,0,270.76,350.7Z"/><path d="M292.33,301.75a12.79,12.79,0,0,0-.11,1.52c-.07,3,1.87,8.23,5.65,7.91,2-.17,3.33-2,4.12-3.82a10.65,10.65,0,0,0,1-5.94,5.74,5.74,0,0,0-5.13-4.67,5.29,5.29,0,0,0-4.85,2.79A6.81,6.81,0,0,0,292.33,301.75Z"/><path d="M254.07,305c-.12,2.44,1.2,5.14,3.57,5.75a5.86,5.86,0,0,0,5.13-1.61,8.48,8.48,0,0,0,2.91-7.76c-.51-2.59-2.38-5-5.16-5.18C256,295.9,254.26,301.31,254.07,305Z"/></g><path class="cls-11" d="M282.36,151.09a2.4,2.4,0,0,0,4.79.14Z"/><path class="cls-15" d="M241.89,201.24c-1.11,2-1.71,4.23-2.78,6.21s-2.65,4-2,6.37a8,8,0,0,0,1.44,2.49,4.69,4.69,0,0,0,1.77,1.66,4.25,4.25,0,0,0,2.57,0c7.76-1.73,14-7.61,16.93-14.86.38-.92.88-1.72,1.24-2.63a10.45,10.45,0,0,0,1.07-2.75c-.19,5.6-1.36,11-1.76,16.61q-.75,10.58-2.26,21.07c.11-.76,9.86,1.56,10.9,1.72a113.82,113.82,0,0,0,13.79,1.16c2.25.07,27-.83,26.91-1.25a80.61,80.61,0,0,1-1.09-8.76q-.37-9.85-.73-19.72c-.3-7.88,1.07-15.67,1.79-23.49a32.72,32.72,0,0,0-2.51-16,17.82,17.82,0,0,0-4.54-6.32c-1.21-1.06-2.44-.91-4-1l-6.05-.33a5.54,5.54,0,0,1-.62,3.67c-1,1.84-2.1,3-4.2,3a6.5,6.5,0,0,1-5.49-3.05,4.26,4.26,0,0,1-.33-3.26,35.88,35.88,0,0,0-11.36,1.2c-8,2.47-13.93,8.65-17.65,15.92S245.92,194,241.89,201.24Z"/><path class="cls-12" d="M292.65,386.58l0,.1a1,1,0,0,0,.32.7,1.06,1.06,0,0,0,.53.12c7.21.31,14.32.61,21.53.81,1.64.05,8.52.06,9-2.27a1.63,1.63,0,0,0-.6-1.49,4.89,4.89,0,0,0-1.48-.78c-3.26-1.25-7-2-10.06-3.54-1.15-.57-2.24-1.39-3.4-2-.62-.33-3.17-2.3-3.74-2.18a30.56,30.56,0,0,1-11.22.77A20.69,20.69,0,0,0,292.65,386.58Z"/><path class="cls-15" d="M301.67,183c13.49.65,24.6,7.14,38.07,7.12,4.36,0,8.87-.2,12.81-2.08,5.89-2.79,9.49-8.81,12.28-14.69a125.82,125.82,0,0,0,7.54-20.23,53.68,53.68,0,0,1-20.24-2.75,55.15,55.15,0,0,1-8.33,14.93,12.21,12.21,0,0,1-3.65,3.44c-9.68,5.21-28.08-5.81-38.32-6.8q-3.52-.34-7.05-.45"/><path class="cls-16" d="M283.06,266.53c-.16-7.9-.38-15.93-1.29-24.46"/><path class="cls-17" d="M262.07,197.55a63.08,63.08,0,0,1,1.79-9.24"/><path class="cls-3" d="M295.7,235.9a25.07,25.07,0,0,0,6.06-.17"/><path class="cls-3" d="M303.27,235.5l2-.25"/><path class="cls-3" d="M291.56,236l1.64.12"/><path class="cls-3" d="M297.23,234.6a20.32,20.32,0,0,0,6.55-.45"/><path class="cls-3" d="M256.84,205.94a24,24,0,0,1-2.9,4.39"/><path class="cls-3" d="M242.32,204.11a7.94,7.94,0,0,0-2.41-.53,5,5,0,0,1,1.4,2.45"/><path class="cls-3" d="M280.48,165.59a5.18,5.18,0,0,0,3.14,3.3"/><path class="cls-3" d="M285.13,169.39l2,.14"/><path class="cls-3" d="M293.32,147.7a2.77,2.77,0,0,0-1.63.4"/><path class="cls-3" d="M305.16,304.24a27.46,27.46,0,0,1-4,7.62"/><path class="cls-13" d="M223.42,234.36c-3.71,0-7.75,5.2-9.78,8a2.51,2.51,0,0,1-2.69,1V219.29h-23.7a2.57,2.57,0,0,1,1-1.57,11.34,11.34,0,1,0-13.3,0,2.66,2.66,0,0,1,1,1.6h-23.6v59.52H211V254.7a2.48,2.48,0,0,1,2.69,1,11.08,11.08,0,0,0,9.05,4.68c5.85,0,13.55-4.78,13.86-10.72C236.89,243.12,229.78,234.36,223.42,234.36Z"/><path class="cls-18" d="M379.8,299.42c-.79-3.26-4.63-10.35-8.57-10.85-3.62-.45-6.16,4.41-8.33,6.59a23.81,23.81,0,0,1-9.27,6.22,26.08,26.08,0,0,1-7.2,1.12,47.86,47.86,0,0,1-23.28-4.7,36.88,36.88,0,0,1-12.33-9.95c-.48-.61-.93-1.24-1.37-1.89-3,1.58-5.85,3.24-8.7,5a70.58,70.58,0,0,0,9.24,11.8c9.09,9,22.15,14.08,35.22,14.15,10.67.06,22.21-3.11,30.86-9.24C379.13,305.48,380.7,303.13,379.8,299.42Z"/><path class="cls-19" d="M210.78,337.5v24.11l.15,0a2.35,2.35,0,0,0,2.52-.95,11.33,11.33,0,1,1,0,13.15,2.5,2.5,0,0,0-2.68-.94h0V397H176.06a24.8,24.8,0,0,1-24.8-24.8V337.5Z"/><path class="cls-19" d="M269.19,277.81H293.3a2.65,2.65,0,0,0-1-2.78,11.56,11.56,0,0,1,6-20.83,11.42,11.42,0,0,1,12,11.51A11.55,11.55,0,0,1,305.6,275a2.63,2.63,0,0,0-1,2.78h24.11v60.5H269.19Z"/><path class="cls-20" d="M151.8,278.28l24.11.05h0a2.59,2.59,0,0,0-1-2.74,11.3,11.3,0,0,1-4.67-9.21,11.34,11.34,0,0,1,22.68.07,11.28,11.28,0,0,1-4.71,9.16,2.57,2.57,0,0,0-1,2.74l24.11,0,0,24.11-.19,0a2.83,2.83,0,0,1-.58,0h-.05a2.59,2.59,0,0,1-1.91-1.07h0l-.06-.08-.34-.44c-.07-.09-.15-.17-.23-.26a6.56,6.56,0,0,0-.41-.45l-.24-.26-.23-.21-.26-.23-.24-.2-.26-.22L206,299a2.83,2.83,0,0,0-.28-.2l-.27-.18-.28-.18-.3-.16-.28-.16-.3-.15-.29-.14-.32-.13-.3-.13-.32-.11-.31-.11-.32-.09-.33-.09-.32-.07-.35-.08-.33-.05-.35-.05c-.11,0-.23,0-.34,0l-.35,0h-.75a11.43,11.43,0,0,0-11.16,9.59v0c-.05.35-.09.7-.11,1.05v0c0,.12,0,.23,0,.34s0,.18,0,.27,0,.18,0,.26,0,.23,0,.34v0a8.94,8.94,0,0,0,.11,1v0a11.42,11.42,0,0,0,11.13,9.63H200l.35,0,.34,0,.35-.06.33-.05.35-.07.32-.07.33-.09.32-.09.31-.11.32-.11.3-.12.32-.13.29-.14.31-.15.28-.16a2.69,2.69,0,0,0,.29-.16l.28-.18c.09-.06.19-.11.28-.18l.28-.2.25-.18.26-.21.25-.21.26-.23.23-.21.24-.25.22-.22c.07-.07.13-.15.2-.23s.15-.17.23-.26.23-.29.33-.44l.07-.08h0a2.6,2.6,0,0,1,1.91-1.08h0a2.83,2.83,0,0,1,.58,0l.19,0,0,24.11-24.11,0a2.54,2.54,0,0,0,1,2.73,11.34,11.34,0,1,1-13.31,0,2.56,2.56,0,0,0,1-2.73h0l-24.11-.05Z"/><path class="cls-21" d="M211.13,337.78V313.67h0a2.47,2.47,0,0,0-2.68,1,11.08,11.08,0,0,1-9.06,4.68,11.34,11.34,0,0,1,0-22.67,11.08,11.08,0,0,1,9,4.69,2.5,2.5,0,0,0,2.68,1V278.26h58.55v24.11a2.52,2.52,0,0,0,2.69-1,11,11,0,0,1,9-4.69,11.34,11.34,0,0,1,0,22.67,11.07,11.07,0,0,1-9.05-4.68,2.49,2.49,0,0,0-2.69-1h0v24.11Z"/><path class="cls-13" d="M222.26,355.92a11.31,11.31,0,0,0-9.2,4.69,2.56,2.56,0,0,1-2.74,1h0V337.5h24.11a2.54,2.54,0,0,0-1-2.73,11.34,11.34,0,1,1,13.3,0,2.57,2.57,0,0,0-1,2.73h24.11V397H210.32V372.91a2.59,2.59,0,0,1,2.74,1,11.33,11.33,0,0,0,20.49-7.26A11.43,11.43,0,0,0,222.26,355.92Z"/><path class="cls-20" d="M257.28,355.92a11.28,11.28,0,0,1,9.17,4.69,2.56,2.56,0,0,0,2.74,1V337.5H293.3a4.41,4.41,0,0,0-1.44-3.06,11.34,11.34,0,1,1,13.74.33,2.55,2.55,0,0,0-1,2.73h24.11v34.72a24.8,24.8,0,0,1-24.8,24.8H269.19V372.91a2.57,2.57,0,0,0-2.73,1,11.33,11.33,0,1,1-9.18-18Z"/><path class="cls-19" d="M234.29,249.37v0c0-.11,0-.22,0-.33s0-.18,0-.27,0-.17,0-.26,0-.22,0-.34v0c0-.35-.06-.7-.11-1v0A11.41,11.41,0,0,0,223,237.51h-.75l-.35,0-.34,0-.35,0-.33.05-.35.08-.32.07-.33.09-.32.09-.31.11-.32.1-.3.13-.32.13-.29.14-.3.14-.29.16-.29.16-.28.18-.28.17-.28.21c-.08.06-.17.11-.25.18s-.17.14-.26.21l-.25.2a2.73,2.73,0,0,0-.25.23l-.23.21a3,3,0,0,0-.25.25l-.21.21c-.07.08-.13.16-.2.23l-.23.27c-.12.14-.23.28-.34.43l-.06.08h0a2.62,2.62,0,0,1-1.91,1.07h0a2.83,2.83,0,0,1-.58,0l-.2,0V219.26h24.12a2.54,2.54,0,0,0-1-2.71,11.18,11.18,0,0,1-4.69-9.12,11.34,11.34,0,0,1,22.67,0,11.19,11.19,0,0,1-4.68,9.09,2.51,2.51,0,0,0-1,2.71h24.11v23.88l-.2,0a2.83,2.83,0,0,1-.58,0h-.05a2.64,2.64,0,0,1-1.91-1.07h0l-.06-.08c-.11-.15-.22-.29-.34-.43l-.23-.27-.2-.23-.21-.21a3,3,0,0,0-.25-.25l-.22-.21-.26-.23-.25-.2a2.65,2.65,0,0,0-.26-.21c-.08-.07-.17-.12-.25-.18l-.28-.21-.28-.17-.28-.18-.29-.16-.28-.16-.31-.14-.29-.14-.32-.13-.3-.13-.31-.1-.32-.11-.32-.09-.33-.09-.32-.07-.35-.08-.33-.05-.35,0-.34,0-.35,0h-.75A11.39,11.39,0,0,0,247.48,247v0c-.05.34-.09.69-.11,1v0c0,.12,0,.23,0,.34V249c0,.11,0,.22,0,.33v0c0,.35.06.7.11,1v0A11.39,11.39,0,0,0,258.62,260h.75c.12,0,.24,0,.35,0l.34,0,.35-.05.33,0,.35-.08.32-.06.33-.1.32-.08.32-.11.31-.11.3-.12.32-.13.29-.14.31-.15.28-.16a2.69,2.69,0,0,0,.29-.16l.28-.18L265,258l.28-.2.25-.18a2.75,2.75,0,0,0,.26-.22,2.43,2.43,0,0,0,.25-.2l.26-.23.22-.2.25-.25.21-.22c.07-.08.14-.15.2-.23s.16-.17.23-.26.23-.29.34-.44l.06-.08h0a2.59,2.59,0,0,1,1.91-1.06h.05a2.83,2.83,0,0,1,.58,0l.2,0v23.89H246.48a2.5,2.5,0,0,0,1,2.7,11.22,11.22,0,0,1-7.27,20.31,11.36,11.36,0,0,1-10.72-11.19,11.18,11.18,0,0,1,4.69-9.12,2.53,2.53,0,0,0,1-2.7H211.06V254.34l.2,0a2.83,2.83,0,0,1,.58,0h0a2.58,2.58,0,0,1,1.91,1.06h0l.06.08c.11.15.22.3.34.44s.15.17.23.26l.2.23.21.22.25.25.23.2a2.73,2.73,0,0,0,.25.23l.25.2.26.22.25.18a2.83,2.83,0,0,1,.28.2l.28.17.28.18.29.16.29.16.3.15.29.14.32.13.3.12.32.11.31.11.32.08.33.1.32.06.35.08.33,0,.35.05.34,0c.12,0,.23,0,.35,0H223a11.41,11.41,0,0,0,11.15-9.52v0C234.23,250.07,234.27,249.72,234.29,249.37Z"/><path d="M353.55,397.79a5.8,5.8,0,0,0,.11-2.65c-.76-5.07-1-10.9-2.36-15.67-.64-2.2-2.43-1.07-4.35-.66-2.23.47-4.65,1.2-6.79,1.11a6.05,6.05,0,0,1,.95,1.92l1,4.59a4.76,4.76,0,0,1-.08,3.2A4,4,0,0,1,340,391.4c-2.88,1.26-5.79.54-8.72,1-2.55.39-4.89,3.15-4.24,5.39Z"/><path d="M448.11,387.52c1.28,1.22,3.73,2.66,3,4.72-.65,1.77-3.12,2.43-3.67,4.39-.11.37-.09.86.26,1a.91.91,0,0,0,.52.08c2,0,6.16.11,7.8-1.22,1.46-1.17,2-4.37,2-6.09a37.64,37.64,0,0,0-2.1-11.31c-.47-1.42-1.2-4.6-2.59-5.42-1.18-.69-3.57.63-4.68,1.13a91,91,0,0,0-8.82,4.59c-1.12.67-2.32,1.48-2.63,2.74a4.11,4.11,0,0,0,0,1.78c.29,1.56,1,3.76,2.6,4.38,2.74,1.05,5.07-2.68,7.23-1.71a2.26,2.26,0,0,1,.65.5Z"/><path class="cls-13" d="M402.82,335.73a14.78,14.78,0,0,0-.11-3.76,10.88,10.88,0,0,0-3.17-6.46,14,14,0,0,0-5.3-2.66c-5-1.6-9.94-2-15-2.83-4.09-.69-8.19-1.35-12.32-1.77-3.63-.38-7.33-.91-11-1l-4.75-.13c-6.48-.16-11,3.6-13.08,9.83a30.67,30.67,0,0,0-1.16,9.11,282.28,282.28,0,0,0,3.59,51.45c.08.48,17.88-1.91,19.36-2.53q-.17-11.75-.95-23.48c-.06-1-1-18.86-.86-18.84,8.9,1,24.1,6.66,33,7.68,4.79.56,3.81-3.64,7.64-6.56A11.34,11.34,0,0,0,402.82,335.73Z"/><path class="cls-11" d="M345.75,264.55l0,0c-1.07.9-2.39,2-2.49,3.4-.16,2.31,1,4.74,2,6.78a11.38,11.38,0,0,0,4.16,4.67c1.62,1,4.19,1.44,5.9.45a.6.6,0,0,1,.22-.09.55.55,0,0,1,.22.06,10.49,10.49,0,0,1,3.33,2.33,54.3,54.3,0,0,1,5.67,7c2.81-1,6.94-4.62,8.82-6.91-4.34-6.77-10.39-10.6-15.73-16.61A8.52,8.52,0,0,0,345.75,264.55Z"/><path class="cls-13" d="M444.21,375.15l-17.62.8c-5.94.27-12,1-17.94,1.27l-2.61.08q3.78-7.56,7.36-15.2a79.53,79.53,0,0,0,5.73-14.88,39,39,0,0,0-.28-20,42.08,42.08,0,0,0-4.05-9.37c-.6-1-1.67-3.57-2.73-4.12s-3.87.24-5.16.43c-10.61,1.55-21.35,3.14-31.24,7.29.43-.18,3.81,3.82,4.41,4.4a52.34,52.34,0,0,1,5.52,7c2.34,3.22,2,6.58,1.71,10.43-.72,10.84-2.82,21.53-4.18,32.29-.46,3.59-1.31,10.18-.47,13.69,2.65,11.1,29,8.53,38.37,8,12.69-.66,19.3-2.17,22-3A140.31,140.31,0,0,0,444.21,375.15Z"/><path class="cls-11" d="M332.37,327.52a9.13,9.13,0,0,0-1.28-.29,32.62,32.62,0,0,0-10.43.36,10.48,10.48,0,0,1-6.92-1.17c-1.88-.94-3.81-2-5.91-2.07a.57.57,0,0,0-.29,0c-.28.11-.3.53-.11.77a1.63,1.63,0,0,0,.76.45c.68.27,1.92.87,2.12,1.66s-.55.58-1.15.58c-.79,0-1.58,0-2.37-.07a14,14,0,0,0-4.33.09,3.73,3.73,0,0,0-2.9,2.89,3.6,3.6,0,0,0,2.09,3.35,10.42,10.42,0,0,0,4.07.91c2,.18,4.07.51,6.09.59a26.57,26.57,0,0,0,7.91-1.19,63.13,63.13,0,0,1,7.93-1.67,20.75,20.75,0,0,0,3.32-.66,9.73,9.73,0,0,0,2.7-1.34,1.92,1.92,0,0,0,.78-.87,1.63,1.63,0,0,0-.69-1.65A4.23,4.23,0,0,0,332.37,327.52Z"/><path class="cls-15" d="M391.88,324.78c3.43-1.16,6.76-2.6,10.21-3.69a45.45,45.45,0,0,1,7.91-1.68,38.27,38.27,0,0,1,5.94-.4q-2.71-4.72-5.44-9.46c-.71-1.21-1.41-2.43-2.21-3.59a45,45,0,0,0-4.83-5.59q-7.26-7.44-15.2-14.17c-5-4.22-9.93-9-16.26-10.88a6.54,6.54,0,0,0-4.79.07,8.25,8.25,0,0,0-2.74,2.74c-1.85,2.58-4.44,5.42-5.7,8.33-1,2.32-.54,5.35,0,7.74.85,3.55,2.75,6.84,4.59,10a69.78,69.78,0,0,0,6.88,9.56c3.7,4.41,7.77,8.54,11.67,12.8A25.86,25.86,0,0,0,391.88,324.78Z"/><path class="cls-12" d="M368.8,274.22a8.85,8.85,0,0,0,2.46-3.84,11.48,11.48,0,0,0,.36-7.54,10,10,0,0,0-2.66-4.5,6.93,6.93,0,0,0-4.78-1.93c-1.7,0-3.3.77-5,1.12-4.16.89-8.63-.37-12.3,2.21a18,18,0,0,0-3.29,3.12c-1.27,1.47-3.38,2.7-3.61,4.8-.21,1.89,1.44,3.46,3.19,3.87s3.72-2,5.48-2.29a4.66,4.66,0,0,1,3.05.55,1.65,1.65,0,0,0,1.81,0c1-.54,1.67-2,3-1.74,1.48.32,2.34,1.83,3.18,2.94a13.09,13.09,0,0,0,3.38,3.38,5.29,5.29,0,0,0,4,.6A4.65,4.65,0,0,0,368.8,274.22Z"/><path class="cls-12" d="M355.51,280a2.5,2.5,0,0,1,1.53.56.69.69,0,0,1,.13.11c.17-.56.42-1.19.46-1.34a21.55,21.55,0,0,0,.55-3l-.54.8a6.44,6.44,0,0,1-3.37,3l.29.12A2.2,2.2,0,0,1,355.51,280Z"/><path class="cls-15" d="M374.15,290.28a12.06,12.06,0,0,0-2.38-3.63,10,10,0,0,0-5.08-3.32,5.69,5.69,0,0,0-5.64,1.49c-1.09,1.2-2.36,1.82-2.61,3.27-1,5.68-1.18,12.25-3.16,17.57-.8,2.14-1.21,3.87-2.64,5.65a26.41,26.41,0,0,1-6.18,5.44,33.52,33.52,0,0,1-5.2,2.87c-7.53,3.23-15.52,4.91-23.62,6.22.16,4.3.13,6.3,0,10.6,1.49-.14,3-.25,4.49-.43,11.34-1.34,22.12-.37,32-6.52,7.74-4.81,13.3-11.13,17.77-19.2C375.35,304.09,376.67,297.15,374.15,290.28Z"/><path class="cls-17" d="M350.9,276.33a2.57,2.57,0,0,1-.28,1.34,1.58,1.58,0,0,1-1.07.82"/><path class="cls-17" d="M386.46,352.58a102.83,102.83,0,0,0,2.83-20.06"/><path class="cls-17" d="M358,343.4a59.28,59.28,0,0,0-2.93-7.64"/><path class="cls-17" d="M370.37,313.65c3.19-4.88,4.65-10.66,6.05-16.32"/><path class="cls-17" d="M406,377.47a42.54,42.54,0,0,0-4.13,3.44"/><path class="cls-11" d="M354.72,269.27a3.24,3.24,0,0,1,1.06-2.73c1.34-.89,3.78-.22,4.24,1.37a2.63,2.63,0,0,1-1.66,3.1"/><path class="cls-11" d="M357.13,267.35a1.74,1.74,0,0,0-1.2,2.27"/><path class="cls-17" d="M356.76,300.37a26,26,0,0,1-9.7,16.14"/><path class="cls-17" d="M348.27,330.09a17.93,17.93,0,0,0,8.79-5"/><path class="cls-17" d="M358.19,324.05l2.22-2.3"/><path class="cls-17" d="M417.44,344.79a20.14,20.14,0,0,1-2,6.84"/><path class="cls-17" d="M414.85,353.84l-1.42,3.49"/><path class="cls-17" d="M432.41,377.19q4.2-.12,8.39-.4"/><path class="cls-17" d="M357.63,368.43c.05,3.57.09,7.14.14,10.72"/><path class="cls-17" d="M356.2,376.82c-.09,1.08-.18,2.16-.26,3.23"/><path class="cls-17" d="M358.52,270.91v1.81"/><path class="cls-17" d="M405.84,305.37q1.73,2.75,3.32,5.58"/><path class="cls-17" d="M410.07,313.14a6.21,6.21,0,0,1,.89,1.69"/><path class="cls-12" d="M371.71,315.51a1.14,1.14,0,0,0,.76.38,1,1,0,0,0,.74-.54c.81-1.35.05-3.33,1.08-4.52a4.45,4.45,0,0,0,.69-.75,2,2,0,0,0,.16-1.17,15.94,15.94,0,0,0-.9-4.27,8.42,8.42,0,0,1-.92,2.82L372.14,310c-.48,1-1.11,1.93-1.65,2.91S370.87,314.76,371.71,315.51Z"/><g class="cls-22"><path class="cls-12" d="M404.82,378.26,403,379.73a3.78,3.78,0,0,0-.73.65c-.1.14-.2.33.07.22s.6-.23.91-.32a7.06,7.06,0,0,1,1.89-.25,2.22,2.22,0,0,1,.68.08,2.38,2.38,0,0,0,.45.15,1,1,0,0,0,.51-.05,1.75,1.75,0,0,0,.6-.36c.12-.11.22-.25.35-.35a1.87,1.87,0,0,1,1.09-.33A3.66,3.66,0,0,0,410,379a1.63,1.63,0,0,0,.87-.86,1.92,1.92,0,0,0,.07-1.23,1.63,1.63,0,0,0-.39-.69,2,2,0,0,0-1.61-.42,4.58,4.58,0,0,0-2.25.87C406,377.16,405.45,377.73,404.82,378.26Z"/></g><path class="cls-3" d="M325.57,367.68a25.85,25.85,0,0,1-2.21,13.49"/><path class="cls-3" d="M322.36,383a9.58,9.58,0,0,1-2.9,3.6"/><path class="cls-3" d="M248.74,369.44a6.94,6.94,0,0,0,2.71,4.54"/><path class="cls-3" d="M271.07,376.1q.06,4.09-.07,8.18"/><path class="cls-3" d="M271.08,386.9a22.78,22.78,0,0,1-.09,2.86"/><path class="cls-3" d="M208.77,380.06a81.26,81.26,0,0,1,0,8.69"/><path class="cls-3" d="M154.83,301.75q-.11,5.07-.6,10.12"/><path class="cls-3" d="M154.23,314.23a37.23,37.23,0,0,1-.16,4.72"/><path class="cls-3" d="M156.08,306.05l-.17,3.88"/><path class="cls-3" d="M196,262c-.15,1.47.06,3,0,4.44a12.06,12.06,0,0,1-2.26,6.52"/><path class="cls-3" d="M192.84,274.09a7.43,7.43,0,0,1-2,1.93"/><path class="cls-3" d="M215.17,287.16l-.34,11.47"/><path class="cls-3" d="M266.11,287l-.33,6.4"/><path class="cls-3" d="M265.77,295.43l-.17,3.2"/><path class="cls-11" d="M300.31,329.22c2.2-.14,4.4.45,6.61.36"/><path class="cls-11" d="M299.8,330.67c2.29.38,4.6.68,6.91.89"/><path class="cls-11" d="M300.2,332.48c2.35.17,4.69,1.08,7,.61"/><path class="cls-17" d="M268.4,223v9.49"/><path class="cls-21" d="M348.43,116.63h0l-.34-.07-.26,0-.27,0-.34,0h0c-.36,0-.71-.06-1.07-.07h0a11.58,11.58,0,0,0-11.46,9.5v0c0,.12,0,.24,0,.36s0,.23-.05.34l0,.36,0,.35v.35c0,.11,0,.23,0,.34s0,.24,0,.36,0,.22,0,.33,0,.23,0,.35,0,.22,0,.33,0,.22.05.33l.06.34c0,.1.05.21.07.32s.05.22.08.33l.09.32c0,.11.06.22.1.33s.07.2.11.31.07.21.11.32.09.2.13.31.09.2.13.3.11.21.16.32.09.19.14.28.11.2.17.3l.16.28.19.29c.06.09.11.18.17.26l.21.29.18.25.2.24.23.27.37.41.08.08h0a2.64,2.64,0,0,1,.75,2.08V138a3,3,0,0,1-.15.57l-.06.18-24.05-4,4.05-24.05h0a2.62,2.62,0,0,0-2.9.54,11.42,11.42,0,0,1-10,3.13,11.47,11.47,0,1,1,12.2-16.4,2.59,2.59,0,0,0,2.56,1.46l4-24,24.05,4v.2a2.88,2.88,0,0,1-.05.59l0,0a2.63,2.63,0,0,1-1.39,1.72h0a.31.31,0,0,1-.1,0l-.49.26-.3.19-.27.16-.25.18-.29.2-.25.19-.28.22-.24.21-.26.22-.22.22-.25.25c-.08.08-.15.17-.22.25a2.73,2.73,0,0,0-.23.25l-.21.26-.21.26-.2.28-.19.26-.18.3a2.61,2.61,0,0,0-.17.28c-.06.09-.11.19-.17.29l-.16.3-.14.3-.15.32-.12.31c-.05.11-.09.22-.13.33a3,3,0,0,0-.11.32,3.38,3.38,0,0,0-.11.34l-.09.33-.09.35c0,.11-.05.23-.07.34s0,.24-.07.36v0a11.57,11.57,0,0,0,7.72,12.73l0,0c.33.11.67.2,1,.28h0l.33.06.27.06.26,0,.34,0h0a9.43,9.43,0,0,0,1.06.07h0a11.56,11.56,0,0,0,11.46-9.5v0c0-.12,0-.24.05-.37s0-.22,0-.34,0-.24,0-.36l0-.34v-.36c0-.11,0-.22,0-.33s0-.24,0-.36,0-.22,0-.33,0-.24,0-.35l0-.33-.06-.34c0-.11,0-.22-.06-.33s-.05-.22-.07-.32-.05-.23-.08-.34-.06-.21-.09-.31-.06-.22-.1-.33a2.83,2.83,0,0,0-.11-.31,3,3,0,0,0-.11-.32c0-.11-.09-.21-.13-.31s-.08-.21-.13-.31-.1-.21-.16-.31a2.44,2.44,0,0,0-.14-.28c0-.1-.11-.2-.17-.3s-.1-.19-.16-.28-.12-.2-.19-.3l-.17-.26a2.92,2.92,0,0,0-.21-.28l-.18-.25-.19-.24-.23-.28c-.12-.14-.25-.27-.38-.41l-.07-.07h0a2.63,2.63,0,0,1-.76-2.09s0,0,0,0a2.37,2.37,0,0,1,.14-.57,1.46,1.46,0,0,1,.07-.19l24.05,4-10,59.37-24.05-4.05c0-.06,0-.13,0-.2a2.24,2.24,0,0,1,.06-.58.43.43,0,0,1,0,0,2.67,2.67,0,0,1,1.39-1.73h0l.1,0,.49-.26.31-.18a2.26,2.26,0,0,1,.26-.16l.25-.18.3-.2.24-.19.28-.22.24-.21.26-.23c.08-.07.15-.15.22-.22a3,3,0,0,0,.25-.25l.23-.24c.07-.08.15-.16.22-.25l.21-.27.21-.25.2-.28.19-.27.18-.29.18-.28.16-.3c.05-.1.11-.19.16-.3a2.75,2.75,0,0,0,.14-.3c.05-.1.11-.21.15-.31s.08-.21.12-.31.1-.22.14-.33.07-.22.1-.32.08-.23.11-.34.06-.23.09-.34.07-.23.09-.34.05-.23.07-.34.05-.24.07-.36v0a11.57,11.57,0,0,0-7.72-12.73h0A9.22,9.22,0,0,0,348.43,116.63Z"/><path class="cls-11" d="M243,198.62c0,.71,0,1.42,0,2.1a5,5,0,0,1-.2,1.39c-.13.38-.34.86-.78.93a.75.75,0,0,1-.7-.31c.14.2,0,.5-.15.66a.79.79,0,0,1-1.19.14,1.54,1.54,0,0,1-.36-.8c.08.34-.39.86-.67,1a1.09,1.09,0,0,1-1.18-.27,2.33,2.33,0,0,1-.44-.8,1,1,0,0,1-.29.61.61.61,0,0,1-.63.13,1,1,0,0,1-.45-.62,12.58,12.58,0,0,1-.66-3.39c0-.73-.33-2.7.64-2.9a.94.94,0,0,1,1,.44,2.11,2.11,0,0,1,.45-.91c.55-.56,1-.12,1.44.31a1,1,0,0,1,.94-1,1.2,1.2,0,0,1,1.08.84c.24-1.31,1.45-.68,1.76.16A8,8,0,0,1,243,198.62Z"/><path class="cls-11" d="M134.79,179.16c.34-.64.71-1.26,1.1-1.87a22.81,22.81,0,0,1,4-4.84,11.26,11.26,0,0,1,4.87-2c1.58-.3,4.3-.6,5.05,1.27a3.52,3.52,0,0,1,.08,1.88,16.93,16.93,0,0,1-2.4,6.33,11.57,11.57,0,0,1-3,3.3c-1.3.94-2.91,1.19-4.11,2.33a7.12,7.12,0,0,0-1.58,2.45c-1.25,3-1.5,6.4-3.56,8.86-1.15,1.38-3,2.21-4.69,1.26a9.26,9.26,0,0,1-2-1.59,3.57,3.57,0,0,1-.73-1,3.49,3.49,0,0,1-.23-1.47,8.22,8.22,0,0,1,1.29-4.38,33.73,33.73,0,0,0,2.59-4C132.64,183.54,133.62,181.3,134.79,179.16Z"/><path class="cls-15" d="M129.8,237.36a11.32,11.32,0,0,1-.16-3.19c.57-6.73.15-13.27,1.71-19.95a27.36,27.36,0,0,1,2.7-7.65c.82-2.41,1.89-4.69,2.86-7a53.7,53.7,0,0,1,3.3-5.26c-3.06-3.54-7.25-5.54-11.63-7.13a54.36,54.36,0,0,0-5,8.76c-2.48,5-4.93,10.1-7.19,15.24-6.44,14.64-5.63,29.28,6.22,41.1a13.5,13.5,0,0,0,5.25,3.57,6,6,0,0,0,6-1.12c1.67-1.64,1.84-4.34,1.11-6.56C133.46,243.69,130.6,241.3,129.8,237.36Z"/><path class="cls-23" d="M185,174.55a11.1,11.1,0,1,1,5.15-12.42,4.42,4.42,0,0,0,2.17,2.5h0l9.56-21.58-21.58-9.57h0a4.37,4.37,0,0,1,2.49-2.17,11.1,11.1,0,1,0-12.42-5.15,2.52,2.52,0,0,1-.19,2.84l-21.58-9.56-13.77,31.08a24.29,24.29,0,0,0,12.36,32l31.08,13.76,9.56-21.58A2.52,2.52,0,0,0,185,174.55Z"/><path d="M55.34,406.18q5.31,6.1,10.74,12.09c1.67,1.84,3.6,4.8,6.17,5.42,5.51,1.34,1.74-4.72.39-6.57-2.21-3-4.19-6.71-4.53-10.52-.36-4,1.75-7.06,3.74-10.36A24.74,24.74,0,0,0,75,387.7a6.45,6.45,0,0,0,0-2.66,2.66,2.66,0,0,0-1.65-2,3,3,0,0,0-1.47,0c-3.4.61-6.22,3.73-7.86,6.54a58.86,58.86,0,0,1-7.43,10,12.62,12.62,0,0,0-2.28,2.94,5,5,0,0,0-.21.48,3.3,3.3,0,0,0-.2,1.54Z"/><path d="M150.91,423.12a2.77,2.77,0,0,0,1-1.53,3.23,3.23,0,0,0-1.82-3.28,11.55,11.55,0,0,0-3.88-1c-2.79-.42-6.86-.57-8.67-3-1.62-2.17-1.5-5.26-1.49-7.82,0-1.84.2-3.68.08-5.51a8.87,8.87,0,0,0-1.79-5.12,4.79,4.79,0,0,0-4.91-1.71,5.17,5.17,0,0,0-3,3,14.89,14.89,0,0,0-.93,4.24c-.73,6-1.91,12.08-2.07,18.09-.19,1.27-.28,2.76.6,3.65Z"/><path class="cls-11" d="M177,172.87a11.67,11.67,0,0,0-4.58-2.08c-2.55-.55-1.52,3.51-1.42,4.85,0,.42-.25,1.66-.94,1.26a.9.9,0,0,1-.35-.44,9.92,9.92,0,0,1-.77-2.18,1.68,1.68,0,0,0-.5-1,.29.29,0,0,0-.23-.07.33.33,0,0,0-.13.07,2.24,2.24,0,0,0-.58,2.14c.28,1.89,1.33,3.6,2,5.36a30.94,30.94,0,0,1,1.79,11.07c0,4.23-.92,10.16,3.07,13.09a3.06,3.06,0,0,0,2.16.68,3.59,3.59,0,0,0,2.48-2.3,16.45,16.45,0,0,0,.9-9.15c-.32-2.36-.86-4.67-1.27-7a10.39,10.39,0,0,1,.05-4.44,16.8,16.8,0,0,0,.36-5.87,6.94,6.94,0,0,0-1.37-3.26A4.5,4.5,0,0,0,177,172.87Z"/><path class="cls-11" d="M132.46,227.77c-1.41-7.56-2-15.84,2.55-22.54a7,7,0,0,1,2.18-2.26,6.21,6.21,0,0,1,6.3.09,9.79,9.79,0,0,1,2,2.26,29.12,29.12,0,0,1,4.15,7.18,10.66,10.66,0,0,1-.09,8.1,24.53,24.53,0,0,0-1.8,3.49,9.29,9.29,0,0,0-.25,2.84q.06,3.07.3,6.15a12.41,12.41,0,0,1-.09,4,8.05,8.05,0,0,1-1.75,3.22c-2.15,2.53-5.52,4.4-8.91,3.72-1.67-.33-5.34-1.8-6.16-3.45s1-3.05,1.49-4.5C133.27,233.45,133,230.4,132.46,227.77Z"/><path class="cls-13" d="M117.94,322c2.21-6.33,4.63-12.58,6.9-18.88,2.14-6,4.68-12,6.32-18.14.87-3.24,1.76-7.61,1-10.91s-3.3-6.17-6.58-6.59c-3.45-.44-6.6,1.85-9.21,4.14a56.52,56.52,0,0,0-12.42,14.79c-3.13,5.66-3.82,11.8-5.33,18-1,4-1.65,8.24-3.14,12.06-1.61,4.15-3.23,8.3-4.71,12.5q-2.37,6.75-5.2,13.32a175,175,0,0,1-29.9,47.59,96,96,0,0,0,23.09,16.43c1,.52,12.07-17.4,13.13-19.15A204.3,204.3,0,0,0,103,365.9C109.53,351.57,112.81,336.7,117.94,322Z"/><path class="cls-13" d="M117.71,334.27a150.67,150.67,0,0,1,2.87,18.64c.64,9.66,1,19.33,1.17,29,.17,8.75-.6,18,.1,26.77l.78.12a91.53,91.53,0,0,0,13.75,1c4.28-.55,8.09-1.09,9-1.06,1.34-13.19.59-27.09.71-40.38s0-26.42-.91-39.6c-1-14.76-1.82-29.33-3.36-44.07a121.72,121.72,0,0,0-2.17-14.49A9,9,0,0,0,139,268c-1.08-2.08-3.58-3-5.92-3.21a18.74,18.74,0,0,0-10.74,2.72,41.6,41.6,0,0,0-8.66,7.12q-3.15,3.21-6,6.7c-3.19,3.89-2.81,8-1.55,12.66,1.72,6.38,6,11.62,8.19,17.83C116.76,319,116.28,326.88,117.71,334.27Z"/><path class="cls-15" d="M181.63,194.65c-.44,3.87-.35,7.7-.68,11.62a71.25,71.25,0,0,1-2.56,14,58,58,0,0,1-13.25,23.87c-4.07,4.29-9,7.81-12.57,12.48-1.55,2-5.81,9.58-9,8.46-1.81-.65-2.62-4.31-3.31-5.93A62.73,62.73,0,0,1,137,248.62c-.91-4-3.26-5.82-4.92-9.54-1.24-2.79-.56-7.53,2.27-9.18,3.25-1.9,8.63-.93,12.06-.17,2.19.48,4.49,1.1,6.63.41,2.42-.78,4-3.06,5.33-5.25A61.77,61.77,0,0,0,165,210.28c1.16-4.14,1.6-8.61,2.29-12.85.17-1.06.17-2.14.28-3.2a17,17,0,0,1,.9-3.72.44.44,0,0,1,.1-.19.42.42,0,0,1,.19-.06c2.26-.32,4.29.6,6.49.71a65.43,65.43,0,0,1,6.84.67C181.89,192.65,181.74,193.65,181.63,194.65Z"/><path class="cls-15" d="M114.26,251.53c-.55,1.27-1.07,2.5-1.57,3.64a127,127,0,0,0-7.42,22.9c3.41.27,6.54,1.91,9.68,3.26,3.42,1.46,7,2.62,10.51,3.77l8,2.6a76.07,76.07,0,0,0,12.28,3.24l4.71-24.12c.38-1.91.57-3.87,1-5.8s1-4.14,1.53-6.17a38.71,38.71,0,0,0,1-6.06c1.12-9.38-6-10.75-13-14.47-5.45-2.86-10.88-4.5-16.18.07C120.23,238.32,116.9,245.47,114.26,251.53Z"/><path class="cls-3" d="M146.4,207.31c1.32,1.36.77,3.61,1.22,5.45.84,3.44,5.2,5.37,5.49,8.9.18,2.14-1.24,4.09-1.49,6.22s.51,4.52-1,6"/><path d="M127.17,240.16a20.06,20.06,0,0,0,2.67.83c6.33,1.55,13.48.84,18.65-3.14,2-1.5,3.68-3.67,3.66-6.14,0-2-1.34-3.71-1.07-5.63.15-1.06.56-2.07.67-3.14a5.71,5.71,0,0,0-1.45-4.37,23.63,23.63,0,0,1-1.72-1.75c-1.3-1.76-.86-4.19-.93-6.38a9.58,9.58,0,0,0-2.91-6.8c-4.83-4.35-13.78-.78-16,4.8-.47,1.21-.74,2.57-1.65,3.49-1.11,1.11-2.91,1.28-4.08,2.34-2.47,2.26-.61,6.73-2.49,9.5-.63.92-1.6,1.55-2.24,2.46a5.57,5.57,0,0,0-.07,5.65A18.33,18.33,0,0,0,127.17,240.16Z"/><path class="cls-24" d="M133.23,202.12c1.33-2.77,3.23-5.16,6.59-5.63,2.92-.41,7.4,1.23,8.05,4.47.69,3.4-1.23,7.41-2.47,10.52-.52,1.33-2.53,6.38-3.79,7.05-.9.48-.63-3.15-1.63-3.38s-1.77-.83-2.7-1.05c-.77-.19-1.61-.18-2.4-.39-1.95-.51-3.25-1.11-3.64-3.18s.36-4.39,1.13-6.39C132.63,203.46,132.91,202.78,133.23,202.12Z"/><path class="cls-24" d="M145.6,205.26c-1-3.62-5.23-4.84-8.48-4.71a11,11,0,0,0-9,5.14c-3.41,5.64-.35,17.76,8,16.25,2.59-.48,5.71-1.56,8.16-8.05.81-2.16-.07-.73.58-2.95.1-.32.19-.63.27-.94A8.89,8.89,0,0,0,145.6,205.26Zm-8.14,14a6.26,6.26,0,0,1-6.39,0c-1-.5-.12-2,.86-1.48a4.48,4.48,0,0,0,4.67,0C137.54,217.22,138.4,218.7,137.46,219.27Z"/><path class="cls-11" d="M142.55,181.3c.6-.29,1.21-.57,1.83-.82l1.26-.48a8.72,8.72,0,0,1,1.07-.41.65.65,0,0,1,.34,0,.47.47,0,0,1,.22.17.88.88,0,0,1,.14.69,2,2,0,0,1-.29.65,7.53,7.53,0,0,1-3.55,2.68"/><path class="cls-17" d="M135.21,201.07a8,8,0,0,1,10.06,7.13"/><path class="cls-3" d="M112.13,293.46a16.87,16.87,0,0,0-.34,8.92c.57,3,1.59,5.81,2.41,8.71a62.63,62.63,0,0,1,2.25,14.6"/><path class="cls-3" d="M176.09,222.87a21,21,0,0,1-1.77,4.8"/><path class="cls-3" d="M173.44,229.7l-.38.63"/><path class="cls-3" d="M117.69,240.57A15,15,0,0,1,116,248"/><path d="M150.29,266.11l.21.14c.84-1.71.73-3.72,1.2-5.56.11-.42.25-.83.37-1.24a17.89,17.89,0,0,0,.6-2.91c0,.23-.8.95-1,1.14-.41.4-.81.79-1.18,1.22a4.09,4.09,0,0,0-1.24,2.9,6.32,6.32,0,0,1,.2,1.82,6.54,6.54,0,0,0-.19.73A2.38,2.38,0,0,0,150.29,266.11Z"/><path class="cls-11" d="M172.29,170.76c.15.68.28,1.35.38,2"/><path class="cls-11" d="M174.19,171.41a7.61,7.61,0,0,1,.3,1.81"/><path class="cls-11" d="M176.26,172.29l.09,1.94"/><path class="cls-11" d="M177.59,183.12a8.19,8.19,0,0,0,0,3.12"/><path class="cls-11" d="M177.6,187.21l.09,1.22"/><path class="cls-11" d="M180.47,195.12a41.76,41.76,0,0,0-.45,4.74"/><path class="cls-3" d="M136.66,295.77a7.85,7.85,0,0,0,6.32,5.54"/><path class="cls-3" d="M143.82,351a75.32,75.32,0,0,1,.14,8.09"/><path class="cls-3" d="M143.8,361.3v2.19"/><path class="cls-3" d="M142.78,353.56a22.39,22.39,0,0,1,.05,2.59"/><path class="cls-3" d="M104.52,356.09A69.46,69.46,0,0,1,100,367.41"/><path class="cls-3" d="M99.18,369.2q-1.05,2.12-2.26,4.14"/><path class="cls-3" d="M101.33,359.28c-.69,1.57-1.38,3.13-2.06,4.7"/><path class="cls-3" d="M106,287.57a22.08,22.08,0,0,0-2.41,6.63"/><path class="cls-3" d="M103.2,296.72l-.36,3.2"/><path class="cls-11" d="M357.13,143.07c.13-1,.3-1.94.5-2.9a5.05,5.05,0,0,1,.49-1.48c.15-.26.4-.52.69-.48a.75.75,0,0,1,.49.4,5.13,5.13,0,0,1,.44,3,6,6,0,0,0,.31,3.06"/><path class="cls-3" d="M197.92,146a52.65,52.65,0,0,1-2.55,6.4"/><path class="cls-3" d="M194.65,155.14l-1.28,2.93"/><path class="cls-3" d="M188.91,119.33a7.77,7.77,0,0,1-6.44,8.76"/><path class="cls-3" d="M186.89,114.86a10.73,10.73,0,0,1,1.14,2.27"/><path class="cls-17" d="M301.88,110.65a9.39,9.39,0,0,0,8.2,1.3"/><path class="cls-17" d="M312.27,111a13.79,13.79,0,0,0,2.32-2.06"/><path class="cls-17" d="M380,91.71c-.41,1.92-.95,4.86-1.43,6.92"/><path class="cls-17" d="M237.28,202.83a31.57,31.57,0,0,1-.35-6.05"/><path class="cls-17" d="M238.79,196.22c.12,1.21.37,2.87.5,4.08a17.68,17.68,0,0,1,.28,3.13"/><path class="cls-17" d="M240.81,196.08c.12,2.31.26,4.66.53,6.95"/><path class="cls-11" d="M242.24,195.92a16,16,0,0,1,1.83-.22c2-.22,2,2.72,1.66,4-.17.71-1,1.1-1.33.22a5.93,5.93,0,0,1-.12-1.4c-.05-.65-.13-1.31-.19-2"/><path class="cls-10" d="M246.44,95.07a18.48,18.48,0,1,0-30.18,14.38,13.69,13.69,0,0,1,5.05,9.06l1.1,10,11.49-.06,1-10a13.58,13.58,0,0,1,4.9-9.08A18.38,18.38,0,0,0,246.44,95.07Z"/><path d="M228.17,130.89h0a7.26,7.26,0,0,1-7.3-7.21l0-3.15,14.51-.08,0,3.15A7.26,7.26,0,0,1,228.17,130.89Z"/><path class="cls-3" d="M231.52,121.66q1.14-6.22,2.29-12.44c.54-2.94,1.09-5.89,1.63-8.83.41-2.25,2.42-6.44-1.23-7.15a2.36,2.36,0,0,0-2.8,2.26,1.18,1.18,0,0,0,2.36.14,2,2,0,0,0-1.2-2.1,2.79,2.79,0,0,0-3.76,2.08.66.66,0,0,0,.06.46c.22.32.75.13.95-.2a1.55,1.55,0,0,0-.71-2,2.86,2.86,0,0,0-2.33,0c-1.11.41-2.17,1.55-1.75,2.65a.66.66,0,0,0,.46.47.63.63,0,0,0,.4-.06c2.14-1-.8-4.16-2.83-3.16a3.91,3.91,0,0,0-1.91,3.38,12.7,12.7,0,0,0,.72,4,85.3,85.3,0,0,1,3.18,19.5,2.75,2.75,0,0,1-.35,1.63"/><path class="cls-17" d="M237.88,83.31a13.28,13.28,0,0,1,5.38,11.09"/><path class="cls-17" d="M242.49,100.6a12.78,12.78,0,0,1-3.36,5.54"/><line class="cls-3" x1="172.89" y1="417.81" x2="251.83" y2="417.81"/><line class="cls-3" x1="251.28" y1="401.91" x2="380.1" y2="401.91"/><line class="cls-3" x1="403.79" y1="417.81" x2="419.96" y2="417.81"/><line class="cls-3" x1="339.26" y1="234.72" x2="322.82" y2="254.18"/><line class="cls-3" x1="338.44" y1="239.65" x2="328.85" y2="251.43"/><line class="cls-3" x1="102.18" y1="145.09" x2="115.88" y2="129.19"/><line class="cls-3" x1="109.03" y1="140.98" x2="115.7" y2="133.3"/><image width="300" height="128" transform="translate(74.6 55.97) scale(0.37 0.32)" xlink:href="descarga.png"/></g></svg>