<svg id="Capa_1" data-name="Capa 1" xmlns="http://www.w3.org/2000/svg" viewBox="0 0 1613.65 964.83"><defs><style>.cls-1{fill:#ecdd22;}.cls-2{fill:#dc5c05;}.cls-3{fill:#21317e;}.cls-4{fill:#58c035;}.cls-5{fill:#fab001;}.cls-6,.cls-7{fill:#fff;}.cls-7{fill-rule:evenodd;}</style></defs><path class="cls-1" d="M426.81,464.38"/><path class="cls-1" d="M496.75,689.32,1502,687.7c61.67,0,111.66-51.66,111.66-115.39V392.52c0-63.73-50-115.39-111.66-115.39l-1005.83.45.59,411.74"/><path class="cls-2" d="M465.2,232.13C465.2,103.93,361.27,0,233.07,0S.94,103.93.94,232.13,104.87,464.26,233.07,464.26c5.46,0,10.85-.25,16.21-.62l-.05.05,215.69.57V243.45h0C465.09,239.7,465.2,235.93,465.2,232.13Z"/><path class="cls-3" d="M495.88,232.13C495.88,103.93,599.81,0,728,0S960.14,103.93,960.14,232.13,856.21,464.26,728,464.26c-5.46,0-10.85-.25-16.22-.62l.06.05-215.69.57V243.45h0C496,239.7,495.88,235.93,495.88,232.13Z"/><path class="cls-4" d="M725.81,496.65c128.19-1,233,102,234,230.24s-102,233-230.23,234-233-102-234-230.24c-.05-5.46.17-10.85.49-16.22l-.05.06-2.32-215.68,220.8-1.8h0C718.24,496.82,722,496.68,725.81,496.65Z"/><path class="cls-5" d="M234,500.57c-128.2-1-233,102-234,230.24s102,233,230.24,234,233-102,234-230.24c.05-5.46-.16-10.85-.49-16.22l.06.06,2.32-215.68-220.81-1.8h0C241.59,500.74,237.81,500.6,234,500.57Z"/><path class="cls-6" d="M879.72,192.8c-6.51-7.47-13.89-15.92-28.46-15.92s-22,8.45-28.46,15.92c-6,6.91-11.24,12.88-21.79,12.88s-15.75-6-21.78-12.88c-6.51-7.47-13.89-15.92-28.46-15.92s-22,8.45-28.47,15.92c-6,6.91-11.23,12.88-21.78,12.88s-15.75-6-21.78-12.88c-6.51-7.47-13.88-15.92-28.46-15.92s-21.95,8.45-28.46,15.92c-6,6.91-11.23,12.88-21.78,12.88s-15.75-6-21.78-12.88c-6.46-7.41-13.79-15.8-28.17-15.91v8.86c10.35.11,15.52,6,21.49,12.87,6.51,7.46,13.89,15.92,28.46,15.92s22-8.46,28.46-15.92c6-6.91,11.24-12.88,21.78-12.88s15.75,6,21.78,12.88c6.51,7.46,13.89,15.92,28.46,15.92s22-8.46,28.46-15.92c6-6.91,11.24-12.88,21.79-12.88s15.75,6,21.78,12.88c6.51,7.46,13.89,15.92,28.46,15.92s22-8.46,28.46-15.92c6-6.91,11.24-12.88,21.79-12.88s15.75,6,21.78,12.88c6.47,7.42,13.81,15.83,28.24,15.91v-8.86C890.89,205.59,885.7,199.66,879.72,192.8Z"/><path class="cls-6" d="M879.72,219.87c-6.51-7.46-13.89-15.91-28.46-15.91s-22,8.45-28.46,15.91c-6,6.92-11.24,12.89-21.79,12.89s-15.75-6-21.78-12.88c-6.51-7.47-13.89-15.92-28.46-15.92s-22,8.45-28.47,15.92c-6,6.91-11.23,12.88-21.78,12.88s-15.75-6-21.78-12.88c-6.51-7.47-13.88-15.92-28.46-15.92s-21.95,8.45-28.46,15.92c-6,6.91-11.23,12.88-21.78,12.88s-15.75-6-21.78-12.88c-6.46-7.41-13.79-15.8-28.17-15.91v8.86c10.35.11,15.52,6,21.49,12.87,6.51,7.46,13.89,15.92,28.46,15.92s22-8.46,28.46-15.92c6-6.91,11.24-12.88,21.78-12.88s15.75,6,21.78,12.88c6.51,7.46,13.89,15.92,28.46,15.92s22-8.46,28.46-15.92c6-6.91,11.24-12.88,21.79-12.88s15.75,6,21.78,12.88c6.51,7.46,13.89,15.92,28.46,15.92s22-8.46,28.46-15.92c6-6.91,11.24-12.88,21.79-12.88s15.75,6,21.78,12.88c6.47,7.42,13.81,15.82,28.24,15.91v-8.86C890.89,232.67,885.7,226.74,879.72,219.87Z"/><path class="cls-6" d="M879.72,247c-6.51-7.46-13.89-15.92-28.46-15.92s-22,8.46-28.46,15.92c-6,6.92-11.24,12.89-21.79,12.89s-15.75-6-21.78-12.89c-6.51-7.46-13.89-15.92-28.46-15.92s-22,8.46-28.47,15.92c-6,6.92-11.23,12.89-21.78,12.89s-15.75-6-21.78-12.89c-6.51-7.46-13.88-15.92-28.46-15.92s-21.95,8.46-28.46,15.92c-6,6.92-11.23,12.89-21.78,12.89s-15.75-6-21.78-12.89c-6.46-7.41-13.79-15.79-28.17-15.91v8.87c10.35.11,15.52,6,21.49,12.87,6.51,7.46,13.89,15.92,28.46,15.92s22-8.46,28.46-15.92c6-6.91,11.24-12.88,21.78-12.88s15.75,6,21.78,12.88c6.51,7.46,13.89,15.92,28.46,15.92s22-8.46,28.46-15.92c6-6.92,11.24-12.88,21.79-12.88s15.75,6,21.78,12.88c6.51,7.46,13.89,15.92,28.46,15.92s22-8.46,28.46-15.92c6-6.92,11.24-12.88,21.79-12.88s15.75,6,21.78,12.88c6.47,7.42,13.81,15.82,28.24,15.91v-8.86C890.89,259.74,885.7,253.82,879.72,247Z"/><path class="cls-6" d="M881.2,274c-6.51-7.46-13.89-15.92-28.47-15.92s-22,8.46-28.46,15.92c-6,6.91-11.23,12.89-21.78,12.89s-15.76-6-21.78-12.89c-6.51-7.46-13.89-15.92-28.47-15.92s-22,8.46-28.46,15.92c-6,6.92-11.23,12.89-21.78,12.89s-15.75-6-21.78-12.89c-6.51-7.46-13.88-15.92-28.46-15.92s-22,8.46-28.46,15.92c-6,6.92-11.24,12.89-21.78,12.89s-15.75-6-21.78-12.89c-6.51-7.46-13.89-15.92-28.46-15.92a4.62,4.62,0,0,0-1.19.18v8.51a4.62,4.62,0,0,0,1.19.18c10.54,0,15.75,6,21.78,12.88,6.51,7.46,13.88,15.92,28.46,15.92s22-8.46,28.46-15.92C636,273,641.22,267,651.76,267s15.75,6,21.78,12.88c6.51,7.46,13.89,15.92,28.46,15.92s22-8.46,28.46-15.92c6-6.91,11.24-12.88,21.78-12.88S768,273,774,279.86c6.51,7.46,13.88,15.92,28.46,15.92s22-8.46,28.46-15.92C837,273,842.19,267,852.73,267s15.76,6,21.79,12.88c6.25,7.16,13.31,15.22,26.76,15.86v-8.86C891.86,286.24,886.89,280.56,881.2,274Z"/><path class="cls-7" d="M406.09,136.34c-2.62-.26-2.56-.36-4.71,1.18,2,1.11,3.64,1.71,4.53.7a2.66,2.66,0,0,0,.18-1.88m-31.76,6.9c1.7-.22,2.44.45,2.36,2,.44-2.49-1.23-3.56-3.48-2.63A2,2,0,0,0,374.33,143.24Zm-6,5.85c3.85,2.08,8.85,3.14,12.57-.09C377.56,156.07,373.69,154,368.35,149.09Zm-2.61-3.42c2.39-4.64,4.87-6.72,7.93-6.94,2.63-.21,3.74.27,6.07-.95l-.8-.25C371.28,135.09,368.36,137,365.74,145.67Zm2.24.57c2-.66,2.26-1,2.91-2.29,1.45-2.82,3.88-3.17,6.72-2.56,1.8,1.2,1.55,1.39,3.71,1.51-1.94,1.37-1.91,1.61-2.39,3.29-.74,2.63-4.21,2.2-6.33,2C370.33,146.45,370.81,146.41,368,146.24Zm-9.23,6.14c2.64,8.94.13,14.53-9.89,16.26,7.31-2.82,9.91-7.12,7.65-14.53-3.43-.79-5.46.94-7.09,3.42C351.3,152.43,353.82,150.9,358.75,152.38Zm-13.32,18.16-2.65,5.51c-2,4.19.66,9.9,2.11,13.77-1.72-2.39-8-9.92-4.82-13.38Zm-39.95,65.55c4-4.25,9.09-3.66,13.3-3.34,5.73,6.12,5.37,9.2,4.87,17.44,2.43-9.86,3.15-12.62-3-20.26C314.45,229.13,310.46,228.93,305.48,236.09Zm-192.11,89c3.41-4.91,9.35-6.39,15-8.13,11.67-3.57,17.91-8.33,29-15-10.6,4-19.82,8.07-30.51,11C121.61,314.47,113,315.76,113.37,325.08Zm56.36-22.77c-7.43,4.54-8.95,3.76-16.87,6.57-6.79,2.41-14.29,5.72-13.13,13.93,2.13-4.21,9.42-8.13,15-10.25C164,309,162,309.63,169.73,302.31ZM358.82,179.09c3.39,4.23,3.77,4.82,5.71,9.89-1.67,6-1.11,7-7.51,8.21-2.92-1.65-3.65-1.6-5.54-4.38,2.25,4.64,1.37,4,5.92,6.4,7.3-1.74,7.12-3.44,9-10.26C363.61,182.51,364.43,183.25,358.82,179.09Zm-9.72,4.59c2.08-4.91,2.68-5.51,7.95-4.93C351.41,176.29,349.36,177.21,349.1,183.68Zm34.84-43.39c1.71.85,1.48.51,2.32,2.22a13.83,13.83,0,0,1-2,3.51,20.31,20.31,0,0,0,4.46-3.91C386.34,140.48,386.78,140.38,383.94,140.29Zm-77.62,6.05c13.39-1.25,18.7,4,30.09,10.57l-1.8,3.13C321.82,151.18,317.9,147.8,306.32,146.34Zm114.52,176c-3.09-4.26-3.87-4.45-9.09-4a91.49,91.49,0,0,1-12.29.26c-4-.2-6.21-1.17-10-2.42a158.39,158.39,0,0,0,22.16-2.27C417.18,313,420.35,317.13,420.84,322.34Zm-88-9c6.76-.52,13.77-2.92,16.37,4.38-5.77-3.11-9.72-1.13-16.33-.22-6.26-2-9-4.38-14-8-4.6-12.89-7.58-22.49-8.72-36.23l8-11.45L314,273.9a91.33,91.33,0,0,0,2.55,14.25c18.92-10.52,22.81-16.44,36.56-34.92,4.75-3.91,11.71-7.51,12-10.8a15,15,0,0,1-4.52,11.22c.73,6.85,1.49,13.71,2.1,20.57l-1.2,13.35c1.51,11.07,2.37,13.5.34,24.52-.42-9.71-2.12-15.18-4.28-24.65l.89-13.48c-.35-5.84-1.08-11.42-2-17.18-12.41,17.85-20.51,26-38.62,36.13,1.48,5.18,2.84,9.23,4.45,14.26C325.93,309.42,328.61,312.63,332.83,313.31Zm2.87-175,8.43,4.88c3.54-5,7.36-6.83,18.46-10.47,9-.68,13.52-1.29,22-4.3,3.87-.14,6.4.66,10.16,1.81,8.35.41,10.89-1.12,17.38,4.92-3.17-2-5.24-1.85-9.28-1.77l-7.83.17c-3.72-.71-6.19-1.39-10-1.25-8,2.52-13.66,2.68-22,3.46-15.4,5.44-17.06,7.05-26.4,20.52,1.74-3.18,3.12-5.79,4.33-8a9.91,9.91,0,0,0-2.1,2c-14-5.25-21-8.47-30.11-5.91,5.56-2.05,7.24-3,10.48-3,7.19.16,14,4.44,22.53,5.49.6-1.05,1.17-2,1.74-2.85h0l-1.67.73-8.75-5.42c-4.72-2.4-4.77-2.22-10-2.66C329.68,135.45,330.37,135.18,335.7,138.27ZM148.49,257.92q5-.5,10-.94c5.75-.51,11.5-.9,17.26-1.26a12.22,12.22,0,0,1-3.72,1.26l-4.52.53c-1.6,2.67-4.48,7.75-2.83,10.77l4.82,8.83.79.35c-9.91-.22-19.4-.14-29.06.2.72-1.6.86-2.26.19-5.11-.63-2.67-.49-3.19.56-7.48C145.6,262,146.34,261.43,148.49,257.92Zm-52.25,6.74c13.85-2.29,27.64-4.11,41.45-5.62a20.25,20.25,0,0,1-5.85,1.77L122.1,262c-1.45,2.38-1.48,1.89-1.38,4.66,1.8,5.1,3.39,7.29,3,11.85-7.92.5-16.17,1.14-25,1.91-1.14.1-3.11.32-5.53.6-.94-2-1.43-2.57-.47-5.18C91.62,268.66,92.16,267.8,96.24,264.66Zm-50.18,9.82,7.17-1.3c4.62,3.39,3.75,5.09,5.67,10.54a5.23,5.23,0,0,1,1.21,2.77c-5.17.84-9.1,1.31-14.6,1.89-6.15-7.49-6.4-11.3-1.61-19.61,19.59-16.27,45.15-19.17,67.27-26.43a149.13,149.13,0,0,0,14.4-6.12c-4.59,3.12-8.36,6.39-13.63,8.06-20.87,6.61-48,11-65.79,26.88C42.66,278,44,279.23,48,285.39l4.29,1.18-3.17-2.12C47,280.56,45.67,278.25,46.06,274.48ZM412.59,136.16c.5,2.09,0,2.87,1.07,4.72a28.39,28.39,0,0,1-.9,6.42l-1.15.53c-.82-.87-1.85-.91-3.94-1.05-12.11,5.81-18.44,7.54-30.9,10.14-6.9,1.44-12.93,7.24-17.76,12.09,5-4,11.26-8.68,17.68-9.83,12.25-2.2,17.73-3.8,29-8.53,2.54-1.08,3.69-1.19,5.33.25-4.45,5.54-8.92,11.32-13.8,16.36l-16,16.49c-1.55,6.24-2.14,8.31-2.07,14.75a78.77,78.77,0,0,1-5,16.4l-2.24-12-.14,19.42C376.39,241.14,378,247,377.8,266l1.63,11.26c-.44,9.36-1.95,21.35-.44,30.37,6.32,4.21,7.6,5.8,15.29,5.06,5.18-.49,12.07-1.79,17.14-1.33-3.7-1.84-4.19-2.42-8.31-2.8l-8.59,1.22c-5.25.74-8.27,0-12.52-3.45-1.56-6.51.52-21.4,1-28.78l-1.62-11.47c.63-20.46-.94-25.92-6.05-45.12a98.3,98.3,0,0,0,7-22.24,39.71,39.71,0,0,1,2.06-13.15L399,169.65c2.93-3.19,5.28-5.53,7.49-9.14,1.65-2.68,5.58-6.91,7.19-9.68a1.29,1.29,0,0,0,0-1.12l.83-.45a25.42,25.42,0,0,0,1.25-8.87C414.11,139,413.77,138,412.59,136.16ZM191.9,250.6l-.68.05c-.73-1.17-1.42-2.3-2.17-3.33C190,248.26,190.87,249.34,191.9,250.6Zm9.34-.63-1.72.11c-1.74-2.54-3.11-5.12-5-7C196.93,244.67,198.71,246.82,201.24,250Zm14.89-2.48-.8.24c-1.12-1.71-2.09-3.43-3.17-4.91C213.39,244.09,214.62,245.62,216.13,247.49Zm40-24.2-.76.51c-1.37-2-2.5-4-3.79-5.73C252.94,219.47,254.34,221.18,256.09,223.29Zm18.14-12.13-1.46,1c-2.36-2.42-4.52-4.81-7.12-6.21C268.46,207,270.91,208.71,274.23,211.16Zm10.6-7.13-.78.53c-3.15-3.19-5.92-6.44-9.45-8C278.2,197.93,280.79,200.31,284.83,204Zm2.95-2-1.53,1c-2.84-2.23-5.25-4.65-8-6.08C281.39,197.88,284,199.57,287.78,202.05Zm29.44-20.93-1.78,1.5c-3.36-3.05-6.45-6.08-10-7.74C309.22,176.05,312.62,178.14,317.22,181.12Zm-85.55,56.54,2.72,1.15c-2.89-2.23-5.71-4.93-8.21-5.95A25.6,25.6,0,0,1,231.67,237.66Zm12.42-9.39,2.45.17c-2.95-2.22-5.15-3.76-7.76-4.67A33.16,33.16,0,0,1,244.09,228.27Zm128-83.59c.9,1.87,1.62,2.67,3.68,1.82C373.72,146.63,374.28,145.2,372.1,144.68ZM265.36,247.19c-.56,3.05-1.46,13.8-2,14.93-1.46,3.23-2.61,5-2.43,7.56.4,5.71,1.27,9.76,1.32,16.38,3.58,4.46,3.68,5,8.62,7.91-7.12-2.89-6.76-2.24-11.83-8C259.63,272,259.15,259.78,265.36,247.19Zm-18,13.75-2.46,14.39c2.59,10.07,3.18,11.43,10.3,18.89-11-5.18-10.27-7.12-12.59-18.66Zm22.51,24.43c3.92,5.71,4.79,7.48,11.61,9.23l2.54.66-2.38-1.4A81.26,81.26,0,0,1,269.9,285.37Zm21.15-69.07c-3.38,4.55-4.65,3.51-3.55,8.62a17.87,17.87,0,0,1,.19,7.48c-1,4.48-4.34,6.45-2.91,13.92.22,1.11.43,2.22.43,2.22.09-.5,2.41-9.57,3.65-14.42a27.13,27.13,0,0,0,1-5Zm-9.43,42.84c.26,7.45-1.23,12.63-.18,20.65,3.45,4.82,4.21,6.25,8.07,9.19-1-5.81-2.17-11.63-3.39-17.67l5.14-11.14c2.23-4.83,6.75-8.87,9.69-13.28-3.11,8.7-6.73,16.7-10.48,25.14,2.12,10.85,4.44,21.83,6.24,32.68,1.26,7.59,2.74,13.1,6.24,19-7.29-7.13-10.13-14-11-19.94l-.28-1.85c-13.48.65-25.46.76-39-.83-4.7-.55-8.1-3-12.31-5-9.39,2.76-18.95,6.4-28.73,6.4a37.94,37.94,0,0,1-5.67-3.5l-5.34,6.68a27.58,27.58,0,0,1-12,4.28c-10,.72-10.74.22-18.42,5.14-1.33.85-2.67,1.2-5.34,1.62-3.28.52-10.19.23-13.42,1,3.12-1.39,9.38-3.92,12.74-4.61a47.73,47.73,0,0,0,5.16-1.36c2-.65,3.9-1.51,5.88-2.14,4.15-1.32,8.59-1.73,12.8-2.93a47.85,47.85,0,0,0,9.9-4l4.67-6.44c-4.21-3.55-7.87-7-14.35-9,15,1.77,13,5.39,25.29,10.43,8.32-.43,14.12-2.78,22.06-5.17-.87-9-3.68-15.47-6.91-23.14-3.33-7.91-2.42-12.87,2.3-20.19-2.1,7.57-2.18,11.27,1,18.5s6.6,13.68,8.2,23.24c4.08,2,9,5.39,13.41,5.71,13.32.94,24.2,1.48,37.31.22-.26-1.57-.52-3.14-.79-4.7-6-4.1-6.58-5.84-11.47-12.71C278.09,271,279.61,267.33,281.62,259.14Zm31.53-56.63c8.24,12.53,11.72,3.19,27.3,8.89A81.48,81.48,0,0,1,342.07,199c.49,5.8.94,11.5,1.29,17.3.28,4.66,1.35,5.33,5.12,7.76,3.58,2.31,3.61,2.08,5.63,5.78-4.71-2.51-8.64-4.91-13.12-7.79l-.36-7.94c-10.09-3.66-16.37-.36-20.85-2.07C317.27,211.11,315.12,208.71,313.15,202.51Zm50.85-.15c.93,5.18,2.4,10.08,3.31,15.22l.5,27.85c-1-4-2.07-7.17-2.16-11.24-.29-6.74,0-17.24-1.49-23.46-.61-2.6-1.12-5-1.52-7.7-2.27.9-4.69.75-10,0,6.93-1.31,9-3,13.84-6.72,4.07-3.14,8.09-7.87,11.72-11.63-2.9,5-5.23,11-9.88,14.6A43.23,43.23,0,0,1,364,202.36Zm.15,73.13a29.84,29.84,0,0,1,5.52-8.15l-.85,4C367.28,273.77,366.55,273.87,364.15,275.49Zm-18.34,50.76c6.3-.84,12.23-3.89,14.42,4.49-.07-13.81-6.39-9.45-14-7.91Zm-39.78-5c-3.22,5.94-1,7,1.65,14.12.21-8.77,1.29-6.22,8.06-6.56,6.95-3.51,4.62-2.61,13.28-.82,4,.11,8.32-2.39,10.41-.84s2.34,4.63,2.44,7.61c1.68-5.78,3.13-9.06-1-14.15l-4.22,1.68c-7.87,3.72-10.7,3.13-19.84,2.09C312.33,325.79,308,325.69,306,321.25Zm57.74-.81c4.72-1.09,7.32,2,11.4-.64,8.28-.3,20.41.18,20.93,11.1,2.57-14.91-7.26-13.21-21.22-13.76C371.9,319.77,367,318.16,363.77,320.44Zm3.34-9.1c-5.22,6.17-3.52.36-8.54,4.05-1,3-.54,2.94.22,6.11,2-3.29,1.68-3.2,5.65-3.34C367.45,315.91,366.61,315.38,367.11,311.34ZM363,243.47c-13.28-6.85-6.38-26.71-4.59-38.65a43.41,43.41,0,0,1,.32,10.06C357.93,223.22,355.87,237.33,363,243.47ZM248.06,234c19.17-13.39,38.74-25.92,57.71-39.43,14.39-10.25,20.84-17.54,28.35-33.9l-.74,1.18c-12.92-5.32-18.79-10.19-32.32-7.19,11.81,0,16.09,2.93,30.3,10.32-.76,1.13-1.51,2.2-2.27,3.23-8.4-6.51-13.44-11.08-25.39-11.3,8.6,1.18,13.64,6.29,22.94,14.49-.21.27-.43.53-.64.79-5.84-5.29-10.94-10.54-18.51-10.23,6.63,2.19,10.15,6,16.4,12.65l-.13.14c-7.2-5.61-12.61-12.18-21.22-11.17,5.73,1.44,9.54,4.08,14.38,8.35-6.28-2.71-12-5-18.31-2.33,8-.37,13.2,2.33,22.88,7l.22.3c-.58.59-1.18,1.17-1.79,1.75-5-3.68-9.09-7.68-15.08-6.72,4.76.95,7.81,3.06,12.15,6.6-5.31-3.14-10.06-6.08-15.88-4.9a13.28,13.28,0,0,0-2-.07c5.73,1.89,8.83,5.14,14.13,10.79l-.21.16c-5.28-4.74-9.06-10.18-15.83-9.9,5.74,1.9,8.75,5.22,14.26,11.09-.75.56-1.51,1.13-2.3,1.7-4.47-5.84-7.59-11.88-14.56-12.76,5.64,3,8.28,7,12.88,14l-.4.29c-3.1-4.23-5.58-8.29-10.62-8.93,4.1,2.18,6.18,5,9.33,9.77-4.18-3.95-7.35-8.2-12.88-8,4.7,1.6,7.24,4.29,11.57,9l-.64.44-1.32.9c-3.73-4.76-7-10.41-12.64-11.13,4.54,2.42,7.46,6.31,11.28,12.06l-1.23.84c-2.84-4.63-4.75-8.18-10-10.26,3.26,2.24,4.51,4,6.32,7.52-3-2.65-5.88-4.89-9.61-5.24a9.26,9.26,0,0,0-1.9-.44l.7.39h-.29l.72.26c3.84,2.38,5.87,5.58,9.41,10.93l-.74.5c-3.26-4.47-4.59-7.42-10.17-9.1,3.8,2.16,5.11,4,7.61,8-3.9-2.64-6.26-4.52-11.64-4.18,5.15.82,6.82,2.4,12.26,6.58l-3-1h0c-4.25-2.94-7.89-5.9-12.88-4.9,5.14.82,8.14,3.21,13.62,7.41l-.45.3c-4.66-2.58-8.86-5.24-13.72-4.5a9.49,9.49,0,0,0-3.69-.34,10.94,10.94,0,0,0-2.34-.29c4.93,2,7.39,5,11.88,10.44l-1.71,1.15c-2.87-4.31-4.84-8.66-9.71-9.58,3,1.85,4.72,4,6.72,7.33-3.1-2.66-5.94-5-10-4.6,4.13,1.09,6.56,3.18,10.38,6.76l-2.63-.8c-3.26-2.79-6.33-5.13-10.68-4.7,4.38,1.15,8.65,4.41,12.57,8-1-.16-3.83-1.46-4.68-1.61-3.1-2-6.07-3.62-9.72-3.11a10.32,10.32,0,0,0-1.5-.14c4,1.6,6.16,4,9.57,8.11l-1.58-.14c-3-3.29-5.55-6.34-9.93-6.44,4,1.6,6.13,4,9.52,8.06-1.12-.2-2.83-.57-2.83-.57-2.14-3.37-4.18-6.33-8.1-7.07,3.78,2.31,5.49,5.16,8.31,10.06l-.56.38c-2.3-3.64-4.34-6.94-8.51-7.73,3.35,2,5.07,4.53,7.39,8.48l-.7.47c-3.35-3.66-6-7.35-10.77-7.49,4,1.64,6.15,4.1,9.58,8.28l-1.82,1.22-.19,0c-3.19-4.55-5.08-9.4-10.25-10.37,3.7,2.26,6.25,7,9,11.69l-2.71-2.8h0C255,216,253.62,214,250,212.28c2.82,2.21,3.85,3.9,5.3,7.14-2.53-2.55-5-4.73-8.39-5.26a9.27,9.27,0,0,0-1.69-.5l.61.39h-.26l.64.27c3,2.15,4.67,4.83,7.13,9.09l-1.57-.92h0c-1.73-2.77-3.21-4.74-7-6.14,3.3,2.15,5.48,5.51,7.51,9.29-3.37-2.59-6.49-6.06-11.36-6.06,4.09.92,5.66,2.22,9.26,5.36l-2.3-.64c-3.22-2.57-6.16-4.84-10.27-4.28,4.65,1,7.23,3.4,12,7.58l-.37.25c-4.15-2.63-7.84-5.37-12.35-5a8.86,8.86,0,0,0-3.43-.5c4.52,1.44,6.88,4,11.28,8.59l-.21.15-1.3.94c-4-4.22-7.41-8.47-12.89-8.79,4.3,1.88,7.57,5.9,11.26,10.48l-3.09-1.44c-2.06-3.33-4-6.29-7.74-7.14,2.83,1.83,4.42,3.94,6.29,7.1-2.9-2.61-5.56-4.9-9.4-4.67,3.83,1.15,7.7,4.71,11.21,8.11l-3.51-1.88c-3.22-2.88-6.18-5.41-10.44-5.15,4.18,1.25,7.91,4.78,11.68,8.43l-3.91-1.88c-3-2.13-5.92-3.88-9.49-3.51a10.49,10.49,0,0,0-1.4-.19c4,1.75,6,4.29,9.62,8.75l-.78.49c-3.42-3.69-5.91-7.59-10.66-7.87,4,1.72,6,4.22,9.49,8.58l-.72.42-3.2-2.87c-1.78-2.75-3.65-5.06-6.89-5.79,3.58,2.32,5.18,5.1,7.9,9.9l-.54.29c-2.2-3.54-4.11-6.78-8.08-7.68,2.92,1.89,4.52,4.07,6.47,7.39l-1.94-.79c-2.41-2.77-4.71-5.14-8.35-5.38,3.72,1.65,5.72,4,8.87,7.94l-.68.31c-.75-.44-2-1.14-2.7-1.62-2.18-3.5-4.09-6.68-8-7.57,3.37,2.19,5,4.76,7.41,9l-2.21-1.18c-1.4-2.78-2.63-4.78-6.1-6.53a15.39,15.39,0,0,1,5,6.86c-2.37-2.47-4.73-4.6-7.86-5.21a8.48,8.48,0,0,0-1.59-.53l.57.38h-.25l.6.27c2.9,2.16,4.44,4.77,6.82,9-1,.27-2.08.5-3.17.72-1.56-4.45-2-7.19-6-10,2.55,2.76,3.18,4.58,4.25,8.52-2.53-3.17-4-5.33-8.41-6.49,3.89,2,4.9,3.7,8.17,8.35-1,.16-2,.29-3,.41l0,0c-3.46-4.08-5.67-8.55-10.65-9.16,3.88,2,5.75,4.66,9.05,9.35l-.52,0c-3.42-3.55-6.27-7.23-10.64-8a8.29,8.29,0,0,0-3-1.28c3.58,2.26,5.22,5,7.94,9.65l-3.26.22c-2-3.88-2.85-6.41-7.1-8.55a15.35,15.35,0,0,1,5,6.87c-2.37-2.48-4.72-4.61-7.86-5.22a8.37,8.37,0,0,0-1.58-.53l.56.39-.24,0,.6.27c2.45,1.82,3.93,4,5.77,7.13l-2.41.17c-2.53-2.93-4.87-5.51-8.68-5.76,3,1.34,4.9,3.14,7.19,5.87l-6.88.51c-2.63-3.05-5-5.8-8.94-6.06,3,1.34,4.22,3.41,6.12,6.28l-6.09.49c-3.8-2.47-7-5-11.31-4.11,3.26.48,5,2.16,7.63,4.42-2.63.23-5.25.46-7.87.71-27,2.51-53.7,6-80.56,11.92,7.25-5.62,9.3-6.79,19.66-10.55,4.21-2.62,18.54-8.15,22.5-11.14-4.23,2.09-19.36,7.22-23.61,9.27C84.65,255.87,80,259.7,71.34,266.69l-6,1.44c-5.33,1.32-11.28,3.5-16.62,5l14.41-2.07q4.11-.93,8.22-1.78l9.53-1.9c-1.56,1.26-1.82,1.78-3.76,2.26L71.66,271c.14,1.63-.24,2.75-.59,5,1.14,3.9,1.69,3.82,4.46,6.78l4.13-.12c-4.62.55-8.77,1-10.77,1.22l-7.65,2.44c7.78-.48,30.09-3,37.34-3.34,26.91-1.36,50.85-1.85,76.64-.86-.51,2.71-1.07,6-1.88,10.26-16.82,5.46-26.18,2-34.88,6.8L122.19,307a152.46,152.46,0,0,1-20.52,3.69c-7.14.89-10.94,2.17-13.8,9.24a30.45,30.45,0,0,1,13.79-5.48c7.75-1.19,14-2,21.79-4.05a162,162,0,0,1,16.76-8.56c7.86-3.19,9.31-1.43,19.92-3.27a100.06,100.06,0,0,0,15.15-3.45,48.48,48.48,0,0,0,9.53,5.95c2.35,1.15,2.62,1.85,4.35,3.79-1.55-3.69-1.28-5.09-4.67-7.11a45.28,45.28,0,0,1-6.53-4.57c2.87-18.27.58-16.93,13.76-29.77a101.74,101.74,0,0,0,17.51-4.22c5.82-.21,8.84-.63,14,2.4-5.89-5.37-6.81-5.54-14.77-5.73a164.09,164.09,0,0,1-18.74,3.92c-5.79,5.39-9,8.57-10.94,11.7-1.74-4-3-7.92-.45-12.24l2.28-3.83c7.24-.45,14.52-.91,21.88-1.59,20.85-1.91,28.47-8.08,44.47-19Z"/><path class="cls-6" d="M739.12,623.29c-.58.31-1.1,1.23-1.5,1.57a7.31,7.31,0,0,0,2.22.42,68.79,68.79,0,0,1-6.39,4.89c-2.62,1.58-5.32,2.17-7.7,4s-4.83,3.55-7,5.49c-2.41,2.17-2.87,4.33-4.31,7,2.85-.43,5.94-3.6,8.74-4.81,2.52-1.09,4.89-1,7.59-1.29a32.77,32.77,0,0,1,7.33-.16c2.21.21,4.77.45,6.15-1.63-.17-.19-.42-.38-.58-.57,1.76-.33,2.73-1.22,4.14-1.93s3-.82,4.61-1.4a22.36,22.36,0,0,0,5.14-2.66c1.09-.82,1.29-2.09,2.93-2.48-4.11-1.32-7.39-4.26-11.57-4.73a3,3,0,0,1,2.41-.82,10.64,10.64,0,0,0-4.34-.47c.43-.19.87-.62,1.24-.82a5,5,0,0,0-3-.34c.59-.3,1-1,1.33-1.24-.66.07-1.21-.22-1.95,0a4.63,4.63,0,0,0,.5-2.42,1,1,0,0,0-1-.57c-2.61-.58-6.89,4.12-9.35,5.24C736.21,623.56,737.66,623,739.12,623.29Z"/><path class="cls-6" d="M714.83,634.83c2.35-.37,4.81-2.13,6.63-3.51,2.24-1.69,4.86-2.3,7.06-3.93,2.49-1.85,3.72-3.87,6.79-5.09.74-.61,3.49-2.32,1.6-3-3.29-1.21-9.71,2-12.67,3.51a9.28,9.28,0,0,1,2.89-.42,21.54,21.54,0,0,1-5.77,2.61c1.84.27,2.56-1,4.15-1.31s3.37.25,5,.13c-2,2.33-5.32,3-8.06,4.16-2.39,1-6.22.94-8.09,2.25a8.83,8.83,0,0,0,.68.8C712.61,632.44,710.61,635.49,714.83,634.83Z"/><path class="cls-6" d="M739.3,649.47c1.27.36,2,.7,3.3.25s1.28-1.42,2-3c-1.63-.56-3.14.21-4.62-1a6.23,6.23,0,0,0-1.57-2.13c-1.08,1-2.28,3-.37,3.71-.21.28-.33,1-.54,1.28A2.87,2.87,0,0,0,739.3,649.47Z"/><path class="cls-6" d="M769.88,637.85c1.19-.11,1.42-1.32.8-2.39a2.66,2.66,0,0,1,2.57.3c-.47-.25-1-1-1.65-1.27.46-.47.21-.77,1-1.17a2.83,2.83,0,0,0-2.66.55c-.15-.7-.72-1.15-1-1.7-.76-.69-1.1,2-1.06,2.9C769.41,635.26,770.58,636.32,769.88,637.85Z"/><path class="cls-6" d="M790.64,636.08c0-.17-.14-1.38-.13-1.74-4.77-.84-.43,12.46,4.3,10.27-1.29-1.34-5.43-6.61-4.24-8.25Z"/><path class="cls-6" d="M752.64,675.5c0-2.55-2.91-4.42-1.81-7.1a3.87,3.87,0,0,1-1.76-3.06,2.89,2.89,0,0,0,2-2.42c-1.3-1.1-2.13-2.24-3.62-1.4-1.83,1-.83,2.83-1.21,4.46-.27,0-.49-.1-.76-.1-.22.32-.2.68-.52.92,1.92,1.46-.81,3.41,1.55,4-1,.49-2.28,1.15-2.3,2.53a2.55,2.55,0,0,1,2,1.14c-1.43.7-4.55,1.37-3.8,3.41C745.05,676.38,749.36,677.37,752.64,675.5Z"/><path class="cls-6" d="M741.57,671.85c1.75-1.26,2.86-3.3,1.1-4.38-1.43-.23-2.38-1.13-3.81-.88,1.42,3.41-1.65,3.9-2.43,6.28C737.63,672.86,740.57,672.57,741.57,671.85Z"/><path class="cls-6" d="M760,700.87c-.69.28-2.89,4.86.52,4.74C761.39,705.7,763,700.11,760,700.87Z"/><path class="cls-6" d="M761,696.49c-.48.71-.76,2.22.79,2.48C762.81,699.22,762.56,695.47,761,696.49Z"/><path class="cls-6" d="M857.39,715.27c-1.13-11.6-3.27-23.07-7.94-33.7a128.21,128.21,0,0,0-17.35-28.21,95.11,95.11,0,0,0-24.79-21.74c-9.38-5.59-15.65-8.42-26.48-11.16-1.25-.31-9.14-1.65-9.14-1.65,4.63,1.13,9.81,5.22,14.12,6.76s8.62,2.12,11.85,5.3c-2.08-.55-4.16-1.06-6.24-1.57,2,1.11,1.46,3.4,2.79,5.22.4.55,2.07,1.18,2.71,1.75s1.19,1.76,2,2.47c-.47-.17-1-.23-1.44-.39,1.4,1,2.42,4,3.17,5.47-1.56-.18-2.28,1.26-3.87.54.55.29,1.44,1,2.14,1.41-1.42.51-3.14,1.15-2.32,2.85-2.22.43-.93,2.5-2.14,3-1.87.8-1.79-1.73-3-2.22,0,1,.7,1.94.59,3s-1.66,1.32-1.32,3.08c-1.28.43-2.32-.09-2-1.54-1-1.16-2.75-1.35-4.11-2,.92-.8,6.51.25,4.92-3.43-1.07-2.46-5.18-1.27-7.36-2-6.38-2.06-9.5.67-13.6,5.48a11.55,11.55,0,0,1-7.75,4.53,13.54,13.54,0,0,0-.84,6.75c.6,3.11,1.67,2.61,4.37,1.35,2.37-1.1,2.31-1.76,4,.36a19.62,19.62,0,0,1,2.53,5.94c1.84-.73,2.43-3.09,3.41-4.7,2.19-3.58.21-1.88-.73-4.72-.55-1.67.31-1.32.91-2.76.23-.53.75-2.34.95-2.65.54-.8,1.36-1.11,1.94-1.75.9-1,.06-2.08,2-2.31,2.12,3.11-3.21,5.89-1.47,9.33,1.55,3.06,7,1.34,9.72,1.83-2.07,1.22-5.55.52-7.72,2,.68.37.7.83,1.15,1.22-3.52.74-1.24,3.66-3.08,5.77-2.06,2.37-4.56.15-6.77,3.07-2-.17-2-2.24-3.89-2.7.2-1.07.52-2.16.72-3.23-.69,0-1.18-.41-1.89-.25a2.68,2.68,0,0,0-.11-3.45c-1.14.06-1.65,1-1.68,2.11-2.09.37-1.23,3.47-2,5,1.74,1.83-.63.9-1.55,1.13a6.65,6.65,0,0,0-3.13,1.14c-1.82,1.07-3.38,3.2-5.83,2.48.11.71-.32,1.15,0,1.94-1.75.71-3.7-.31-5.41.3-2.47.88-3.08,2.29-5.86.73.53,1.33,4,3,4.63,4.48,1.12,2.86-1.71,4.78-.62,7.3-3.55,0-8.56-3.39-11.77-2.33-2.75.9-4.73,7.75-5.29,10.35-1.7,8,12.1,5.79,16.09,3.14,3.36-2.23,5.58-5.55,7.75-8.86,2.2-.18,4.37,1.11,6.49.59,2.28-.55,3-3,5.22-1,1.39,1.3,1.73,3.78,3.32,5.27s3.38,2.41,5,3.72c2,1.68,2.68,3.12-.14,4.72a16.48,16.48,0,0,0-5.15,0c.47,1.28,4,3.32,5.43,3.58.25-3.14,5.16-3.78,2.85-7.63.63.32,1.53.35,2.14.73a2.17,2.17,0,0,0,.6-1.51c-4.42-.94-9.33-7.35-9.17-11.88,2.24.5,3,3.33,4.61,4.75a50.71,50.71,0,0,1,5.42,4.9c.5.58,1.75,1.28,2,1.92.4,1-.34,2,.19,3.18,1,2.26,2.27,2.18,2.33,5.07a7.94,7.94,0,0,0,3.41,1.15c-.79-1.79.71-2.48,2.15-2.84-1.55-1.17-2.95-2.15-1.36-3.86-3.83-.59,1.35-2.8,3.49-2.33-1.57,2.48-.73,4.86,2.19,5.2-1,2.2.8,2.81,2.34,3.77.66.41,1.66,1.41,2.46,1.46,1.1.07,1.28-.91,2-1,3.34-.33,6.42,1.81,9.4-1.42-.89,3-.73,7.84-2.54,10.46-2,2.9-6.11,2.82-9.27,2.55-3.61-.31-6.63-2-10.09-2.77-4.12-1-4.84,1.08-8,2.94-3.44,2-5.26,0-8.07-1.91-2.34-1.62-7-1.9-8.56-4.3s2.13-6.87.7-8.44c-.88-1-7.2.33-8.86,0-4.76-1.06-7.7-.86-12.52,0-4.23.79-6.23-1-9.4-3.64-2,3.84-5.93,3.68-9,6-2.47,1.89-.49,2.25-1.24,4.67-.7,2.25-3.37,2.47-5.28,3.2-4.24,1.6-6.8,4-9.78,7.19-1.26,1.37-3.61,2.37-4.61,3.79-1.42,2,0,2.88,0,5,0,4.41-2.75,8.68-5.54,11.81,1.68,3.86,2.12,8.77,4.22,12.32,1.11,1.88,3.08,3,4.45,4.67,1.52,1.82,2.31,4.12,3.8,6,3.64,4.42,7.83,4.18,12.95,4.37,2.81.1,5,1.55,7.65,2.09s4.26-.88,6.81-1.19c3-.36,4.12,1.7,6.3,3.38a10.07,10.07,0,0,0,7.6,2c.86,8.85,2.53,17.65,2.19,26.56-.32,8.35-2.18,24.24,9.64,25,11,.68,21.7-11.69,29.82-18.81s19.61-13.29,25.78-21.89c6.72-9.38,10.78-18.73,15.82-29.19.62-1.29,4.51-7.6,2.37-6.31-1.13.9-2.7,1.23-3.82,2.19s-1.31,2.48-2.2,3.11-2.5.74-3.62,1.3c-1.46.75-2.95,2.61-4.68,2-2.27-4.44-5-8.57-7.49-12.85a70.18,70.18,0,0,1-6.87-15.31c-.94-3.11-1.59-6,1.34-2.17,6.12,8,12,16.08,12.28,26.38,3.24,0,5.27-1.8,7.52-3.9a64.59,64.59,0,0,0,11.27-14.28c1.33-2.41,3.2-6,2.82-8.77s-2.83-4.8-4.24-7.05c-2.58,1.58-2.46,9.22-6.4,5.79-1.32-1.15-1.84-3.81-2.78-5.32-1.09-1.76-2.16-2.76-2.09-5,2.4.14,3.6,2.63,5.68,3.42,3.48,1.35,2.81-2,5.13-1.66,2.85.48,1.12,3,4.76,1.36,2.43-1.09,3.41-2.76,6.17-3,2,2.73-.07,4.54,3.8,5.55.22-.64.7-.9.75-1.7,1.34,3.42,1.19,7.9,1.76,11.56C855.41,741,858.37,725.39,857.39,715.27Zm-49.86-15c-3.83-.49-4.7-1-8.22.83-2.74,1.44-7.37,1.86-7.6-.41-.14-3.66,1.39-3.48,2.73-6,.85-1.63.89-7.64,4.54-4.63-.86,4.56,2.24,2.19,4.75,2.77C807.34,693.6,816.8,701.38,807.53,700.22Zm14.68,1.58c-.53-2,0-3.27-1.24-5.08s-3.15-3-4.54-4.45c-3.12-3.12,1-10.45,4-7.7,1.18,1.07-.3,4.31,0,5.68.51,2.21,2,2.69,3.73,3.87,2.75,1.87,5.2,5.68,5.24,9.23C829.47,708.7,823.11,705.18,822.21,701.8Z"/><path class="cls-6" d="M768.71,836.81c-50.87,9.35-101.85-15.19-126.73-58.42a70.27,70.27,0,0,1,2.27-29.58c6.31-19,22.46-28.64,22.46-28.64-19.79,20.53-16,41.19-16,41.19,1.58-.22,23.31-1.36,28.14-26,5.17-26.32,18-31,18-31s-28-8.54-49.43,10.79c-17,15.36-12.18,31.16-8.2,38.74a73.14,73.14,0,0,0-2.95,13,117.36,117.36,0,0,1-8.32-28.29,120,120,0,0,1,.76-44.4c13.18-.38,34.43-5.4,47.36-32.1,20.38-42,44-44.24,44-44.24s-41.55-26.06-87.5-2.44c-49.82,25.59-28.63,69.39-28.63,69.39,12.81-32.79,41.94-47.29,53.56-51.92-34,24.29-47.87,58.67-44,99.42a48.85,48.85,0,0,0-5.16-5.77c.67-8.36-2.53-26-25.79-33.15-31.77-9.71-52.66,12-52.66,12s14.62-1.5,31,22.39c15.32,22.36,37.26,13,38.91,12.46,0,0-5.15-22.53-33.47-33.54,0,0,22.66,1.66,37.63,20.06l.14.16v0a70.19,70.19,0,0,1,12.14,24h0c14.18,66.21,79.07,111.26,146.05,99,59.09-10.87,102-63.26,104-120.93A119.54,119.54,0,0,1,768.71,836.81Z"/><path class="cls-6" d="M147.84,697.53c3.47,2.11,11,8,17.81,15.17,6,6.33,11.51,13.51,14.93,17.76l2.72,3.38c-1.78-.39-3.74-.61-5.49-.81l-10.35-1.43c-2-1.53-1.88-5.74-6.15-10.36-1.12-1.21-1.58-.76-.52.5,2.79,3.36,3.48,7.46,4.68,9.76l-6.4-.54c-1.63-.16-1.77.67-.14.84,6.22.63,12.38,1.85,18.52,2.54,3.24.37,7.36,2,8.76,3.31a1.3,1.3,0,0,0,.42.25c2.58,3.1,5.11,6,7.6,8.5a111.24,111.24,0,0,0,13.22,11.76,31.55,31.55,0,0,0-8.24,2.81,52.77,52.77,0,0,0-5.18,3.08.54.54,0,0,0-.25,0,7.78,7.78,0,0,1-4.89-.56c-3.16-1.43-6.42-2.52-9.61-4-.84-.39-.9.18-.07.57l3.27,1.6c-1,1.1-2,3.5-3.95,4.77-.73.49-.58.91.18.48,2.88-1.64,3.54-4.33,4.77-4.71l5.37,2.24a26.32,26.32,0,0,0,2.86,1.16l-1.92,1.32a114,114,0,0,1-10.35,6.73,40.18,40.18,0,0,1-11.35,4.22c-.84.11-.75,1,.09.89,1.15-.13,6.56-1.43,7.75-1.83a14.62,14.62,0,0,0-2.13,5.58c-.22,1.07-.06,1.76.44,0,.76-2.63,2.13-5.24,3.84-6.33a72.56,72.56,0,0,0,7.09-4.05,28.66,28.66,0,0,0-2.06,7.91c-.19,1.5.19,1.73.56,0,.08-.37.14-.76.19-1.12a18.28,18.28,0,0,1,4.57-9l2.08-1.43a85.14,85.14,0,0,1,9.29-5.9,25.48,25.48,0,0,1,3.48-1.45c-2.77,3.63-5.2,10.46-4.35,16,.18,1.15.54,1.17.37,0a16.2,16.2,0,0,1,1.06-7.11c.26,2.52.77,5.94,2,8,.56,1,.82.55.26-.42-1.24-2.12-1.57-7.79-1.21-10.3,1.48-3.19,3.67-5.91,5.26-6.77l0,0a30.63,30.63,0,0,1,3.66-.5,145.11,145.11,0,0,0,15.16,8.21c.25,19.94,6.75,41.94,6,57.9-11,5.09-46.21-5.28-60,3.46a11.29,11.29,0,0,0-5.27,7.62c-6.17,1.78-7.5,9.64-4.43,13.66-2.18,2.34-2.87,4.09-2.81,5.62-3.51,1.27-4.54,5.78-2.92,8.12a5.43,5.43,0,0,0-1.94,3.29v.42c.13,1.78,1.86,3.16,1.6,5.89l.14,0c.41-4.48-3.2-5.19.64-9.07,1.71,1.92,5.08,3.19,2,6.84l0,.23a6.69,6.69,0,0,0,1.56-2.8c3,.66-.34,5.77.76,8.35l.09,0c-1-2.33,3.3-8.46-.8-9.09-.16-2.22-3.11-3.34-3.78-5.3a4.48,4.48,0,0,1,2.73-5.93c.64,2.76,3.39,5,3.31,9.35l.23.06c.13-7.45-5.95-8.62-.06-15.06,3.08,3.18,8.82,5.29,4.19,11.35l.08.39a9.82,9.82,0,0,0,2.24-4.66c5,1.1.16,9.58,2.31,13.87l.08,0,.07,0-.07-.15a8.93,8.93,0,0,1,0-4.7c.6-3.35,1.69-7.15,0-9.07a3.77,3.77,0,0,0-2.4-1.17c-.54-3.68-5.57-5.55-6.93-8.79-1.63-3.91-.47-8.47,3.82-9.86a17.91,17.91,0,0,0-.08,2c.06,4.23,3.06,6.89,5.59,9.7,1.94,2.15,3.6,4.39,3.44,7.49l.46.19c.19-3.78-1.71-6.36-3.74-8.8a18.73,18.73,0,0,0,2.24.76c9.88,2.92,8.18,10.37,7.39,17.56l.3.2c.26-2.39.71-4.64.9-6.77a4.23,4.23,0,0,1,2.7,5.63c-.64,1.85-3.41,2.91-3.57,5-3.86.6.18,6.37-.76,8.57l.09,0c1-2.43-2.08-7.25.72-7.87a6.18,6.18,0,0,0,1.48,2.64l0-.22c-2.89-3.44.28-4.64,1.89-6.44,3.62,3.65.22,4.32.61,8.55l.12,0c-.37-4,3.82-4.94-.31-9a5.41,5.41,0,0,0-2.94-7.72,10.18,10.18,0,0,0-7-10.82c-.21-1.47,1.79-4.54-.39-4.88-.09-1.25-1.75-1.89-2.13-3a2.6,2.6,0,0,1,1-3.1c4.23,2.36,11.11,3.13,8.73,11.84h.39c1.92-7.06-.42-9.16-4.46-11s-9.36-3.59-3.79-9.5a24.26,24.26,0,0,1,5.2-.9,3.74,3.74,0,0,0-1.22,2.16c-.46,3.86,7.78,2.06,4.95,8.62h.2c2.76-6.4-3.81-5.51-4.31-8.21-.16-.88.34-1.75,1.5-2.64a74.22,74.22,0,0,1,10.79.48c-4.37,2.63-4.81,8.89-2.21,12.56-4.79,5.14-2.18,7.44-.32,10.88a7.53,7.53,0,0,0-2,2h0a3.61,3.61,0,0,0-.63,1.59c-.54,4.63,9.35,2.47,5.94,10.33h.25c2.21-5.1.29-6.1-2.67-7.57-1.49-.74-3.78-1.68-2.24-4h0a6.39,6.39,0,0,1,1.67-1.65,9.42,9.42,0,0,1,1,4.39l.23,0c.13-7.44-6-8.61-.05-15,3.07,3.17,8.81,5.29,4.18,11.35l.08.39a10,10,0,0,0,2.25-4.66c5,1.1.16,9.58,2.3,13.87l.15,0c-1.93-3.88,4.42-14-2.46-15.09-.54-3.68-5.57-5.55-6.93-8.8a7.7,7.7,0,0,1,4.87-10.11c3.37.41,6.83.9,10.26,1.34a4.42,4.42,0,0,1,1.19,4.85c-.64,1.85-3.41,2.91-3.57,5-3.87.6.18,6.37-.76,8.57l.09,0c1-2.43-2.08-7.25.72-7.88a6.11,6.11,0,0,0,1.47,2.65l0-.22c-2.88-3.44.29-4.64,1.9-6.45,3.62,3.66.22,4.32.61,8.56l.12,0c-.37-4,3.82-4.93-.31-9.05a5.35,5.35,0,0,0-.4-5.87c3.34.43,6.64.79,9.79,1a8.88,8.88,0,0,0-.92,11,10.07,10.07,0,0,0-2.47,3.86V847c-6.24,1.44-7.64,9.18-4.65,13.09-6.4,6.88.72,8.4.6,15.13l.22,0c.12-7.07-5.65-8.18-.06-14.29,2.92,3,8.37,5,4,10.77l.07.37a9.46,9.46,0,0,0,2.14-4.42c4.75,1,.15,9.09,2.18,13.17l.15,0c-1.84-3.68,4.19-13.33-2.34-14.32-.52-3.5-5.29-5.27-6.58-8.36-1.61-3.84-.37-8.36,4.09-9.49,0,3.12,3.35,5.29,3.27,9.89l.21.05c.12-7.07-5.65-8.18-.05-14.29,2.92,3,8.37,5,4,10.77l.08.37a9.52,9.52,0,0,0,2.13-4.42c4.76,1.05.15,9.09,2.19,13.17l.14,0c-1-1.92.23-5.47.65-8.57a5.31,5.31,0,0,1,3.23,7c-.79,2.32-4.28,3.65-4.47,6.27-4.85.75.22,8-.95,10.76l.11,0c1.3-3-2.61-9.1.9-9.88a7.72,7.72,0,0,0,1.85,3.32l0-.28c-3.62-4.31.35-5.82,2.37-8.08,4.55,4.59.28,5.42.77,10.72l.16,0c-.47-5,4.79-6.19-.4-11.35,1.92-2.78.69-8.14-3.49-9.61.15-2.33-.41-4.21-3.11-4.62-.51-3.5-5.29-5.27-6.58-8.36-1.43-3.41-.6-7.36,2.71-9a38.17,38.17,0,0,0,11.1-1,4.71,4.71,0,0,1,3,6.25c-.8,2.14-4.28,3.37-4.47,5.79-4.85.69.22,7.38-.95,9.92l.11,0c1.29-2.82-2.61-8.4.9-9.12a7,7,0,0,0,1.85,3.06l0-.26c-3.63-4,.35-5.37,2.37-7.45,4.55,4.23.27,5,.76,9.89l.17,0c-.29-2.86,1.57-4.36,1.86-6.19a2.9,2.9,0,0,1,2.11,3.9c-.49,1.31-2.62,2.07-2.74,3.55-3,.42.14,4.52-.58,6.07l.07,0c.79-1.73-1.6-5.14.55-5.58a4.32,4.32,0,0,0,1.13,1.87l0-.16c-2.22-2.44.21-3.29,1.45-4.56,2.78,2.59.17,3.06.47,6.06l.1,0c-.29-2.86,2.93-3.5-.25-6.42,1.2-1.61.39-4.74-2.31-5.49-.1-1-.71-2.07-2.29-3.53,1.64-2.2,1-6.16-1.9-8.09,5.13-1.89,6.26-1.89,11.38,0-2.86,1.93-3.53,5.89-1.89,8.09-5.18,4.76.07,5.82-.39,10.48l.16,0c.49-4.89-3.79-5.66.76-9.9,2,2.09,6,3.48,2.38,7.47l0,.25a7,7,0,0,0,1.85-3.06c3.51.72-.4,6.3.9,9.12l.12,0c-1.18-2.54,3.89-9.23-1-9.92-.19-2.42-3.67-3.65-4.47-5.78a4.72,4.72,0,0,1,3.05-6.26,37,37,0,0,0,10.56,1c3.07,1.72,3.8,5.53,2.41,8.84-1.29,3.08-5.65,4.17-6.16,7.66-2.91.44-3.25,2.76-2.89,5.52-4,1.57-5.19,6.8-3.3,9.54-5.19,5.16.07,6.31-.4,11.35l.16,0c.49-5.3-3.78-6.13.76-10.72,2,2.26,6,3.77,2.38,8.08l0,.28a7.72,7.72,0,0,0,1.85-3.32c3.51.78-.4,6.83.9,9.88l.11,0c-1.17-2.77,3.9-10-.95-10.76-.19-2.62-3.68-4-4.47-6.27a5.32,5.32,0,0,1,3.09-7c.57,3.19,1.7,6.69.79,8.52l.14,0c2-4.08-2.57-12.12,2.19-13.17a9.52,9.52,0,0,0,2.13,4.42l.08-.37c-4.4-5.75,1.05-7.76,4-10.77,5.6,6.11-.18,7.22-.05,14.29l.22-.05c-.09-4.6,3.22-6.77,3.26-9.89,4.46,1.13,5.7,5.65,4.09,9.49-1.29,3.09-6.06,4.86-6.58,8.36-6.53,1-.5,10.64-2.34,14.32l.15,0c2-4.08-2.57-12.12,2.19-13.17a9.32,9.32,0,0,0,2.13,4.42l.07-.37c-4.39-5.75,1.06-7.76,4-10.77,5.59,6.11-.18,7.22-.05,14.29l.21,0c-.12-6.73,7.27-8.25.88-15.13a9.1,9.1,0,0,0-5.27-13.72,12.38,12.38,0,0,0-2.12-3,8.88,8.88,0,0,0-.92-11c3.15-.19,6.45-.55,9.79-1a5.35,5.35,0,0,0-.4,5.87c-4.13,4.12.06,5-.31,9.05l.12,0c.39-4.24-3-4.9.61-8.56,1.61,1.81,4.78,3,1.9,6.45l0,.22a6.11,6.11,0,0,0,1.47-2.65c2.8.63-.32,5.45.72,7.88l.09,0c-.94-2.2,3.1-8-.76-8.57-.15-2.09-2.93-3.15-3.56-5a4.38,4.38,0,0,1,1.18-4.84c3.57-.47,7.16-1,10.65-1.4V830c4.82,1.11,6.19,5.93,4.47,10-1.36,3.25-6.39,5.12-6.93,8.8-6.88,1-.53,11.21-2.46,15.09l.15,0c2.14-4.29-2.71-12.77,2.3-13.87a10,10,0,0,0,2.25,4.66l.08-.39c-4.63-6.06,1.11-8.18,4.18-11.35,5.9,6.44-.18,7.61-.05,15l.22,0a10,10,0,0,1,1-4.43,6.75,6.75,0,0,1,1.72,1.69h0c1.54,2.33-.75,3.27-2.24,4-3,1.47-4.88,2.47-2.67,7.57h.25c-3.4-7.86,6.48-5.7,5.94-10.33a3.61,3.61,0,0,0-.63-1.59h0a7.63,7.63,0,0,0-2-2c1.74-3.42,4.09-5.72-.67-10.84a9.27,9.27,0,0,0-2-12.53,74.08,74.08,0,0,1,11.16-.5,5.34,5.34,0,0,1,1.15,1.19c1.28,1.94-.63,2.73-1.86,3.34h0c-2.48,1.23-4.07,2.06-2.23,6.31h.2c-2.83-6.56,5.41-4.76,4.95-8.62a3,3,0,0,0-.52-1.32h0a5.38,5.38,0,0,0-.7-.84,24.26,24.26,0,0,1,5.2.9,8.1,8.1,0,0,1,2.23,2.6h0c1.8,3.6-2,5.07-4.46,6.21h0c-5,2.28-8.18,3.82-6,11.72h.38c-2.37-8.71,4.51-9.48,8.74-11.84a2.6,2.6,0,0,1,1,3.1c-.39,1.11-2.05,1.74-2.15,3-2.17.34-.17,3.41-.38,4.88a10.12,10.12,0,0,0-2.77,1.39c-3.67,2.82-4.39,6-4.23,9.43a5.41,5.41,0,0,0-2.93,7.72c-4.13,4.11.06,5-.31,9l.12,0c.39-4.23-3-4.9.61-8.55,1.61,1.8,4.78,3,1.9,6.44l0,.22a6.25,6.25,0,0,0,1.47-2.64c2.8.62-.32,5.44.72,7.87l.09,0c-.94-2.2,3.1-8-.76-8.57-.16-2.09-2.93-3.15-3.57-5a4.23,4.23,0,0,1,2.7-5.63c.19,2.13.64,4.38.9,6.77l.3-.2c-.79-7.19-2.49-14.64,7.39-17.56a18.73,18.73,0,0,0,2.24-.76c-2,2.44-3.93,5-3.74,8.8l.46-.19c-.16-3.1,1.5-5.34,3.44-7.49,2.53-2.81,5.53-5.47,5.59-9.7a17.91,17.91,0,0,0-.08-2c4.29,1.39,5.45,5.95,3.82,9.86-1.36,3.24-6.39,5.11-6.93,8.79a3.77,3.77,0,0,0-2.4,1.17c-1.68,1.92-.59,5.72,0,9.06.33,1.83.51,3.53,0,4.71a1,1,0,0,1-.07.15l.07,0,.08,0c2.15-4.29-2.7-12.77,2.31-13.87a9.82,9.82,0,0,0,2.24,4.66l.08-.39c-4.63-6.06,1.11-8.17,4.19-11.35,5.89,6.44-.19,7.61-.06,15.06l.23-.06c-.08-4.31,2.67-6.59,3.31-9.35a4.48,4.48,0,0,1,2.73,5.93c-.68,2-3.62,3.08-3.78,5.3-4.1.64.19,6.76-.81,9.09l.1,0c1.1-2.58-2.21-7.69.76-8.35a6.71,6.71,0,0,0,1.56,2.81l0-.24c-3.07-3.65.3-4.93,2-6.83,3.84,3.87.23,4.58.64,9.06l.13,0c-.25-2.72,1.47-4.1,1.61-5.88V868a5.49,5.49,0,0,0-1.93-3.28c1.61-2.34.57-6.86-2.93-8.12.06-1.53-.63-3.28-2.81-5.62,3.07-4,1.74-11.88-4.42-13.66a11.43,11.43,0,0,0-5.28-7.65c-14.14-9-50.94,2.34-60.45-4.1-3.44-18.74-9-37.07-9.68-56.35.37-4,5-13.46,10.43-19.9a28.18,28.18,0,0,1,3.64.5l0,0c1.6.85,3.79,3.58,5.27,6.77.36,2.51,0,8.18-1.21,10.3-.56,1-.3,1.38.26.42,1.23-2.12,1.74-5.53,2-8.05a16.33,16.33,0,0,1,1.06,7.11c-.18,1.16.19,1.14.36,0,.85-5.57-1.57-12.39-4.34-16a26.2,26.2,0,0,1,3.47,1.46,84.25,84.25,0,0,1,9.3,5.9l2.08,1.43a18.46,18.46,0,0,1,4.57,9c.05.36.1.75.18,1.12.37,1.73.76,1.51.56,0a28.16,28.16,0,0,0-2.05-7.92,68.56,68.56,0,0,0,7.08,4c1.71,1.1,3.08,3.71,3.84,6.34.51,1.74.66,1,.45,0a14.65,14.65,0,0,0-2.14-5.57c1.2.4,6.6,1.7,7.75,1.83.84.1.93-.78.09-.89a40.29,40.29,0,0,1-11.35-4.22,111.73,111.73,0,0,1-10.35-6.74l-1.91-1.32a26.26,26.26,0,0,0,2.86-1.15l5.37-2.24c1.23.38,1.88,3.07,4.77,4.71.75.43.91,0,.17-.48-1.94-1.28-3-3.68-3.94-4.77l3.26-1.6c.84-.39.77-1-.07-.57-3.18,1.48-6.44,2.58-9.6,4a7.81,7.81,0,0,1-4.9.56.5.5,0,0,0-.24,0,52.06,52.06,0,0,0-5.19-3.08,31.46,31.46,0,0,0-9.28-3c1.44-1.66,2.82-3.21,4.07-4.56,3.33-1.86,13.69-2.65,19.4-.2,2.58,1.11,3.41,0,.83-1.15a36.53,36.53,0,0,0-8.38-2.12,78,78,0,0,0,11.63-5.3c2.2-1.17,4.51-2.6,6.89-4.16a.76.76,0,0,0,.33-.08,13.83,13.83,0,0,1,6.59-.42c4.29.81,8.7,1.26,13,2.11,1.13.23,1.21-.36.07-.59l-4.42-1c1.28-1.3,2.6-3.93,5.17-5.62,1-.64.76-1-.24-.45-3.84,2.24-4.65,5.09-6.3,5.72l-7.27-1.17a37.16,37.16,0,0,0-3.87-.6l2.54-1.71c3.18-2.16,8.36-5.87,13.74-8.89a73.56,73.56,0,0,1,15.15-6.54c1.11-.29,1-1.15-.16-.89-1.54.37-8.76,2.76-10.36,3.42a15,15,0,0,0,2.73-6.07c.26-1.12,0-1.78-.6.08-1,2.81-2.73,5.72-5,7.17-2.79,1.42-6.6,3.71-9.42,5.51a26,26,0,0,0,2.57-8.4c.22-1.56-.31-1.7-.76.11-.1.39-.16.8-.23,1.17-.54,3.34-3.49,7.85-5.91,10l-2.75,1.87c-4.35,3-8.56,5.81-12.35,7.83a48,48,0,0,1-4.62,2.17c3.62-4.23,6.71-11.61,5.43-17.06-.27-1.14-.77-1.08-.5,0,.44,1.89-.12,4.6-1.23,7.4-.43-2.49-1.21-5.84-2.92-7.73-.77-.86-1.11-.38-.34.48,1.72,1.89,2.31,7.55,1.89,10.16-1.9,3.51-4.77,6.71-6.9,7.89l0,0a64.42,64.42,0,0,1-16.65,2.75c-.33.05-.56.4-.68.87l-14.77,21.46c.23-4,.41-12.15,1.08-16.36.62-3.8,1.44-7.83,2.42-12,6.7-3.27,9.09-4.53,15.21-10.68,1.24-1.24,2.5-2.68,3.78-4.21a.86.86,0,0,0,.2-.13,9.61,9.61,0,0,1,4.34-1.64c3.05-.34,6.11-1,9.18-1.26.81-.08.75-.5-.06-.42l-3.18.27c.6-1.14.94-3.18,2.32-4.84.53-.63.3-.85-.25-.25-2.12,2.3-2.08,4.38-3.06,5.14l-5.12.71c-.87.1-1.84.21-2.73.4l1.36-1.67c1.69-2.11,4.4-5.67,7.39-8.81a51.51,51.51,0,0,1,8.84-7.52c.69-.42.42-1-.29-.57-1,.57-5.32,3.67-6.26,4.44a10.3,10.3,0,0,0,.58-4.64c-.05-.81-.34-1.21-.38.17a9.83,9.83,0,0,1-1.89,5.85c-1.58,1.53-3.67,3.86-5.19,5.65a18.12,18.12,0,0,0,0-6.18c-.17-1.09-.55-1.07-.48.24a7.27,7.27,0,0,0,.09.83,14.51,14.51,0,0,1-1.92,7.92L254.74,713c-2.32,2.88-4.56,5.67-6.69,7.81a33.08,33.08,0,0,1-2.66,2.41c1.56-3.59,2.12-9.19.13-12.59-.41-.7-.73-.56-.32.14a9.57,9.57,0,0,1,.7,5.23c-.8-1.59-2-3.68-3.56-4.59-.69-.42-.82,0-.13.39,1.55.91,3.11,4.59,3.37,6.43a15.24,15.24,0,0,1-3,6.73l0,0a41.27,41.27,0,0,1-8.09,4.3c1.51-6.21,3.29-12.74,5.1-19.39.7-2.58,1.41-5.18,2.11-7.79,4.67-11.22,17.7-23.56,29.69-28.18h0c1.82-.14,5.13,1,8.09,2.86,1.65,1.91,4.43,6.86,4.54,9.32,0,1.12.49,1.33.44.22-.11-2.45-1.51-5.59-2.65-7.87a16.12,16.12,0,0,1,4.73,5.43c.47,1.06.77.85.3-.22-2.29-5.15-8-9.59-12.3-11.16a28.09,28.09,0,0,1,3.71-.65,87.08,87.08,0,0,1,11,0l2.52.09a18.4,18.4,0,0,1,8.69,5.09c.23.27.49.57.76.84,1.24,1.27,1.44.87.47-.3a28.66,28.66,0,0,0-6-5.55,71.3,71.3,0,0,0,8.14-.41c2,0,4.6,1.46,6.66,3.27,1.36,1.2,1.12.53.36-.26a14.51,14.51,0,0,0-4.81-3.54c1.23-.31,6.48-2.13,7.51-2.64.77-.37.37-1.15-.4-.8a40,40,0,0,1-11.83,2.57,111.41,111.41,0,0,1-12.35-.09l-2.32-.09a26.48,26.48,0,0,0,1.79-2.51l3.31-4.78c1.24-.34,3.24,1.57,6.56,1.39.87,0,.77-.48-.11-.49-2.33,0-4.48-1.5-5.9-1.89l1.89-3.11c.49-.78.13-1.22-.37-.44-1.88,3-4,5.65-5.93,8.55a7.76,7.76,0,0,1-3.82,3.12.44.44,0,0,0-.22.1,52.43,52.43,0,0,0-6,.2c-11.63,1.2-25.32,11-33,19.77,1.21-4.9,2.4-10.95,3.39-16.62,9.9-4.83,13.26-6.53,22.12-15.43,1.76-1.76,3.55-3.81,5.37-6a1,1,0,0,0,.29-.18,13.78,13.78,0,0,1,6.18-2.33c4.33-.49,8.68-1.35,13.06-1.8,1.15-.12,1-.71-.1-.59l-4.52.39c.85-1.62,1.34-4.53,3.31-6.89.74-.9.42-1.21-.37-.36-3,3.27-2.95,6.23-4.34,7.32l-7.3,1A38,38,0,0,0,278,649c.64-.78,1.27-1.58,1.93-2.38,2.4-3,6.27-8.06,10.52-12.53a73.36,73.36,0,0,1,12.56-10.69c1-.6.6-1.39-.41-.81-1.36.81-7.56,5.22-8.9,6.31a14.85,14.85,0,0,0,.83-6.6c-.08-1.15-.49-1.72-.55.25-.09,3-.93,6.27-2.68,8.32-2.25,2.17-5.22,5.48-7.38,8a25.65,25.65,0,0,0,0-8.78c-.24-1.55-.78-1.54-.69.33,0,.4.08.81.13,1.19.46,3.34-1,8.52-2.72,11.27l-2.08,2.59c-3.3,4.1-6.48,8.06-9.51,11.11-1.24,1.24-2.5,2.37-3.79,3.43,2.22-5.11,3-13.07.19-17.91-.6-1-1.05-.8-.46.2,1,1.67,1.23,4.44,1,7.43-1.14-2.25-2.86-5.22-5.06-6.52-1-.6-1.17,0-.18.55,2.2,1.31,4.42,6.54,4.79,9.15-.79,3.93-2.6,7.82-4.29,9.58l0,0A58.74,58.74,0,0,1,248.92,669c.31-1.87.57-3.65.8-5.27l.8-7.28c1.07-7.81-3.06-22.48-.39-26.87a20.46,20.46,0,0,1,4.73-4.71c2.38-.84,8-1.61,10.34-.8,1.05.36,1.42,0,.36-.34-2.31-.79-5.76-.64-8.29-.42a16.16,16.16,0,0,1,6.78-2.4c1.17-.06,1.08-.41-.09-.36-5.63.24-11.86,3.94-14.89,7.35a28.42,28.42,0,0,1,.75-3.69,87.27,87.27,0,0,1,4-10.26c.34-.77.67-1.54,1-2.31a18.48,18.48,0,0,1,7.93-6.22c.34-.12.71-.25,1.06-.39,1.63-.7,1.34-1-.1-.56a28.86,28.86,0,0,0-7.37,3.54,69.58,69.58,0,0,0,2.6-7.73c.76-1.88,3.05-3.73,5.49-5,1.62-.83.9-.85-.11-.43a14.85,14.85,0,0,0-5.06,3.17,79.34,79.34,0,0,0,.3-8c-.06-.85-.94-.77-.89.07a39.74,39.74,0,0,1-1.95,12,111,111,0,0,1-4.61,11.45q-.47,1.08-.93,2.13a27.13,27.13,0,0,0-1.68-2.58l-3.23-4.84c.14-1.28,2.65-2.44,3.7-5.59.28-.82-.17-.89-.5-.08-.89,2.16-3,3.62-3.92,4.8l-2.2-2.9c-.55-.75-1.1-.57-.55.18,2.07,2.84,3.78,5.83,5.78,8.65a7.78,7.78,0,0,1,1.5,4.7.48.48,0,0,0,0,.24c-.53,1.29-1,2.54-1.43,3.75a21.89,21.89,0,0,0-6.52-4.7,35.72,35.72,0,0,0-3.76-1.44.34.34,0,0,0-.12-.12,5.2,5.2,0,0,1-1.73-2.79c-.56-2.26-1.34-4.42-1.87-6.7-.15-.61-.47-.41-.33.2l.51,2.37c-1-.06-2.66.4-4.14-.09-.55-.19-.71.07-.17.29,2.05.83,3.73.07,4.44.55l1.05,3.74a19.45,19.45,0,0,0,.57,2l-1.48-.46a75.08,75.08,0,0,1-7.81-2.64,26.91,26.91,0,0,1-6.91-4.2c-.41-.4-.83,0-.43.42s3.46,2.84,4.17,3.3a9.71,9.71,0,0,0-3.81,1.19c-.65.33-1,.69.17.24a7.73,7.73,0,0,1,4.92-.61,47.45,47.45,0,0,0,5.05,2,19.42,19.42,0,0,0-5,2.19c-.87.52-.83.82.23.3l.67-.37a12.19,12.19,0,0,1,6.59-1.31l1.62.49a57.44,57.44,0,0,1,6.93,2.43,18.58,18.58,0,0,1,2.21,1.22,15.85,15.85,0,0,0-10.21,4.36c-.53.57-.39.77.15.2a10.78,10.78,0,0,1,4.17-2.39,14.72,14.72,0,0,0-3.4,4.39c-.27.69.06.65.33,0,.6-1.53,3.44-4,4.9-4.9a10.65,10.65,0,0,1,5.73,0h0a22.37,22.37,0,0,1,2.68,2.74C244.92,635.41,250,645.54,247,656c-4.89-2.28-9.94-4.18-14.46-7.23l0,0a15.77,15.77,0,0,1-3.12-7c.26-1.91,1.88-5.73,3.49-6.68.72-.43.59-.84-.14-.41-1.59,1-2.84,3.12-3.68,4.77a9.93,9.93,0,0,1,.72-5.42c.43-.73.1-.88-.33-.15-2.06,3.53-1.49,9.34.13,13.06a35.39,35.39,0,0,1-2.76-2.51,106.18,106.18,0,0,1-6.93-8.09l-1.52-1.89a15.08,15.08,0,0,1-2-8.23,7.56,7.56,0,0,0,.09-.86c.08-1.37-.32-1.37-.5-.24a19.13,19.13,0,0,0,0,6.4c-1.57-1.85-3.75-4.27-5.39-5.85a10.4,10.4,0,0,1-1.95-6.08c0-1.43-.34-1-.4-.17a10.94,10.94,0,0,0,.61,4.81c-1-.79-5.5-4-6.5-4.59-.73-.43-1,.14-.3.58a53.93,53.93,0,0,1,9.17,7.8c3.1,3.25,5.92,7,7.68,9.13.46.59.94,1.17,1.39,1.75a25.27,25.27,0,0,0-2.82-.42l-5.32-.74c-1-.79-1-3-3.17-5.33-.57-.62-.8-.39-.26.26,1.43,1.73,1.79,3.84,2.41,5l-3.3-.28c-.84-.08-.91.35-.07.43,3.2.33,6.37,1,9.53,1.31a10.23,10.23,0,0,1,4.51,1.7.57.57,0,0,0,.21.13c1.32,1.59,2.63,3.09,3.91,4.37,6.44,6.47,13.41,9.33,20.84,12.92-.41,3.32-.91,6.76-1.51,10.23a21.57,21.57,0,0,0-5.95-4.14,35.72,35.72,0,0,0-3.76-1.44.31.31,0,0,0-.12-.11,5.21,5.21,0,0,1-1.73-2.8c-.56-2.25-1.34-4.42-1.87-6.7-.15-.61-.48-.4-.33.2l.51,2.37c-1-.06-2.66.4-4.14-.09-.55-.18-.71.07-.17.29,2.05.83,3.73.07,4.44.55l1.05,3.74a17.24,17.24,0,0,0,.58,2l-1.49-.45a77.1,77.1,0,0,1-7.81-2.65,26.36,26.36,0,0,1-6.91-4.2c-.41-.39-.83,0-.43.42s3.46,2.84,4.17,3.3a9.71,9.71,0,0,0-3.81,1.19c-.65.33-1,.7.17.24a7.78,7.78,0,0,1,4.91-.61,45.61,45.61,0,0,0,5.06,2,19.25,19.25,0,0,0-5,2.19c-.87.52-.83.82.23.3a7.19,7.19,0,0,0,.67-.37,12.19,12.19,0,0,1,6.59-1.31l1.62.49a56.27,56.27,0,0,1,6.93,2.44,17.22,17.22,0,0,1,2.21,1.21,15.91,15.91,0,0,0-10.21,4.36c-.53.57-.39.77.14.2a10.91,10.91,0,0,1,4.18-2.39,14.84,14.84,0,0,0-3.4,4.39c-.27.69.06.65.33,0,.6-1.53,3.44-4.05,4.9-4.9a10.76,10.76,0,0,1,5.73,0h0a20.51,20.51,0,0,1,2.33,2.33c-2.7,14.62-7.09,29.32-9.51,38.27q-1,3.62-1.95,7.17c-1.26-2.85-2.92-5.79-4.4-8.41l-8.44-15.77c.15-4.26,5.27-5.44,7.37-16,.56-2.76-.75-2.78-1.1,0C225.82,684,221.28,686,219.31,690c-2.18-3.25-4.91-14.93-11.84-23.86a28.26,28.26,0,0,0-4.48-4,.52.52,0,0,0-.1-.23,7.82,7.82,0,0,1-.92-4.84c.43-3.44.51-6.88,1-10.36.13-.92-.44-.81-.57.1l-.56,3.59c-1.33-.61-3.93-.88-5.73-2.35-.67-.56-1-.29-.4.31,2.42,2.27,5.19,2.1,5.91,3.16l-.54,5.79a24.29,24.29,0,0,0-.26,3.07L199,658.93a113.3,113.3,0,0,1-9.5-7.89,40.53,40.53,0,0,1-7.39-9.59c-.36-.77-1.17-.43-.83.35.47,1.06,3.31,5.84,4.05,6.85a14.77,14.77,0,0,0-6-.38c-1.09.11-1.7.46.12.43,2.74-.06,5.63.48,7.19,1.79a68.17,68.17,0,0,0,6,5.56,28.71,28.71,0,0,0-8.16.39c-1.49.26-1.6.69.17.53.37,0,.76-.09,1.12-.15a18.39,18.39,0,0,1,9.93,1.7l2,1.57a84,84,0,0,1,8.39,7.13,26.58,26.58,0,0,1,2.42,2.88c-4.29-1.56-11.53-1.86-16.6.6-1.05.51-1,.87.09.36a16.23,16.23,0,0,1,7.11-1.1c-2.33,1-5.44,2.5-7.1,4.31-.75.82-.27.94.48.12,1.66-1.81,7-3.81,9.48-4.21,3.49.47,6.74,1.76,8,3l0,0c2.48,4.65,3.95,10.76,6.62,16.84,1.72,3.89,4.46,7.65,6.53,11.44-5-1.25-10-2.2-14.81-4.27l0,0a15.62,15.62,0,0,1-4.36-6.29c-.09-1.92.8-6,2.21-7.2.63-.56.42-.93-.21-.38-1.39,1.24-2.23,3.59-2.74,5.36a9.77,9.77,0,0,1-.29-5.46c.29-.79-.07-.88-.35-.08-1.39,3.85.24,9.45,2.52,12.81q-1.59-.87-3.18-2c-2.57-1.78-5.38-4.19-8.3-6.69-.6-.53-1.21-1.05-1.84-1.58a15.09,15.09,0,0,1-3.46-7.72c0-.28,0-.57-.06-.86-.18-1.36-.57-1.3-.54-.15a18.89,18.89,0,0,0,1.16,6.3c-1.88-1.54-4.47-3.52-6.37-4.77a10.3,10.3,0,0,1-3-5.62c-.3-1.4-.52-.93-.43-.09a11,11,0,0,0,1.48,4.61c-1.1-.6-6.14-2.93-7.23-3.32-.8-.29-1,.32-.18.63a53.75,53.75,0,0,1,10.44,6c3.64,2.64,7.09,5.75,9.22,7.58l1.69,1.45a26.65,26.65,0,0,0-2.84.11l-5.38.25c-1.13-.59-1.49-2.72-4.08-4.66-.68-.5-.87-.24-.22.3,1.73,1.44,2.47,3.45,3.29,4.5l-3.28.33c-.85.07-.84.5,0,.43,3.2-.26,6.44-.22,9.61-.45a10,10,0,0,1,4.74.84.63.63,0,0,0,.23.08c1.6,1.33,3.15,2.56,4.65,3.58,7.67,5.29,15.2,6.78,23.34,9q1.15,2.14,2.34,4.24c2.75,4.85,4.6,12.22,4.23,15.45a2.28,2.28,0,0,0,.07.83c-1.69,6.69-3.15,13.11-4.11,19.08a140.18,140.18,0,0,0-1.74,18.77,84.32,84.32,0,0,1-18.18-9.4l0,0c-2.39-2.5-5-8-6.07-13.58.51-3.71,3.66-11.13,6.78-13,1.41-.85,1.15-1.63-.26-.79-3.11,1.85-5.55,6.06-7.15,9.26-.36-4.25,0-8.16,1.39-10.54.83-1.42.19-1.7-.65-.28-4,6.86-2.89,18.15.26,25.38a70.58,70.58,0,0,1-5.37-4.86c-4.29-4.31-8.8-9.94-13.47-15.75l-3-3.67c-2.38-3.9-4.51-11.25-3.87-16,.08-.53.16-1.11.19-1.67.15-2.66-.63-2.67-1-.47-.07.4-1.25,7,0,12.45-3.06-3.62-7.29-8.32-10.47-11.39-2.47-2.92-3.67-7.6-3.79-11.81-.09-2.78-.67-2-.78-.34a21.05,21.05,0,0,0,1.17,9.35c-1.89-1.54-10.69-7.8-12.63-8.94C147,695.56,146.44,696.68,147.84,697.53Zm154.85,138.9a4.22,4.22,0,0,0,.52-1.91,5,5,0,0,0-.52-2.35l-.05-.11h0a6.38,6.38,0,0,0-.51-.87l.57.35c2.81,1.83,4.44,4.83,4.37,9.53a10.34,10.34,0,0,1-2.64,6.29,12.22,12.22,0,0,1-1.73.88c-1.31.55-2.71.94-4,1.4.3-1.52-1.23-4.07.34-4.42a3.82,3.82,0,0,0,.89,1.59l0-.14c-1.74-2.06.17-2.78,1.14-3.86,2.17,2.19.12,2.59.36,5.13l.07,0c-.22-2.41,2.3-3-.18-5.43a3.26,3.26,0,0,0-.73-4A5.74,5.74,0,0,0,302.69,836.43Zm-131.61-1.91a4.22,4.22,0,0,0,.52,1.91,5.74,5.74,0,0,0,2.08,2,3.26,3.26,0,0,0-.73,4c-2.47,2.47,0,3-.18,5.43l.07,0c.24-2.54-1.81-2.94.37-5.13,1,1.08,2.87,1.8,1.13,3.87l0,.13a3.77,3.77,0,0,0,.89-1.59c1.57.35,0,2.9.34,4.42-1.28-.46-2.68-.85-4-1.4a11.71,11.71,0,0,1-1.73-.88,10.34,10.34,0,0,1-2.64-6.29c-.07-4.7,1.56-7.7,4.37-9.53.18-.12.37-.24.57-.35a6.41,6.41,0,0,0-.57,1A4.9,4.9,0,0,0,171.08,834.52Z"/><path class="cls-7" d="M286.88,767.67c2.6-2.17,6.26-1.89,8.31-1.07,5.57,2.25,5.51,10.64,10,13.75-3.71-1.5-6.93-.75-10.84-1.19-5-.56-8.88-5.4-7.61-10.21a12.44,12.44,0,0,1,6.9,3.42c1.94,2,4.58,4.4,7.36,5.2-2.62-.86-5.47-4.15-6.77-5.7A14.09,14.09,0,0,0,286.88,767.67Z"/><path class="cls-7" d="M280.46,773.24a7.16,7.16,0,0,1,6,3.64c2.48,4.38-2,9.85-.66,14.21-1.65-2.92-4.15-4.11-6.49-6.44-3-3-3-8.18.36-10.68a10.5,10.5,0,0,1,2.73,5.86c.22,2.32.7,5.28,2.11,7.25-1.27-1.93-1.42-5.58-1.46-7.27A11.67,11.67,0,0,0,280.46,773.24Z"/><path class="cls-7" d="M278.15,762.86A7.18,7.18,0,0,1,279.8,756c3.42-3.69,10-1.13,13.74-3.69-2.28,2.46-2.66,5.2-4.17,8.14-1.93,3.74-6.89,5.34-10.28,2.9a10.44,10.44,0,0,1,4.75-4.38c2.15-.92,4.82-2.27,6.27-4.21-1.45,1.8-4.89,3-6.49,3.6A11.73,11.73,0,0,0,278.15,762.86Z"/><path class="cls-7" d="M269.41,771a8.25,8.25,0,0,0-5,6.37c-.87,5.72,6.13,9.78,6.53,15,.57-3.81,2.76-6.11,4.32-9.58,2-4.41-.14-10-4.76-11.3a12.06,12.06,0,0,0-.53,7.4c.71,2.58,1.41,5.95.71,8.65.57-2.6-.77-6.57-1.42-8.41A13.48,13.48,0,0,1,269.41,771Z"/><path class="cls-7" d="M254.2,767.69a6.66,6.66,0,0,0-4,5.14c-.69,4.61,4.95,7.88,5.27,12.07.46-3.07,2.23-4.92,3.48-7.72,1.59-3.55-.11-8.06-3.83-9.11a9.68,9.68,0,0,0-.43,6c.57,2.08,1.14,4.79.57,7,.46-2.09-.62-5.3-1.14-6.78A10.91,10.91,0,0,1,254.2,767.69Z"/><path class="cls-7" d="M250,768a5.21,5.21,0,0,0-5.07-.69c-3.41,1.34-3.42,6.46-6.15,8.33,2.28-.89,4.24-.42,6.63-.66,3.05-.32,5.45-3.26,4.7-6.2a7.57,7.57,0,0,0-4.23,2.06,11.41,11.41,0,0,1-4.53,3.13c1.61-.51,3.37-2.51,4.17-3.45A8.56,8.56,0,0,1,250,768Z"/><path class="cls-7" d="M275.45,748.89a6.75,6.75,0,0,0,6.54.89c4.41-1.73,4.41-8.35,7.94-10.76-2.94,1.15-5.47.54-8.56.86-3.93.41-7,4.2-6.06,8a9.77,9.77,0,0,0,5.46-2.66c1.54-1.56,3.64-3.43,5.84-4-2.07.65-4.34,3.23-5.38,4.45A11.1,11.1,0,0,1,275.45,748.89Z"/><path class="cls-7" d="M314.74,708.75c-.7-4,1.74-7.58,3.81-9.21,5.61-4.44,14.25.58,20.08-2.18-3.74,2.95-4.86,6.72-7.63,10.5-3.53,4.83-10.83,6-15.05,1.83a14.79,14.79,0,0,1,7.62-5.1c3.21-.83,7.25-2.14,9.72-4.55-2.44,2.21-7.53,3.21-9.89,3.64A16.69,16.69,0,0,0,314.74,708.75Z"/><path class="cls-7" d="M305.65,705.34a8,8,0,0,1-2.79-7.31c.81-5.55,8.45-7.33,10.29-12-.55,3.69.84,6.45,1.29,10.1.59,4.64-2.95,9.24-7.6,9.14a11.76,11.76,0,0,1,1.6-7c1.39-2.19,3-5.12,3.1-7.82-.2,2.57-2.57,5.88-3.69,7.4A13.12,13.12,0,0,0,305.65,705.34Z"/><path class="cls-7" d="M301.28,731.29a6.74,6.74,0,0,1,6.54-.85c4.4,1.76,4.37,8.38,7.88,10.82-2.93-1.17-5.47-.58-8.55-.92-3.94-.44-7-4.24-6-8a9.8,9.8,0,0,1,5.44,2.69c1.53,1.57,3.62,3.46,5.81,4.08-2.07-.66-4.32-3.26-5.34-4.48A11.16,11.16,0,0,0,301.28,731.29Z"/><path class="cls-7" d="M301,722.13a6.76,6.76,0,0,1,4.18-5.11c4.41-1.74,8.93,3.1,13.15,2.47-2.94,1.15-4.37,3.32-6.85,5.19-3.16,2.38-8,1.72-9.89-1.72a9.83,9.83,0,0,1,5.81-1.78c2.19.09,5,0,7-1-2,.94-5.38.59-7,.41A11.1,11.1,0,0,0,301,722.13Z"/><path class="cls-7" d="M293.44,709.35c3.56-.8,5.72-4.1,6.36-6.4,1.74-6.23-5.47-11.68-5.2-17.51-1.16,4.15-3.9,6.4-6.1,10-2.79,4.62-1.21,11.12,3.74,13.19a13.41,13.41,0,0,0,1.59-8.14c-.43-3-.75-6.8.4-9.7-1,2.81-.05,7.4.43,9.52A15.22,15.22,0,0,1,293.44,709.35Z"/><path class="cls-7" d="M314.48,666.61a8.25,8.25,0,0,1,4.68-6.6c5.24-2.49,11.16,3,16.28,1.92-3.5,1.65-5.07,4.43-7.95,6.92-3.66,3.18-9.64,2.77-12.23-1.28a12.06,12.06,0,0,1,6.95-2.66c2.69-.07,6.13-.37,8.51-1.83-2.32,1.31-6.53,1.17-8.48,1.08A13.52,13.52,0,0,0,314.48,666.61Z"/><path class="cls-7" d="M272.67,696a5.82,5.82,0,0,1,1.58-5.47c2.91-2.87,8.13-.55,11.26-2.48-1.93,1.91-2.34,4.11-3.67,6.43-1.7,3-5.77,4.07-8.43,2a8.45,8.45,0,0,1,4-3.37,12.74,12.74,0,0,0,5.23-3.19c-1.25,1.41-4.07,2.29-5.39,2.68A9.52,9.52,0,0,0,272.67,696Z"/><path class="cls-7" d="M272.33,716a5.59,5.59,0,0,0,2.82-4.67c.14-3.91-4.88-6.08-5.56-9.55-.08,2.61-1.38,4.32-2.15,6.77-1,3.12.88,6.71,4.08,7.22a8.14,8.14,0,0,0-.22-5,12.16,12.16,0,0,1-1.15-5.75c-.19,1.78,1,4.35,1.6,5.53A9.11,9.11,0,0,1,272.33,716Z"/><path class="cls-7" d="M274.7,724.47a5.6,5.6,0,0,0,5.37-1c3-2.51,1.28-7.7,3.41-10.51-2,1.67-4.14,1.85-6.48,2.91-3,1.34-4.42,5.12-2.67,7.85a8.11,8.11,0,0,0,3.59-3.51,12.17,12.17,0,0,1,3.52-4.69c-1.45,1.05-2.56,3.66-3.05,4.89A9.15,9.15,0,0,1,274.7,724.47Z"/><path class="cls-7" d="M267.42,727.2a5.81,5.81,0,0,0-1.81-5.41c-3-2.75-8.15-.22-11.37-2,2,1.83,2.51,4,3.94,6.29,1.83,2.89,5.94,3.84,8.52,1.63a8.47,8.47,0,0,0-4.15-3.21,12.82,12.82,0,0,1-5.37-3c1.3,1.35,4.17,2.12,5.5,2.45A9.54,9.54,0,0,1,267.42,727.2Z"/><path class="cls-7" d="M265.91,695.17a5.32,5.32,0,0,0,2.92-4.33c.31-3.74-4.38-6.06-4.87-9.4-.2,2.49-1.52,4.07-2.37,6.37-1.09,2.94.52,6.46,3.56,7.11a7.82,7.82,0,0,0,0-4.81,11.63,11.63,0,0,1-.83-5.56c-.26,1.7.78,4.21,1.28,5.37A8.85,8.85,0,0,1,265.91,695.17Z"/><path class="cls-7" d="M258.87,700.93a4.79,4.79,0,0,0,2-4.23c-.26-3.33-4.72-4.7-5.62-7.58.17,2.22-.76,3.8-1.18,6-.54,2.73,1.37,5.61,4.13,5.74a6.86,6.86,0,0,0-.66-4.23,10.51,10.51,0,0,1-1.52-4.77c0,1.53,1.29,3.59,1.89,4.54A7.85,7.85,0,0,1,258.87,700.93Z"/><path class="cls-7" d="M246,709.17a4.76,4.76,0,0,0,3.68-2.85c1.31-3.07-2-6.35-1.49-9.31-.87,2-2.42,3-3.79,4.72-1.74,2.18-1.37,5.62,1,7a7,7,0,0,0,1.37-4.06,10.46,10.46,0,0,1,.85-4.94c-.69,1.37-.52,3.79-.42,4.9A7.84,7.84,0,0,1,246,709.17Z"/><path class="cls-7" d="M249,737.27a6.38,6.38,0,0,0,4.94-3.82c1.76-4.12-2.7-8.51-2-12.49-1.17,2.75-3.26,4-5.09,6.34-2.33,2.93-1.83,7.53,1.37,9.39a9.2,9.2,0,0,0,1.83-5.44c0-2.07.1-4.73,1.15-6.62-.94,1.84-.7,5.07-.57,6.58A10.46,10.46,0,0,1,249,737.27Z"/><path class="cls-7" d="M312.7,676a6.4,6.4,0,0,1,6.25,0c3.91,2.18,3.07,8.39,6.07,11.1-2.61-1.46-5-1.21-7.91-1.9-3.63-.88-6.05-4.83-4.66-8.27a9.31,9.31,0,0,1,4.78,3.19c1.24,1.66,3,3.68,5,4.53-1.86-.88-3.66-3.58-4.48-4.85A10.37,10.37,0,0,0,312.7,676Z"/><path class="cls-7" d="M302.44,679.26A4.19,4.19,0,0,1,306.2,681c1.75,2.4-.46,5.9.59,8.35-1.17-1.59-2.71-2.12-4.23-3.32a4.22,4.22,0,0,1-.52-6.26,6.15,6.15,0,0,1,2,3.23,9.18,9.18,0,0,0,1.73,4.1c-.88-1-1.21-3.17-1.35-4.15A6.85,6.85,0,0,0,302.44,679.26Z"/><path class="cls-7" d="M308.61,667.17a6.09,6.09,0,0,1-3.7-4.66c-.69-4.22,4.44-7.27,4.7-11.11.45,2.8,2.09,4.49,3.26,7,1.49,3.24,0,7.38-3.41,8.38a8.86,8.86,0,0,1-.46-5.46,13.19,13.19,0,0,0,.45-6.39c.45,1.91-.51,4.86-1,6.22A9.93,9.93,0,0,0,308.61,667.17Z"/><path class="cls-7" d="M294.31,657.24a4.48,4.48,0,0,1-.87-4.29c1-3,5.34-3.28,6.79-5.72-.64,2-.13,3.64-.21,5.7a4.48,4.48,0,0,1-5,4.36,6.56,6.56,0,0,1,1.53-3.73,9.81,9.81,0,0,0,2.43-4c-.35,1.4-2,3-2.72,3.75A7.37,7.37,0,0,0,294.31,657.24Z"/><path class="cls-7" d="M299.33,664.36a3.28,3.28,0,0,1,3.05-1.09c2.29.38,3,3.56,4.9,4.37-1.53-.26-2.68.29-4.2.45a3.32,3.32,0,0,1-3.72-3.24,4.92,4.92,0,0,1,2.9.73,7.22,7.22,0,0,0,3.21,1.35,7.3,7.3,0,0,1-3-1.59A5.42,5.42,0,0,0,299.33,664.36Z"/><path class="cls-7" d="M289.5,661.91a4.9,4.9,0,0,1-4-2.63c-1.61-3.07,1.56-6.73.77-9.75,1.06,2,2.75,2.92,4.31,4.57,2,2.11,1.87,5.69-.49,7.33a7.26,7.26,0,0,1-1.74-4.09,10.78,10.78,0,0,0-1.29-5c.83,1.36.85,3.87.84,5A8,8,0,0,0,289.5,661.91Z"/><path class="cls-7" d="M283.39,676.5a4.92,4.92,0,0,1,3.91-2.82c3.44-.39,5.72,3.88,8.82,4.23-2.3.26-3.72,1.52-5.82,2.37a4.94,4.94,0,0,1-6.66-3.09,7.22,7.22,0,0,1,4.44-.15,10.77,10.77,0,0,0,5.15.61c-1.56.29-3.91-.6-5-1A8.13,8.13,0,0,0,283.39,676.5Z"/><path class="cls-7" d="M296.86,646.54a5.66,5.66,0,0,1-.51-5.52c1.61-3.63,7.16-3.4,9.32-6.26-1.08,2.42-.66,4.56-1,7.14-.49,3.28-3.78,5.74-6.93,4.79a8.21,8.21,0,0,1,2.42-4.48,12.39,12.39,0,0,0,3.61-4.75c-.62,1.71-2.87,3.52-3.93,4.34A9.31,9.31,0,0,0,296.86,646.54Z"/><path class="cls-7" d="M294.22,639.14a3.62,3.62,0,0,1-1.34-3.29c.31-2.52,3.75-3.41,4.54-5.57-.21,1.68.45,2.92.69,4.57a3.62,3.62,0,0,1-3.35,4.22,5.35,5.35,0,0,1,.65-3.19,7.88,7.88,0,0,0,1.33-3.58,8.1,8.1,0,0,1-1.6,3.39A5.92,5.92,0,0,0,294.22,639.14Z"/><path class="cls-7" d="M273.13,668.87a5.63,5.63,0,0,1-.51-5.52c1.61-3.63,7.16-3.39,9.32-6.26-1.08,2.42-.66,4.56-1,7.14-.49,3.29-3.78,5.75-6.93,4.79a8.25,8.25,0,0,1,2.42-4.48,12.32,12.32,0,0,0,3.61-4.75c-.62,1.72-2.87,3.52-3.93,4.35A9.27,9.27,0,0,0,273.13,668.87Z"/><path class="cls-7" d="M304.35,621.49a8.05,8.05,0,0,1,1.77-7.69c3.8-4.19,11.2-1.4,15.4-4.31-2.54,2.79-2.93,5.88-4.6,9.19-2.12,4.23-7.67,6.09-11.51,3.39a11.74,11.74,0,0,1,5.29-5c2.4-1.06,5.38-2.61,7-4.81-1.61,2-5.45,3.48-7.25,4.12A13.25,13.25,0,0,0,304.35,621.49Z"/><path class="cls-7" d="M294.08,620.41a6.47,6.47,0,0,1-4.76-4.16c-1.53-4.27,3.24-8.44,2.77-12.5,1,2.84,3.05,4.29,4.76,6.72,2.18,3.09,1.39,7.71-2,9.4a9.36,9.36,0,0,1-1.52-5.61c.16-2.09.19-4.79-.75-6.76.83,1.91.39,5.17.17,6.68A10.63,10.63,0,0,0,294.08,620.41Z"/><path class="cls-7" d="M282.81,628.36a5.37,5.37,0,0,1-2.6-4.57c0-3.77,4.86-5.74,5.6-9.06,0,2.51,1.22,4.2,1.9,6.58.86,3-1,6.44-4.12,6.85a7.72,7.72,0,0,1,.35-4.82,11.76,11.76,0,0,0,1.26-5.52c.13,1.73-1.11,4.17-1.7,5.29A8.83,8.83,0,0,0,282.81,628.36Z"/><path class="cls-7" d="M302.87,625a5.38,5.38,0,0,1,5.25-.3c3.39,1.65,3,6.91,5.63,9-2.26-1.1-4.3-.77-6.73-1.22-3.1-.57-5.33-3.77-4.32-6.73a7.75,7.75,0,0,1,4.17,2.45,11.79,11.79,0,0,0,4.38,3.58c-1.6-.65-3.24-2.84-4-3.87A8.74,8.74,0,0,0,302.87,625Z"/><path class="cls-7" d="M265,640.75a5.38,5.38,0,0,0-.31-5.25c-2-3.18-7.21-2.17-9.64-4.55,1.36,2.12,1.27,4.19,2,6.55.92,3,4.36,4.85,7.18,3.51a7.76,7.76,0,0,0-2.92-3.86,11.75,11.75,0,0,1-4.05-3.94c.83,1.52,3.19,2.89,4.3,3.51A8.84,8.84,0,0,1,265,640.75Z"/><path class="cls-7" d="M259.46,643a3,3,0,0,0-1.46-2.6c-1.83-1.11-4.21.69-6.05.08,1.22.74,1.69,1.82,2.65,2.84a3,3,0,0,0,4.53,0,4.37,4.37,0,0,0-2.44-1.24,6.64,6.64,0,0,1-3.05-1,6.74,6.74,0,0,0,3.07.72A5,5,0,0,1,259.46,643Z"/><path class="cls-7" d="M276.45,643.56a5.47,5.47,0,0,0,3.39-4.13c.68-3.78-3.88-6.59-4-10-.45,2.51-1.94,4-3,6.26-1.38,2.89-.08,6.63,2.95,7.57a8,8,0,0,0,.48-4.89,12,12,0,0,1-.31-5.74c-.43,1.71.39,4.37.79,5.59A9,9,0,0,1,276.45,643.56Z"/><path class="cls-7" d="M261.71,660.33a5.45,5.45,0,0,0,.9-5.27c-1.28-3.61-6.63-3.79-8.49-6.71.85,2.41.29,4.44.47,6.94.22,3.2,3.2,5.8,6.3,5.12a8,8,0,0,0-2-4.49,11.73,11.73,0,0,1-3.12-4.83c.48,1.7,2.5,3.6,3.45,4.47A8.88,8.88,0,0,1,261.71,660.33Z"/><path class="cls-7" d="M259.71,587.79c2.88-2,3.63-5.7,3.38-8-.67-6.17-9-8.46-10.88-13.75.45,4.11-1.19,7.1-1.85,11.12-.84,5.11,2.89,10.34,8,10.42a12.87,12.87,0,0,0-1.48-7.82c-1.44-2.49-3.09-5.79-3.1-8.78.11,2.85,2.59,6.61,3.77,8.33A14.54,14.54,0,0,1,259.71,587.79Z"/><path class="cls-7" d="M266.34,594a6.65,6.65,0,0,1,2.71-5.94c3.79-2.77,9.33.73,13.22-.94-2.53,1.84-3.36,4.28-5.26,6.7-2.43,3.07-7.24,3.65-9.9.83a9.64,9.64,0,0,1,5.11-3.16c2.12-.46,4.81-1.23,6.48-2.74-1.65,1.38-5,1.91-6.57,2.14A10.9,10.9,0,0,0,266.34,594Z"/><path class="cls-7" d="M256.51,594.34a5.36,5.36,0,0,0-2.19-4.78c-3-2.23-7.5.59-10.62-.75,2,1.48,2.69,3.44,4.22,5.38,2,2.47,5.83,2.94,8,.67a7.84,7.84,0,0,0-4.11-2.54,11.79,11.79,0,0,1-5.21-2.2c1.32,1.11,4,1.54,5.28,1.72A8.74,8.74,0,0,1,256.51,594.34Z"/><path class="cls-7" d="M265.46,604a5.35,5.35,0,0,1,3.81-3.62c3.66-.92,6.74,3.36,10.14,3.29-2.44.61-3.79,2.18-5.94,3.41-2.74,1.56-6.5.54-7.64-2.37a7.81,7.81,0,0,1,4.77-.81,11.91,11.91,0,0,0,5.66-.09c-1.65.53-4.31-.08-5.54-.39A8.81,8.81,0,0,0,265.46,604Z"/><path class="cls-7" d="M266.41,624a4.06,4.06,0,0,1,3.63-1.59c2.83.27,3.93,4.09,6.36,4.9-1.89-.18-3.25.59-5.08.91a4.06,4.06,0,0,1-4.82-3.62,5.88,5.88,0,0,1,3.59.64,9,9,0,0,0,4,1.37,9.07,9.07,0,0,1-3.84-1.68A6.66,6.66,0,0,0,266.41,624Z"/><path class="cls-7" d="M265,619.34a5.72,5.72,0,0,1,2.69-4.91c3.41-2.14,7.94,1.2,11.37,0-2.27,1.42-3.14,3.46-4.92,5.41-2.26,2.48-6.42,2.68-8.52.1a8.31,8.31,0,0,1,4.57-2.39,12.48,12.48,0,0,0,5.71-1.95c-1.49,1.09-4.4,1.33-5.75,1.43A9.35,9.35,0,0,0,265,619.34Z"/><path class="cls-7" d="M258.19,620.77a4.06,4.06,0,0,1-1.06-3.82c.67-2.76,4.6-3.3,5.76-5.59-.45,1.84.11,3.29.17,5.15a4,4,0,0,1-4.26,4.26,5.91,5.91,0,0,1,1.13-3.47,8.83,8.83,0,0,0,1.94-3.8c-.22,1.29-1.58,2.85-2.21,3.56A6.58,6.58,0,0,0,258.19,620.77Z"/><path class="cls-7" d="M241.84,603.58a6.09,6.09,0,0,1-5.8-1.32c-3.17-2.86-1.08-8.45-3.29-11.6,2.11,1.9,4.44,2.19,6.94,3.44,3.19,1.59,4.61,5.77,2.59,8.67a8.8,8.8,0,0,1-3.77-4c-.81-1.81-2-4-3.65-5.26,1.55,1.21,2.64,4.1,3.13,5.45A10,10,0,0,0,241.84,603.58Z"/><path class="cls-7" d="M249.79,611.22a3,3,0,0,1-1.14-2.67c.23-2.07,3-2.83,3.66-4.6-.15,1.38.4,2.38.62,3.73a3,3,0,0,1-2.7,3.49,4.33,4.33,0,0,1,.5-2.63,6.55,6.55,0,0,0,1.05-2.94,6.49,6.49,0,0,1-1.28,2.79A4.89,4.89,0,0,0,249.79,611.22Z"/><path class="cls-7" d="M249,601.78a3.52,3.52,0,0,1-3.19-1.34c-1.53-2,.22-4.94-.72-7,1,1.31,2.32,1.7,3.63,2.67a3.54,3.54,0,0,1,.6,5.22,5.11,5.11,0,0,1-1.75-2.65,7.76,7.76,0,0,0-1.56-3.38,7.87,7.87,0,0,1,1.24,3.44A5.8,5.8,0,0,0,249,601.78Z"/><path class="cls-7" d="M271.19,675.17A5.15,5.15,0,0,0,269,679.7c.21,3.61,5,5.19,5.92,8.32-.14-2.41.9-4.09,1.41-6.41.64-3-1.37-6.1-4.36-6.3a7.46,7.46,0,0,0,.63,4.59,11.35,11.35,0,0,1,1.54,5.2c0-1.66-1.31-3.92-1.95-5A8.49,8.49,0,0,1,271.19,675.17Z"/><path class="cls-7" d="M266.91,671.65a3.8,3.8,0,0,1-2.38-2.89c-.48-2.64,2.71-4.61,2.83-7,.32,1.76,1.36,2.8,2.13,4.38a3.83,3.83,0,0,1-2.06,5.31,5.51,5.51,0,0,1-.34-3.42,8.46,8.46,0,0,0,.22-4,8.63,8.63,0,0,1-.55,3.92A6.16,6.16,0,0,0,266.91,671.65Z"/><path class="cls-7" d="M219.52,606a8.22,8.22,0,0,0-3.94-7c-4.93-3-11.36,1.85-16.3.21,3.28,2,4.55,4.91,7.13,7.67,3.29,3.52,9.25,3.74,12.23,0a12,12,0,0,0-6.6-3.35c-2.65-.34-6-1-8.22-2.69,2.16,1.53,6.33,1.83,8.27,2A13.43,13.43,0,0,1,219.52,606Z"/><path class="cls-7" d="M230.13,608.3a4.68,4.68,0,0,0,.26-4.57c-1.43-3-6-2.6-7.87-4.91,1,2,.67,3.75,1.06,5.87a4.68,4.68,0,0,0,5.86,3.76,6.8,6.8,0,0,0-2.13-3.63A10.13,10.13,0,0,1,224.2,601c.56,1.4,2.47,2.83,3.36,3.48A7.63,7.63,0,0,1,230.13,608.3Z"/><path class="cls-7" d="M238.12,614.3a3.45,3.45,0,0,1-.2-3.36c1.06-2.17,4.42-1.92,5.79-3.61-.7,1.45-.5,2.76-.78,4.31a3.43,3.43,0,0,1-4.3,2.76,4.94,4.94,0,0,1,1.56-2.66,7.61,7.61,0,0,0,2.29-2.81,7.66,7.66,0,0,1-2.47,2.55A5.7,5.7,0,0,0,238.12,614.3Z"/><path class="cls-7" d="M219.41,613.3a3.72,3.72,0,0,1-1.58,3.3c-2.15,1.52-5.22-.51-7.42.39,1.43-1,1.93-2.37,3-3.7a3.75,3.75,0,0,1,5.56-.36,5.5,5.5,0,0,1-2.9,1.72,8.09,8.09,0,0,0-3.66,1.46,8.35,8.35,0,0,1,3.7-1.13A6.13,6.13,0,0,0,219.41,613.3Z"/><path class="cls-7" d="M201.2,618.84a5.73,5.73,0,0,0-.82-5.56c-2.47-3.2-7.89-1.62-10.71-3.93,1.64,2.13,1.75,4.34,2.75,6.79,1.27,3.13,5.11,4.76,8,3.05a8.45,8.45,0,0,0-3.48-3.83,12.58,12.58,0,0,1-4.71-3.81c1,1.54,3.68,2.78,4.92,3.34A9.33,9.33,0,0,1,201.2,618.84Z"/><path class="cls-7" d="M208.53,618.07a3,3,0,0,0,1.56-2.5c.1-2.11-2.59-3.33-2.93-5.2-.07,1.4-.78,2.32-1.21,3.64a3,3,0,0,0,2.14,3.93,4.34,4.34,0,0,0-.08-2.71,6.68,6.68,0,0,1-.58-3.12,6.84,6.84,0,0,0,.83,3A4.93,4.93,0,0,1,208.53,618.07Z"/><path class="cls-7" d="M224.55,617.38a3,3,0,0,0-2.91-.5c-2,.71-2.09,3.66-3.7,4.68,1.33-.47,2.45-.16,3.83-.25a3,3,0,0,0,2.82-3.48,4.3,4.3,0,0,0-2.47,1.1,6.65,6.65,0,0,1-2.67,1.72,6.53,6.53,0,0,0,2.46-1.91A5,5,0,0,1,224.55,617.38Z"/><path class="cls-7" d="M216.18,623.89a2.35,2.35,0,0,0,1.45-1.8c.28-1.64-1.71-2.84-1.79-4.34a10.49,10.49,0,0,1-1.29,2.73,2.37,2.37,0,0,0,1.3,3.27,3.39,3.39,0,0,0,.19-2.12,5.13,5.13,0,0,1-.15-2.49,5.22,5.22,0,0,0,.36,2.42A3.92,3.92,0,0,1,216.18,623.89Z"/><path class="cls-7" d="M232.62,624.43a3.88,3.88,0,0,0-3.77.42c-2.22,1.58-1.3,5.28-2.93,7.12,1.48-1.06,3-1.07,4.66-1.68a3.9,3.9,0,0,0,2.26-5.32,5.71,5.71,0,0,0-2.68,2.25,8.38,8.38,0,0,1-2.69,3.07,8.59,8.59,0,0,0,2.38-3.23A6.43,6.43,0,0,1,232.62,624.43Z"/><path class="cls-7" d="M236.94,618.57a3.86,3.86,0,0,0-3.39-1.71c-2.72.11-4,3.71-6.34,4.36,1.82-.08,3.08.73,4.82,1.14a3.89,3.89,0,0,0,4.8-3.22,5.68,5.68,0,0,0-3.47.42,8.53,8.53,0,0,1-3.94,1.11,8.76,8.76,0,0,0,3.76-1.41A6.31,6.31,0,0,1,236.94,618.57Z"/><path class="cls-7" d="M234.31,605.53a2.38,2.38,0,0,0,1-2.1c-.14-1.66-2.36-2.33-2.81-3.76a10.16,10.16,0,0,1-.58,3,2.36,2.36,0,0,0,2.08,2.84,3.47,3.47,0,0,0-.35-2.1,5.22,5.22,0,0,1-.76-2.37,5.16,5.16,0,0,0,1,2.26A3.9,3.9,0,0,1,234.31,605.53Z"/><path class="cls-7" d="M233.65,634.15a5.75,5.75,0,0,1,1.21-5.52c2.69-3,8-1.1,11-3.23-1.79,2-2,4.24-3.21,6.63-1.48,3.05-5.44,4.43-8.22,2.53a8.41,8.41,0,0,1,3.75-3.61,12.64,12.64,0,0,0,5-3.51c-1.14,1.47-3.88,2.54-5.16,3A9.48,9.48,0,0,0,233.65,634.15Z"/><path class="cls-7" d="M225.72,640a4,4,0,0,0,1.6-3.57c-.25-2.8-4-3.9-4.8-6.31.16,1.86-.6,3.2-.93,5a4,4,0,0,0,3.54,4.78,5.8,5.8,0,0,0-.61-3.55,8.71,8.71,0,0,1-1.32-4,8.78,8.78,0,0,0,1.63,3.8A6.47,6.47,0,0,1,225.72,640Z"/><path class="cls-7" d="M230.2,642.07a4.67,4.67,0,0,1,2.84-3.55c3-1.23,6.18,2.08,9.09,1.61-2,.82-3,2.32-4.69,3.63a4.65,4.65,0,0,1-6.83-1.12,6.77,6.77,0,0,1,4-1.26,10.29,10.29,0,0,0,4.84-.76c-1.35.66-3.71.45-4.8.33A7.75,7.75,0,0,0,230.2,642.07Z"/><path class="cls-7" d="M236.52,649.86a3.6,3.6,0,0,1,.65-3.47c1.62-1.95,5-.84,6.8-2.22-1.08,1.29-1.2,2.68-1.88,4.19A3.62,3.62,0,0,1,237,650.1a5.21,5.21,0,0,1,2.27-2.33,7.92,7.92,0,0,0,3-2.28,8,8,0,0,1-3.16,2A5.93,5.93,0,0,0,236.52,649.86Z"/><path class="cls-7" d="M206.44,637.3a4.64,4.64,0,0,0-3.88-2.37c-3.27-.13-5.1,4.05-8,4.6,2.18.08,3.61,1.17,5.65,1.82a4.66,4.66,0,0,0,6-3.37,6.78,6.78,0,0,0-4.19.16,10.07,10.07,0,0,1-4.8.94c1.49.16,3.63-.84,4.62-1.32A7.68,7.68,0,0,1,206.44,637.3Z"/><path class="cls-7" d="M208.22,631.47a3.4,3.4,0,0,0-.19-3.28c-1.27-2-4.51-1.36-6-2.85.85,1.33.79,2.62,1.25,4.1a3.36,3.36,0,0,0,4.49,2.2,4.91,4.91,0,0,0-1.82-2.42,7.3,7.3,0,0,1-2.54-2.46,7.52,7.52,0,0,0,2.69,2.2A5.48,5.48,0,0,1,208.22,631.47Z"/><path class="cls-7" d="M221.81,642.09a4.13,4.13,0,0,0-4,.62c-2.29,1.79-1.13,5.68-2.77,7.71,1.51-1.19,3.11-1.28,4.86-2a4.12,4.12,0,0,0,2.15-5.75,6,6,0,0,0-2.73,2.51,9,9,0,0,1-2.72,3.4A9.19,9.19,0,0,0,219,645,6.78,6.78,0,0,1,221.81,642.09Z"/><path class="cls-7" d="M181.49,640.36a8.46,8.46,0,0,0,2.72-7.84c-1-5.86-9.19-7.51-11.3-12.45.7,3.91-.68,6.87-1,10.76-.47,4.95,3.43,9.71,8.36,9.45a12.29,12.29,0,0,0-1.92-7.39c-1.55-2.28-3.34-5.33-3.54-8.19.29,2.71,2.91,6.15,4.15,7.72A13.89,13.89,0,0,1,181.49,640.36Z"/><path class="cls-7" d="M195.29,647.39a5.72,5.72,0,0,0-.83-5.56c-2.47-3.2-7.89-1.62-10.71-3.93,1.65,2.13,1.75,4.34,2.75,6.79,1.28,3.12,5.12,4.76,8,3a8.29,8.29,0,0,0-3.48-3.83,12.66,12.66,0,0,1-4.71-3.81c1,1.54,3.69,2.78,4.93,3.33A9.49,9.49,0,0,1,195.29,647.39Z"/><path class="cls-7" d="M203.14,645.65a4.48,4.48,0,0,1,1.53-4.11c2.4-2,6.28,0,8.8-1.28-1.6,1.36-2,3-3.19,4.74a4.49,4.49,0,0,1-6.59,1,6.49,6.49,0,0,1,3.27-2.36,10,10,0,0,0,4.2-2.15c-1,1-3.26,1.52-4.29,1.75A7.36,7.36,0,0,0,203.14,645.65Z"/><path class="cls-7" d="M177.81,648.25A4.52,4.52,0,0,0,174,646.1c-3.15,0-4.76,4.09-7.53,4.73,2.1,0,3.51,1,5.5,1.54a4.49,4.49,0,0,0,5.7-3.47,6.54,6.54,0,0,0-4,.32A9.75,9.75,0,0,1,169,650.3c1.44.1,3.47-.95,4.4-1.44A7.34,7.34,0,0,1,177.81,648.25Z"/><path class="cls-7" d="M182.65,656.69a5.32,5.32,0,0,0-4.89-1.77c-3.69.62-4.77,5.72-7.88,7,2.45-.41,4.3.47,6.73.73,3.1.33,6.1-2.08,6-5.17a7.74,7.74,0,0,0-4.64,1.16,11.68,11.68,0,0,1-5.16,2.16c1.7-.17,3.87-1.79,4.86-2.55A8.69,8.69,0,0,1,182.65,656.69Z"/><path class="cls-7" d="M216.55,654.75a4.93,4.93,0,0,0-2.71-4c-3.11-1.56-6.72,1.68-9.76.94,2.07,1,3,2.71,4.66,4.24,2.15,2,5.73,1.78,7.33-.61a7.25,7.25,0,0,0-4.12-1.68,10.76,10.76,0,0,1-5.07-1.2c1.38.81,3.89.78,5.06.75A8.15,8.15,0,0,1,216.55,654.75Z"/><path class="cls-7" d="M221.52,664.38a4.31,4.31,0,0,0-4.23,0c-2.66,1.48-2.09,5.69-4.12,7.53,1.77-1,3.43-.82,5.36-1.29A4.34,4.34,0,0,0,221.7,665a6.27,6.27,0,0,0-3.24,2.16,9.49,9.49,0,0,1-3.37,3.08c1.27-.6,2.48-2.44,3-3.3A7.08,7.08,0,0,1,221.52,664.38Z"/><path class="cls-7" d="M226.84,655.57a3.08,3.08,0,0,0-1.28-2.73c-1.75-1.26-4.29.38-6.09-.37,1.17.84,1.56,2,2.45,3.07a3.09,3.09,0,0,0,4.57.34,4.46,4.46,0,0,0-2.37-1.44,6.72,6.72,0,0,1-3-1.23,6.83,6.83,0,0,0,3,.95A5.07,5.07,0,0,1,226.84,655.57Z"/><path class="cls-7" d="M216.31,660.59a3.07,3.07,0,0,0-2.89-.85c-2.11.49-2.56,3.48-4.31,4.33,1.4-.32,2.5.12,3.92.19a3.08,3.08,0,0,0,3.27-3.21,4.48,4.48,0,0,0-2.64.83,6.81,6.81,0,0,1-2.91,1.44,6.91,6.91,0,0,0,2.73-1.65A5,5,0,0,1,216.31,660.59Z"/><path class="cls-7" d="M231.17,674.09a4.85,4.85,0,0,0-2.71,3.9c-.32,3.39,3.92,5.55,4.32,8.6.21-2.26,1.43-3.69,2.23-5.77,1-2.66-.4-5.88-3.15-6.49a7,7,0,0,0-.08,4.36,10.56,10.56,0,0,1,.69,5.06c.26-1.54-.66-3.83-1.1-4.89A7.93,7.93,0,0,1,231.17,674.09Z"/><path class="cls-7" d="M234.82,661.92a3.23,3.23,0,0,1,.69-3.1c1.51-1.71,4.5-.61,6.18-1.79-1,1.13-1.16,2.37-1.82,3.71a3.24,3.24,0,0,1-4.62,1.4,4.8,4.8,0,0,1,2.11-2,7.05,7.05,0,0,0,2.8-2,7.25,7.25,0,0,1-2.9,1.69A5.29,5.29,0,0,0,234.82,661.92Z"/><path class="cls-7" d="M222.21,682.49a4.53,4.53,0,0,1-3.35-2.91c-1.08-3,2.26-5.94,1.92-8.79.72,2,2.15,3,3.36,4.71a4.54,4.54,0,0,1-1.36,6.61,6.62,6.62,0,0,1-1.08-3.94,9.93,9.93,0,0,0-.54-4.74c.59,1.33.29,3.63.13,4.69A7.44,7.44,0,0,0,222.21,682.49Z"/><path class="cls-7" d="M188.13,675.07a5,5,0,0,0,2.27-4.34c-.1-3.52-4.72-5.19-5.52-8.25.07,2.34-1,3.95-1.54,6.19-.71,2.85,1.16,6,4.06,6.24a7.35,7.35,0,0,0-.48-4.48,10.85,10.85,0,0,1-1.36-5.09c-.07,1.61,1.17,3.84,1.75,4.87A8.15,8.15,0,0,1,188.13,675.07Z"/><path class="cls-7" d="M171.91,673.47a7.24,7.24,0,0,0-4.19-5.74c-4.63-2.13-9.76,2.8-14.27,1.86,3.09,1.42,4.5,3.84,7.05,6,3.25,2.74,8.5,2.32,10.73-1.27a10.61,10.61,0,0,0-6.13-2.25c-2.36,0-5.38-.26-7.5-1.52,2.06,1.12,5.75,1,7.46.86A11.91,11.91,0,0,1,171.91,673.47Z"/><path class="cls-7" d="M180.63,690.23a5.3,5.3,0,0,0-4.89-1.76c-3.68.61-4.77,5.71-7.88,7,2.45-.41,4.3.47,6.73.73,3.1.33,6.11-2.08,6-5.17a7.66,7.66,0,0,0-4.64,1.15,11.63,11.63,0,0,1-5.16,2.16c1.7-.16,3.87-1.78,4.87-2.55A8.72,8.72,0,0,1,180.63,690.23Z"/><path class="cls-7" d="M203.11,681.79a4.07,4.07,0,0,0,1.45-3.69c-.38-2.82-4.24-3.76-5.15-6.16.26,1.87-.46,3.26-.71,5.11a4.06,4.06,0,0,0,3.8,4.68,5.86,5.86,0,0,0-.77-3.57,8.83,8.83,0,0,1-1.53-4A9.11,9.11,0,0,0,202,678,6.7,6.7,0,0,1,203.11,681.79Z"/><path class="cls-7" d="M191.42,675.4a4,4,0,0,0-1.91,3.48c0,2.84,3.74,4.26,4.34,6.76,0-1.9.87-3.18,1.35-5a4.06,4.06,0,0,0-3.19-5.11,5.85,5.85,0,0,0,.32,3.63,8.81,8.81,0,0,1,1,4.14,9.16,9.16,0,0,0-1.34-4A6.57,6.57,0,0,1,191.42,675.4Z"/><path class="cls-7" d="M209,695.88a4.71,4.71,0,0,1-2.21-4c0-3.3,4.33-5,5-7.85,0,2.2,1,3.69,1.57,5.78a4.71,4.71,0,0,1-3.7,5.94,6.86,6.86,0,0,1,.37-4.22,10.18,10.18,0,0,0,1.18-4.8c.09,1.51-1,3.63-1.55,4.6A7.64,7.64,0,0,0,209,695.88Z"/><path class="cls-7" d="M207.19,682.62a2.39,2.39,0,0,1,0-2.35c.81-1.48,3.15-1.19,4.16-2.33a10.42,10.42,0,0,0-.69,3,2.4,2.4,0,0,1-3.1,1.78,3.54,3.54,0,0,1,1.19-1.81,5.15,5.15,0,0,0,1.68-1.88,5.28,5.28,0,0,1-1.81,1.7A3.9,3.9,0,0,0,207.19,682.62Z"/><path class="cls-7" d="M178.63,671.85a3,3,0,0,1-2.19-2.06c-.65-2.06,1.69-3.95,1.54-5.89.43,1.37,1.37,2.09,2.14,3.28a3.06,3.06,0,0,1-1.1,4.43,4.48,4.48,0,0,1-.62-2.69,6.68,6.68,0,0,0-.24-3.23,6.79,6.79,0,0,1,0,3.18A5,5,0,0,0,178.63,671.85Z"/><path class="cls-7" d="M200,696.2a6.52,6.52,0,0,0-6.18-1.56c-4.41,1.18-5.13,7.53-8.77,9.46,2.94-.79,5.3.07,8.29.1,3.82,0,7.2-3.27,6.68-7a9.43,9.43,0,0,0-5.52,2c-1.65,1.33-3.87,2.9-6,3.25,2.06-.41,4.51-2.64,5.64-3.69A10.69,10.69,0,0,1,200,696.2Z"/><path class="cls-7" d="M146.28,694.88c1.64-3.47.31-7.41-1.18-9.43-4-5.48-13.24-3-17.9-7.05,2.69,3.66,2.78,7.4,4.37,11.57,2,5.32,8.44,8.22,13.36,5.47a14,14,0,0,0-5.71-6.61c-2.75-1.56-6.13-3.79-7.79-6.62,1.68,2.64,6.11,4.84,8.17,5.83A15.9,15.9,0,0,1,146.28,694.88Z"/><path class="cls-7" d="M180.79,684.7a3.72,3.72,0,0,0-1-3.53c-1.85-1.87-5.23-.41-7.25-1.68,1.24,1.25,1.49,2.67,2.34,4.18a3.76,3.76,0,0,0,5.42,1.33,5.43,5.43,0,0,0-2.56-2.2,8.3,8.3,0,0,1-3.36-2.09,8.44,8.44,0,0,0,3.46,1.76A6.14,6.14,0,0,1,180.79,684.7Z"/><path class="cls-7" d="M160.61,694.31A6.25,6.25,0,0,0,165,690c1.21-4.22-3.65-8-3.43-11.91-.81,2.81-2.69,4.32-4.19,6.77-1.92,3.13-.89,7.54,2.45,9a9,9,0,0,0,1.13-5.51c-.27-2-.47-4.61.32-6.57-.68,1.89-.07,5,.24,6.46A10.24,10.24,0,0,1,160.61,694.31Z"/><path class="cls-7" d="M152.23,703.22a8.28,8.28,0,0,0-7.82-2.07c-5.62,1.45-6.62,9.5-11.27,11.91,3.74-1,6.73.15,10.53.23,4.85.09,9.19-4.06,8.58-8.83a12,12,0,0,0-7,2.42c-2.11,1.67-5,3.63-7.71,4,2.62-.48,5.76-3.28,7.2-4.6A13.55,13.55,0,0,1,152.23,703.22Z"/><path class="cls-7" d="M156.68,731.28a8.28,8.28,0,0,0-7.83-2.07c-5.62,1.44-6.62,9.49-11.27,11.9,3.75-1,6.73.16,10.54.23,4.84.1,9.18-4.05,8.57-8.82a12,12,0,0,0-7,2.42c-2.11,1.66-4.94,3.63-7.71,4,2.62-.49,5.77-3.28,7.21-4.6A13.55,13.55,0,0,1,156.68,731.28Z"/><path class="cls-7" d="M209.28,724.49a8.26,8.26,0,0,1,2.67-7.64c4.35-3.84,11.57-.16,16.17-2.66-2.89,2.56-3.64,5.66-5.71,8.86-2.64,4.06-8.51,5.33-12.11,2.15a12,12,0,0,1,5.94-4.48c2.57-.81,5.78-2.05,7.67-4.11-1.87,1.9-5.95,2.93-7.85,3.38A13.54,13.54,0,0,0,209.28,724.49Z"/><path class="cls-7" d="M201.81,722.06a5.85,5.85,0,0,1-1.09-5.64c1.29-3.9,7-4.23,9-7.4-.86,2.6-.21,4.77-.34,7.46-.17,3.44-3.31,6.31-6.65,5.65a8.47,8.47,0,0,1,2-4.87A12.76,12.76,0,0,0,208,712c-.47,1.83-2.6,3.92-3.6,4.88A9.59,9.59,0,0,0,201.81,722.06Z"/><path class="cls-7" d="M175.78,704.33a4.58,4.58,0,0,1-.85-4.39c1-3,5.48-3.29,7-5.76-.67,2-.16,3.71-.26,5.81a4.56,4.56,0,0,1-5.18,4.39,6.69,6.69,0,0,1,1.59-3.78,10,10,0,0,0,2.52-4.1c-.37,1.43-2,3-2.8,3.8A7.4,7.4,0,0,0,175.78,704.33Z"/><path class="cls-7" d="M177.86,715.81a5.88,5.88,0,0,1,1.94-5.41c3.11-2.7,8.22,0,11.5-1.79-2.07,1.8-2.62,4-4.11,6.25-1.9,2.87-6.07,3.74-8.61,1.46a8.5,8.5,0,0,1,4.25-3.14,12.9,12.9,0,0,0,5.47-2.88c-1.35,1.34-4.25,2.05-5.6,2.36A9.54,9.54,0,0,0,177.86,715.81Z"/><path class="cls-7" d="M195.75,731.52a5.83,5.83,0,0,0,1.75-5.47c-.82-4-6.49-5-8-8.42.55,2.69-.35,4.76-.54,7.46-.24,3.43,2.54,6.66,5.94,6.4a8.56,8.56,0,0,0-1.45-5.08,12.77,12.77,0,0,1-2.59-5.61c.25,1.87,2.12,4.21,3,5.27A9.67,9.67,0,0,1,195.75,731.52Z"/><path class="cls-7" d="M205.49,749.15a7.64,7.64,0,0,1,.13-7.47c2.7-4.63,10.11-3.49,13.42-7-1.8,3.08-1.56,6-2.45,9.42-1.14,4.32-5.92,7.13-10,5.39a11.1,11.1,0,0,1,3.92-5.65c2-1.45,4.47-3.47,5.54-5.83-1.1,2.21-4.38,4.3-5.91,5.24A12.5,12.5,0,0,0,205.49,749.15Z"/><path class="cls-7" d="M160.27,719.76a4.62,4.62,0,0,0-.1-4.5c-1.64-2.78-6.11-2.07-8.11-4.19,1.09,1.86.95,3.63,1.5,5.67a4.62,4.62,0,0,0,6.05,3.23,6.75,6.75,0,0,0-2.38-3.4,10.05,10.05,0,0,1-3.36-3.5c.67,1.33,2.65,2.58,3.58,3.15A7.51,7.51,0,0,1,160.27,719.76Z"/><path class="cls-7" d="M166.8,734.49a5.75,5.75,0,0,0-5.61.37c-3.38,2.18-2.26,7.7-4.79,10.31,2.25-1.46,4.46-1.38,7-2.17,3.21-1,5.15-4.69,3.7-7.69a8.27,8.27,0,0,0-4.1,3.14,12.55,12.55,0,0,1-4.18,4.36c1.61-.9,3.07-3.43,3.72-4.62A9.47,9.47,0,0,1,166.8,734.49Z"/><path class="cls-7" d="M166.33,778.55a8,8,0,0,0-7.81.51c-4.71,3.05-3.15,10.73-6.68,14.36,3.14-2,6.22-1.92,9.73-3,4.47-1.4,7.17-6.53,5.15-10.71a11.54,11.54,0,0,0-5.71,4.37c-1.42,2.18-3.42,4.85-5.82,6.07,2.25-1.25,4.27-4.78,5.18-6.43A13.16,13.16,0,0,1,166.33,778.55Z"/><path class="cls-7" d="M182.57,781.9a8,8,0,0,0-5,6c-1.06,5.51,5.56,9.71,5.75,14.77.7-3.67,2.91-5.82,4.54-9.11,2.09-4.2.26-9.7-4.16-11.14a11.57,11.57,0,0,0-.8,7.15c.59,2.53,1.13,5.82.35,8.41.66-2.49-.49-6.4-1.05-8.2A13.13,13.13,0,0,1,182.57,781.9Z"/><path class="cls-7" d="M172.88,783.86a5.45,5.45,0,0,0-3.91,3.63c-1.18,3.65,3,7,2.66,10.49.78-2.43,2.46-3.7,3.85-5.79,1.76-2.67,1-6.56-1.9-7.9a8,8,0,0,0-1.14,4.78,12,12,0,0,1-.46,5.73c.65-1.64.2-4.38,0-5.65A9,9,0,0,1,172.88,783.86Z"/><path class="cls-7" d="M178,759a5.47,5.47,0,0,0-2.19-4.87c-3.08-2.28-7.63.55-10.79-.83,2.05,1.52,2.71,3.52,4.26,5.5,2,2.52,5.89,3,8.08.73a7.85,7.85,0,0,0-4.16-2.61,12.05,12.05,0,0,1-5.28-2.27c1.34,1.14,4.08,1.59,5.36,1.78A9,9,0,0,1,178,759Z"/><path class="cls-7" d="M177.44,766.85a5.47,5.47,0,0,0-5.31-.59c-3.53,1.5-3.4,6.85-6.19,8.89,2.35-1,4.41-.56,6.9-.89,3.17-.42,5.59-3.55,4.73-6.6a8,8,0,0,0-4.36,2.26,11.86,11.86,0,0,1-4.64,3.4c1.67-.57,3.44-2.71,4.25-3.71A8.92,8.92,0,0,1,177.44,766.85Z"/><path class="cls-7" d="M198.77,778.74a5.47,5.47,0,0,0-2.89,4.49c-.23,3.83,4.62,6.09,5.19,9.5.16-2.55,1.47-4.2,2.29-6.57,1-3-.68-6.59-3.81-7.18a8,8,0,0,0,.09,4.92,12,12,0,0,1,1,5.66c.22-1.75-.89-4.29-1.43-5.46A8.9,8.9,0,0,1,198.77,778.74Z"/><path class="cls-7" d="M203.82,779.57a5.43,5.43,0,0,0,1.34,5.17c2.65,2.77,7.61.74,10.5,2.63-1.77-1.84-2.09-3.92-3.28-6.13-1.52-2.82-5.31-4-7.85-2.08a7.91,7.91,0,0,0,3.66,3.27,11.93,11.93,0,0,1,4.83,3.12c-1.13-1.35-3.76-2.25-5-2.65A8.86,8.86,0,0,1,203.82,779.57Z"/><path class="cls-7" d="M189.39,743.52a8.24,8.24,0,0,0-6.49-4.83c-5.76-.74-9.67,6.36-14.89,6.87,3.84.49,6.19,2.64,9.7,4.12,4.47,1.89,10-.35,11.24-5a12,12,0,0,0-7.44-.38c-2.57.77-5.93,1.54-8.65.9,2.61.52,6.57-.91,8.39-1.6A13.55,13.55,0,0,1,189.39,743.52Z"/><path class="cls-6" d="M1145.4,312.89c4.39,3.9,5.36,14.15,6.34,18.05,8.78,34.16,13.67,67.35,22.94,101v2c0,1,2.44,8.3,2.44,9.27l5.37,31.24,8.29,32.21c1,3.41,6.34,31.72,7.32,35.62l23.42,104.92c.49,2-3.41,2.93-4.39,3.42-9.27,2.44-19.52,1.95-29.28,1.95H1177.6c-7.32,0-37.57-1-42-7.81l-1.47-6.34c-3.9-15.62-7.32-31.24-10.73-46.85L1075.61,593l-15.13-1-11.71,51.72c-4.39,6.84-34.65,7.81-42,7.81H996.55c-9.76,0-22,.49-31.23-1.95-1-.49-4.88-1.46-4.39-3.41,3.42-13.18,4.39-26.85,45.87-204,0-1,2.44-8.3,2.44-9.27v-2c9.27-33.67,14.16-66.85,22.94-101,1-3.91,2-14.16,6.34-18.06,7.81,1,19.52.49,27.82-.49Zm-72.23,217.16,37.09-.49-18.06-88.82C1085.37,470.51,1079.51,500.28,1073.17,530.05Z"/><path class="cls-6" d="M1235.67,592.51a31.76,31.76,0,0,1-3.9-13.66c0-3.9.49-9.76,3.41-12.69,1.47-.49,7.33-6.83,8.79-8.29,2-1,6.83-5.37,7.81-6.35,1.46-1,9.76-6.34,11.22-7.32,4.88-2.93,17.57-11.71,23.43-10.73,14.64,2.92,29.76,42,54.65,42,32.7,0,29.77-22-3.41-46.84-15.62-11.72-27.82-24.4-43-36.6-84.91-67.84-77.59-172.27,31.72-185.45,43-5.37,87.36,14.15,112.73,44.9,6.84,9.27-21,47.82-25.86,54.17-2,3.9-4.88,11.71-9.76,11.71a29,29,0,0,1-9.76-1.95c-15.62-9.76-29.28-28.79-49.78-28.79-15.61,0-21.47,18.05-13.17,29.76,18.05,18.06,48.31,42.46,69.29,57.1,41,28.79,54.66,84.43,34.16,124.93-20,40-58.56,56.61-104.92,56.61-15.61,0-27.82-3.42-41.48-10.25-7.32-3.9-9.27-6.34-15.13-7.81C1251.29,618.87,1248.85,616.43,1235.67,592.51Z"/><path class="cls-6" d="M1552.38,637.9l-.49,5.85c-2.44,6.84-32.69,7.81-40,7.81h-10.25c-10.25,0-17.08.49-27.33-1.95-1-.49-4.88-1.46-4.88-3.41.49-12.69-1.46-26.36-1-38.56v-7.32c-.49-3.41-1.47-29.28-4.4-264,0-3.9-1-13.66,2.44-17.57.49-2.44,81.5-4.39,81.5,3.42C1545.55,425.13,1550.92,529.56,1552.38,637.9Z"/></svg>